STARTFONT 2.1
FONT -DIGITAL-VT220-medium-I-Normal-136col-60-600-75-75-c-270-iso10646-1
SIZE 60 75 75
FONTBOUNDINGBOX 46 60 -9 -12
STARTPROPERTIES 21
FOUNDRY "DIGITAL"
FAMILY_NAME "vt220"
WEIGHT_NAME "medium"
RELATIVE_SETWIDTH 50
SLANT "I"
SETWIDTH_NAME "Normal"
ADD_STYLE_NAME "136col"
PIXEL_SIZE 60
POINT_SIZE 600
RESOLUTION_X 75
RESOLUTION_Y 75
SPACING "c"
CHARSET_REGISTRY "ISO10646"
CHARSET_ENCODING "1"
CAP_HEIGHT 42
X_HEIGHT 30
WEIGHT 10
QUAD_WIDTH 27
FONT_ASCENT 48
FONT_DESCENT 12
AVERAGE_WIDTH 270
ENDPROPERTIES
CHARS 237
STARTCHAR U+00FD
ENCODING 253
SWIDTH 1000 0
DWIDTH 27 0
BBX 46 60 -9 -12
BITMAP
000000000000
000000000000
000000000000
000000000000
000000000000
000000000000
000000000000
000000000000
000000000000
000000000000
000000000000
000000000000
000000000000
000000000000
000000000000
000000000000
000000000000
000000000000
000000000000
000000000000
000000000000
000000000000
000000000000
000000000000
000000000000
000000000000
000000000000
000000000000
000000000000
000000000000
000000000000
000000000000
000000000000
000000000000
000000000000
000000000000
000000000000
000000000000
000000000000
000000000000
000000000000
000000000000
000000000000
000000000000
000000000000
000000000000
000000000000
000000000000
000000000000
000000000000
000000000000
000000000000
000000000000
000000000000
000000000000
000000000000
000000000000
000000000000
000000000000
000000000000
ENDCHAR
STARTCHAR U+25A1
ENCODING 9633
SWIDTH 1000 0
DWIDTH 27 0
BBX 46 60 -9 -12
BITMAP
000000000000
000000000000
000000000000
000000000000
000000000000
000000000000
00007FFFFF80
00007FFFFF80
00007FFFFF80
0000FFFFFF00
0000FFFFFF00
0000FFFFFF00
0001F8007E00
0001F8007E00
0001F8007E00
0003F000FC00
0003F000FC00
0003F000FC00
0007E001F800
0007E001F800
0007E001F800
000FC003F000
000FC003F000
000FC003F000
001F8007E000
001F8007E000
001F8007E000
003F000FC000
003F000FC000
003F000FC000
007E001F8000
007E001F8000
007E001F8000
00FC003F0000
00FC003F0000
00FC003F0000
01F8007E0000
01F8007E0000
01F8007E0000
03F000FC0000
03F000FC0000
03F000FC0000
07FFFFF80000
07FFFFF80000
07FFFFF80000
0FFFFFF00000
0FFFFFF00000
0FFFFFF00000
000000000000
000000000000
000000000000
000000000000
000000000000
000000000000
000000000000
000000000000
000000000000
000000000000
000000000000
000000000000
ENDCHAR
STARTCHAR U+00FE
ENCODING 254
SWIDTH 1000 0
DWIDTH 27 0
BBX 46 60 -9 -12
BITMAP
000000000000
000000000000
000000000000
000000000000
000000000000
000000000000
00007E000000
00007E000000
00007E000000
0000FC000000
0000FC000000
0000FC000000
0001F8000000
0001F8000000
0001F8000000
0003F0000000
0003F0000000
0003F0000000
0007FFFFC000
0007FFFFC000
0007FFFFC000
000FFFFF8000
000FFFFF8000
000FFFFF8000
001FF007E000
001FF007E000
001FF007E000
003FE00FC000
003FE00FC000
003FE00FC000
007FC01F8000
007FC01F8000
007FC01F8000
00FF803F0000
00FF803F0000
00FF803F0000
01FFFFF00000
01FFFFF00000
01FFFFF00000
03FFFFE00000
03FFFFE00000
03FFFFE00000
07E000000000
07E000000000
07E000000000
0FC000000000
0FC000000000
0FC000000000
1F8000000000
1F8000000000
1F8000000000
3F0000000000
3F0000000000
3F0000000000
7E0000000000
7E0000000000
7E0000000000
FC0000000000
FC0000000000
FC0000000000
ENDCHAR
STARTCHAR U+00FF
ENCODING 255
SWIDTH 1000 0
DWIDTH 27 0
BBX 46 60 -9 -12
BITMAP
000000000000
000000000000
000000000000
000000000000
000000000000
000000000000
00000FC0FC00
00000FC0FC00
00000FC0FC00
00001F81F800
00001F81F800
00001F81F800
000000000000
000000000000
000000000000
000000000000
000000000000
000000000000
0007E00FC000
0007E00FC000
0007E00FC000
000FC01F8000
000FC01F8000
000FC01F8000
001F803F0000
001F803F0000
001F803F0000
003F007E0000
003F007E0000
003F007E0000
007E07FC0000
007E07FC0000
007E07FC0000
00FC0FF80000
00FC0FF80000
00FC0FF80000
003FFFF00000
003FFFF00000
003FFFF00000
007FFFE00000
007FFFE00000
007FFFE00000
00000FC00000
00000FC00000
00000FC00000
00001F800000
00001F800000
00001F800000
1F803F000000
1F803F000000
1F803F000000
3F007E000000
3F007E000000
3F007E000000
0FFFE0000000
0FFFE0000000
0FFFE0000000
1FFFC0000000
1FFFC0000000
1FFFC0000000
ENDCHAR
STARTCHAR U+00FC
ENCODING 252
SWIDTH 1000 0
DWIDTH 27 0
BBX 46 60 -9 -12
BITMAP
000000000000
000000000000
000000000000
000000000000
000000000000
000000000000
00000FC0FC00
00000FC0FC00
00000FC0FC00
00001F81F800
00001F81F800
00001F81F800
000000000000
000000000000
000000000000
000000000000
000000000000
000000000000
0007E00FC000
0007E00FC000
0007E00FC000
000FC01F8000
000FC01F8000
000FC01F8000
001F803F0000
001F803F0000
001F803F0000
003F007E0000
003F007E0000
003F007E0000
007E00FC0000
007E00FC0000
007E00FC0000
00FC01F80000
00FC01F80000
00FC01F80000
01F803F00000
01F803F00000
01F803F00000
03F007E00000
03F007E00000
03F007E00000
00FFFFF80000
00FFFFF80000
00FFFFF80000
01FFFFF00000
01FFFFF00000
01FFFFF00000
000000000000
000000000000
000000000000
000000000000
000000000000
000000000000
000000000000
000000000000
000000000000
000000000000
000000000000
000000000000
ENDCHAR
STARTCHAR U+00FB
ENCODING 251
SWIDTH 1000 0
DWIDTH 27 0
BBX 46 60 -9 -12
BITMAP
0000007FF800
0000007FF800
0000007FF800
000000FFF000
000000FFF000
000000FFF000
00000FC0FC00
00000FC0FC00
00000FC0FC00
00001F81F800
00001F81F800
00001F81F800
000000000000
000000000000
000000000000
000000000000
000000000000
000000000000
0007E00FC000
0007E00FC000
0007E00FC000
000FC01F8000
000FC01F8000
000FC01F8000
001F803F0000
001F803F0000
001F803F0000
003F007E0000
003F007E0000
003F007E0000
007E00FC0000
007E00FC0000
007E00FC0000
00FC01F80000
00FC01F80000
00FC01F80000
01F803F00000
01F803F00000
01F803F00000
03F007E00000
03F007E00000
03F007E00000
00FFFFF80000
00FFFFF80000
00FFFFF80000
01FFFFF00000
01FFFFF00000
01FFFFF00000
000000000000
000000000000
000000000000
000000000000
000000000000
000000000000
000000000000
000000000000
000000000000
000000000000
000000000000
000000000000
ENDCHAR
STARTCHAR U+00FA
ENCODING 250
SWIDTH 1000 0
DWIDTH 27 0
BBX 46 60 -9 -12
BITMAP
000000000000
000000000000
000000000000
000000000000
000000000000
000000000000
0000003FE000
0000003FE000
0000003FE000
0000007FC000
0000007FC000
0000007FC000
00003FE00000
00003FE00000
00003FE00000
00007FC00000
00007FC00000
00007FC00000
0007E00FC000
0007E00FC000
0007E00FC000
000FC01F8000
000FC01F8000
000FC01F8000
001F803F0000
001F803F0000
001F803F0000
003F007E0000
003F007E0000
003F007E0000
007E00FC0000
007E00FC0000
007E00FC0000
00FC01F80000
00FC01F80000
00FC01F80000
01F803F00000
01F803F00000
01F803F00000
03F007E00000
03F007E00000
03F007E00000
00FFFFF80000
00FFFFF80000
00FFFFF80000
01FFFFF00000
01FFFFF00000
01FFFFF00000
000000000000
000000000000
000000000000
000000000000
000000000000
000000000000
000000000000
000000000000
000000000000
000000000000
000000000000
000000000000
ENDCHAR
STARTCHAR U+00F9
ENCODING 249
SWIDTH 1000 0
DWIDTH 27 0
BBX 46 60 -9 -12
BITMAP
000000000000
000000000000
000000000000
000000000000
000000000000
000000000000
00000FF80000
00000FF80000
00000FF80000
00001FF00000
00001FF00000
00001FF00000
000000FF8000
000000FF8000
000000FF8000
000001FF0000
000001FF0000
000001FF0000
0007E00FC000
0007E00FC000
0007E00FC000
000FC01F8000
000FC01F8000
000FC01F8000
001F803F0000
001F803F0000
001F803F0000
003F007E0000
003F007E0000
003F007E0000
007E00FC0000
007E00FC0000
007E00FC0000
00FC01F80000
00FC01F80000
00FC01F80000
01F803F00000
01F803F00000
01F803F00000
03F007E00000
03F007E00000
03F007E00000
00FFFFF80000
00FFFFF80000
00FFFFF80000
01FFFFF00000
01FFFFF00000
01FFFFF00000
000000000000
000000000000
000000000000
000000000000
000000000000
000000000000
000000000000
000000000000
000000000000
000000000000
000000000000
000000000000
ENDCHAR
STARTCHAR U+00F8
ENCODING 248
SWIDTH 1000 0
DWIDTH 27 0
BBX 46 60 -9 -12
BITMAP
000000000000
000000000000
000000000000
000000000000
000000000000
000000000000
000000000000
000000000000
000000000000
000000000000
000000000000
000000000000
000000007E00
000000007E00
000000007E00
00000000FC00
00000000FC00
00000000FC00
0000FFFFC000
0000FFFFC000
0000FFFFC000
0001FFFF8000
0001FFFF8000
0001FFFF8000
001F81FFE000
001F81FFE000
001F81FFE000
003F03FFC000
003F03FFC000
003F03FFC000
007E3F1F8000
007E3F1F8000
007E3F1F8000
00FC7E3F0000
00FC7E3F0000
00FC7E3F0000
01FFE07E0000
01FFE07E0000
01FFE07E0000
03FFC0FC0000
03FFC0FC0000
03FFC0FC0000
00FFFFC00000
00FFFFC00000
00FFFFC00000
01FFFF800000
01FFFF800000
01FFFF800000
1F8000000000
1F8000000000
1F8000000000
3F0000000000
3F0000000000
3F0000000000
000000000000
000000000000
000000000000
000000000000
000000000000
000000000000
ENDCHAR
STARTCHAR U+0153
ENCODING 339
SWIDTH 1000 0
DWIDTH 27 0
BBX 46 60 -9 -12
BITMAP
000000000000
000000000000
000000000000
000000000000
000000000000
000000000000
000000000000
000000000000
000000000000
000000000000
000000000000
000000000000
000000000000
000000000000
000000000000
000000000000
000000000000
000000000000
0000FFFFC000
0000FFFFC000
0000FFFFC000
0001FFFF8000
0001FFFF8000
0001FFFF8000
001F8FC7E000
001F8FC7E000
001F8FC7E000
003F1F8FC000
003F1F8FC000
003F1F8FC000
007E3FFF8000
007E3FFF8000
007E3FFF8000
00FC7FFF0000
00FC7FFF0000
00FC7FFF0000
01F8FC000000
01F8FC000000
01F8FC000000
03F1F8000000
03F1F8000000
03F1F8000000
00FFFFF80000
00FFFFF80000
00FFFFF80000
01FFFFF00000
01FFFFF00000
01FFFFF00000
000000000000
000000000000
000000000000
000000000000
000000000000
000000000000
000000000000
000000000000
000000000000
000000000000
000000000000
000000000000
ENDCHAR
STARTCHAR U+00F6
ENCODING 246
SWIDTH 1000 0
DWIDTH 27 0
BBX 46 60 -9 -12
BITMAP
000000000000
000000000000
000000000000
000000000000
000000000000
000000000000
00000FC0FC00
00000FC0FC00
00000FC0FC00
00001F81F800
00001F81F800
00001F81F800
000000000000
000000000000
000000000000
000000000000
000000000000
000000000000
0000FFFFC000
0000FFFFC000
0000FFFFC000
0001FFFF8000
0001FFFF8000
0001FFFF8000
001F8007E000
001F8007E000
001F8007E000
003F000FC000
003F000FC000
003F000FC000
007E001F8000
007E001F8000
007E001F8000
00FC003F0000
00FC003F0000
00FC003F0000
01F8007E0000
01F8007E0000
01F8007E0000
03F000FC0000
03F000FC0000
03F000FC0000
00FFFFC00000
00FFFFC00000
00FFFFC00000
01FFFF800000
01FFFF800000
01FFFF800000
000000000000
000000000000
000000000000
000000000000
000000000000
000000000000
000000000000
000000000000
000000000000
000000000000
000000000000
000000000000
ENDCHAR
STARTCHAR U+00F5
ENCODING 245
SWIDTH 1000 0
DWIDTH 27 0
BBX 46 60 -9 -12
BITMAP
000003FE3F00
000003FE3F00
000003FE3F00
000007FC7E00
000007FC7E00
000007FC7E00
00007E3FE000
00007E3FE000
00007E3FE000
0000FC7FC000
0000FC7FC000
0000FC7FC000
000000000000
000000000000
000000000000
000000000000
000000000000
000000000000
0000FFFFC000
0000FFFFC000
0000FFFFC000
0001FFFF8000
0001FFFF8000
0001FFFF8000
001F8007E000
001F8007E000
001F8007E000
003F000FC000
003F000FC000
003F000FC000
007E001F8000
007E001F8000
007E001F8000
00FC003F0000
00FC003F0000
00FC003F0000
01F8007E0000
01F8007E0000
01F8007E0000
03F000FC0000
03F000FC0000
03F000FC0000
00FFFFC00000
00FFFFC00000
00FFFFC00000
01FFFF800000
01FFFF800000
01FFFF800000
000000000000
000000000000
000000000000
000000000000
000000000000
000000000000
000000000000
000000000000
000000000000
000000000000
000000000000
000000000000
ENDCHAR
STARTCHAR U+00F4
ENCODING 244
SWIDTH 1000 0
DWIDTH 27 0
BBX 46 60 -9 -12
BITMAP
0000007FF800
0000007FF800
0000007FF800
000000FFF000
000000FFF000
000000FFF000
00000FC0FC00
00000FC0FC00
00000FC0FC00
00001F81F800
00001F81F800
00001F81F800
000000000000
000000000000
000000000000
000000000000
000000000000
000000000000
0000FFFFC000
0000FFFFC000
0000FFFFC000
0001FFFF8000
0001FFFF8000
0001FFFF8000
001F8007E000
001F8007E000
001F8007E000
003F000FC000
003F000FC000
003F000FC000
007E001F8000
007E001F8000
007E001F8000
00FC003F0000
00FC003F0000
00FC003F0000
01F8007E0000
01F8007E0000
01F8007E0000
03F000FC0000
03F000FC0000
03F000FC0000
00FFFFC00000
00FFFFC00000
00FFFFC00000
01FFFF800000
01FFFF800000
01FFFF800000
000000000000
000000000000
000000000000
000000000000
000000000000
000000000000
000000000000
000000000000
000000000000
000000000000
000000000000
000000000000
ENDCHAR
STARTCHAR U+00F3
ENCODING 243
SWIDTH 1000 0
DWIDTH 27 0
BBX 46 60 -9 -12
BITMAP
000000000000
000000000000
000000000000
000000000000
000000000000
000000000000
0000003FE000
0000003FE000
0000003FE000
0000007FC000
0000007FC000
0000007FC000
00003FE00000
00003FE00000
00003FE00000
00007FC00000
00007FC00000
00007FC00000
0000FFFFC000
0000FFFFC000
0000FFFFC000
0001FFFF8000
0001FFFF8000
0001FFFF8000
001F8007E000
001F8007E000
001F8007E000
003F000FC000
003F000FC000
003F000FC000
007E001F8000
007E001F8000
007E001F8000
00FC003F0000
00FC003F0000
00FC003F0000
01F8007E0000
01F8007E0000
01F8007E0000
03F000FC0000
03F000FC0000
03F000FC0000
00FFFFC00000
00FFFFC00000
00FFFFC00000
01FFFF800000
01FFFF800000
01FFFF800000
000000000000
000000000000
000000000000
000000000000
000000000000
000000000000
000000000000
000000000000
000000000000
000000000000
000000000000
000000000000
ENDCHAR
STARTCHAR U+00F2
ENCODING 242
SWIDTH 1000 0
DWIDTH 27 0
BBX 46 60 -9 -12
BITMAP
000000000000
000000000000
000000000000
000000000000
000000000000
000000000000
000001FF0000
000001FF0000
000001FF0000
000003FE0000
000003FE0000
000003FE0000
0000001FF000
0000001FF000
0000001FF000
0000003FE000
0000003FE000
0000003FE000
0000FFFFC000
0000FFFFC000
0000FFFFC000
0001FFFF8000
0001FFFF8000
0001FFFF8000
001F8007E000
001F8007E000
001F8007E000
003F000FC000
003F000FC000
003F000FC000
007E001F8000
007E001F8000
007E001F8000
00FC003F0000
00FC003F0000
00FC003F0000
01F8007E0000
01F8007E0000
01F8007E0000
03F000FC0000
03F000FC0000
03F000FC0000
00FFFFC00000
00FFFFC00000
00FFFFC00000
01FFFF800000
01FFFF800000
01FFFF800000
000000000000
000000000000
000000000000
000000000000
000000000000
000000000000
000000000000
000000000000
000000000000
000000000000
000000000000
000000000000
ENDCHAR
STARTCHAR U+00F1
ENCODING 241
SWIDTH 1000 0
DWIDTH 27 0
BBX 46 60 -9 -12
BITMAP
000003FE3F00
000003FE3F00
000003FE3F00
000007FC7E00
000007FC7E00
000007FC7E00
00007E3FE000
00007E3FE000
00007E3FE000
0000FC7FC000
0000FC7FC000
0000FC7FC000
000000000000
000000000000
000000000000
000000000000
000000000000
000000000000
0007FFFFC000
0007FFFFC000
0007FFFFC000
000FFFFF8000
000FFFFF8000
000FFFFF8000
001FF007E000
001FF007E000
001FF007E000
003FE00FC000
003FE00FC000
003FE00FC000
007E001F8000
007E001F8000
007E001F8000
00FC003F0000
00FC003F0000
00FC003F0000
01F8007E0000
01F8007E0000
01F8007E0000
03F000FC0000
03F000FC0000
03F000FC0000
07E001F80000
07E001F80000
07E001F80000
0FC003F00000
0FC003F00000
0FC003F00000
000000000000
000000000000
000000000000
000000000000
000000000000
000000000000
000000000000
000000000000
000000000000
000000000000
000000000000
000000000000
ENDCHAR
STARTCHAR U+00F0
ENCODING 240
SWIDTH 1000 0
DWIDTH 27 0
BBX 46 60 -9 -12
BITMAP
0000000FC7E0
0000000FC7E0
0000000FC7E0
0000001F8FC0
0000001F8FC0
0000001F8FC0
00000007FC00
00000007FC00
00000007FC00
0000000FF800
0000000FF800
0000000FF800
000000FC7E00
000000FC7E00
000000FC7E00
000001F8FC00
000001F8FC00
000001F8FC00
0000FFFFF800
0000FFFFF800
0000FFFFF800
0001FFFFF000
0001FFFFF000
0001FFFFF000
001F803FE000
001F803FE000
001F803FE000
003F007FC000
003F007FC000
003F007FC000
007E001F8000
007E001F8000
007E001F8000
00FC003F0000
00FC003F0000
00FC003F0000
01F803F00000
01F803F00000
01F803F00000
03F007E00000
03F007E00000
03F007E00000
00FFFE000000
00FFFE000000
00FFFE000000
01FFFC000000
01FFFC000000
01FFFC000000
000000000000
000000000000
000000000000
000000000000
000000000000
000000000000
000000000000
000000000000
000000000000
000000000000
000000000000
000000000000
ENDCHAR
STARTCHAR U+00EF
ENCODING 239
SWIDTH 1000 0
DWIDTH 27 0
BBX 46 60 -9 -12
BITMAP
000000000000
000000000000
000000000000
000000000000
000000000000
000000000000
00000FC0FC00
00000FC0FC00
00000FC0FC00
00001F81F800
00001F81F800
00001F81F800
000000000000
000000000000
000000000000
000000000000
000000000000
000000000000
00001FF00000
00001FF00000
00001FF00000
00003FE00000
00003FE00000
00003FE00000
00000FC00000
00000FC00000
00000FC00000
00001F800000
00001F800000
00001F800000
00003F000000
00003F000000
00003F000000
00007E000000
00007E000000
00007E000000
0000FC000000
0000FC000000
0000FC000000
0001F8000000
0001F8000000
0001F8000000
00FFFFC00000
00FFFFC00000
00FFFFC00000
01FFFF800000
01FFFF800000
01FFFF800000
000000000000
000000000000
000000000000
000000000000
000000000000
000000000000
000000000000
000000000000
000000000000
000000000000
000000000000
000000000000
ENDCHAR
STARTCHAR U+00EE
ENCODING 238
SWIDTH 1000 0
DWIDTH 27 0
BBX 46 60 -9 -12
BITMAP
0000007FF800
0000007FF800
0000007FF800
000000FFF000
000000FFF000
000000FFF000
00000FC0FC00
00000FC0FC00
00000FC0FC00
00001F81F800
00001F81F800
00001F81F800
000000000000
000000000000
000000000000
000000000000
000000000000
000000000000
00001FF00000
00001FF00000
00001FF00000
00003FE00000
00003FE00000
00003FE00000
00000FC00000
00000FC00000
00000FC00000
00001F800000
00001F800000
00001F800000
00003F000000
00003F000000
00003F000000
00007E000000
00007E000000
00007E000000
0000FC000000
0000FC000000
0000FC000000
0001F8000000
0001F8000000
0001F8000000
00FFFFC00000
00FFFFC00000
00FFFFC00000
01FFFF800000
01FFFF800000
01FFFF800000
000000000000
000000000000
000000000000
000000000000
000000000000
000000000000
000000000000
000000000000
000000000000
000000000000
000000000000
000000000000
ENDCHAR
STARTCHAR U+00ED
ENCODING 237
SWIDTH 1000 0
DWIDTH 27 0
BBX 46 60 -9 -12
BITMAP
000000000000
000000000000
000000000000
000000000000
000000000000
000000000000
0000003FE000
0000003FE000
0000003FE000
0000007FC000
0000007FC000
0000007FC000
00003FE00000
00003FE00000
00003FE00000
00007FC00000
00007FC00000
00007FC00000
00001FF00000
00001FF00000
00001FF00000
00003FE00000
00003FE00000
00003FE00000
00000FC00000
00000FC00000
00000FC00000
00001F800000
00001F800000
00001F800000
00003F000000
00003F000000
00003F000000
00007E000000
00007E000000
00007E000000
0000FC000000
0000FC000000
0000FC000000
0001F8000000
0001F8000000
0001F8000000
00FFFFC00000
00FFFFC00000
00FFFFC00000
01FFFF800000
01FFFF800000
01FFFF800000
000000000000
000000000000
000000000000
000000000000
000000000000
000000000000
000000000000
000000000000
000000000000
000000000000
000000000000
000000000000
ENDCHAR
STARTCHAR U+00EC
ENCODING 236
SWIDTH 1000 0
DWIDTH 27 0
BBX 46 60 -9 -12
BITMAP
000000000000
000000000000
000000000000
000000000000
000000000000
000000000000
00000FF80000
00000FF80000
00000FF80000
00001FF00000
00001FF00000
00001FF00000
000000FF8000
000000FF8000
000000FF8000
000001FF0000
000001FF0000
000001FF0000
00001FF00000
00001FF00000
00001FF00000
00003FE00000
00003FE00000
00003FE00000
00000FC00000
00000FC00000
00000FC00000
00001F800000
00001F800000
00001F800000
00003F000000
00003F000000
00003F000000
00007E000000
00007E000000
00007E000000
0000FC000000
0000FC000000
0000FC000000
0001F8000000
0001F8000000
0001F8000000
00FFFFC00000
00FFFFC00000
00FFFFC00000
01FFFF800000
01FFFF800000
01FFFF800000
000000000000
000000000000
000000000000
000000000000
000000000000
000000000000
000000000000
000000000000
000000000000
000000000000
000000000000
000000000000
ENDCHAR
STARTCHAR U+00EB
ENCODING 235
SWIDTH 1000 0
DWIDTH 27 0
BBX 46 60 -9 -12
BITMAP
000000000000
000000000000
000000000000
000000000000
000000000000
000000000000
00000FC0FC00
00000FC0FC00
00000FC0FC00
00001F81F800
00001F81F800
00001F81F800
000000000000
000000000000
000000000000
000000000000
000000000000
000000000000
0000FFFFC000
0000FFFFC000
0000FFFFC000
0001FFFF8000
0001FFFF8000
0001FFFF8000
001F8007E000
001F8007E000
001F8007E000
003F000FC000
003F000FC000
003F000FC000
007FFFFF8000
007FFFFF8000
007FFFFF8000
00FFFFFF0000
00FFFFFF0000
00FFFFFF0000
01F800000000
01F800000000
01F800000000
03F000000000
03F000000000
03F000000000
00FFFFC00000
00FFFFC00000
00FFFFC00000
01FFFF800000
01FFFF800000
01FFFF800000
000000000000
000000000000
000000000000
000000000000
000000000000
000000000000
000000000000
000000000000
000000000000
000000000000
000000000000
000000000000
ENDCHAR
STARTCHAR U+00EA
ENCODING 234
SWIDTH 1000 0
DWIDTH 27 0
BBX 46 60 -9 -12
BITMAP
0000007FF800
0000007FF800
0000007FF800
000000FFF000
000000FFF000
000000FFF000
00000FC0FC00
00000FC0FC00
00000FC0FC00
00001F81F800
00001F81F800
00001F81F800
000000000000
000000000000
000000000000
000000000000
000000000000
000000000000
0000FFFFC000
0000FFFFC000
0000FFFFC000
0001FFFF8000
0001FFFF8000
0001FFFF8000
001F8007E000
001F8007E000
001F8007E000
003F000FC000
003F000FC000
003F000FC000
007FFFFF8000
007FFFFF8000
007FFFFF8000
00FFFFFF0000
00FFFFFF0000
00FFFFFF0000
01F800000000
01F800000000
01F800000000
03F000000000
03F000000000
03F000000000
00FFFFC00000
00FFFFC00000
00FFFFC00000
01FFFF800000
01FFFF800000
01FFFF800000
000000000000
000000000000
000000000000
000000000000
000000000000
000000000000
000000000000
000000000000
000000000000
000000000000
000000000000
000000000000
ENDCHAR
STARTCHAR U+00E9
ENCODING 233
SWIDTH 1000 0
DWIDTH 27 0
BBX 46 60 -9 -12
BITMAP
000000000000
000000000000
000000000000
000000000000
000000000000
000000000000
0000003FE000
0000003FE000
0000003FE000
0000007FC000
0000007FC000
0000007FC000
00003FE00000
00003FE00000
00003FE00000
00007FC00000
00007FC00000
00007FC00000
0000FFFFC000
0000FFFFC000
0000FFFFC000
0001FFFF8000
0001FFFF8000
0001FFFF8000
001F8007E000
001F8007E000
001F8007E000
003F000FC000
003F000FC000
003F000FC000
007FFFFF8000
007FFFFF8000
007FFFFF8000
00FFFFFF0000
00FFFFFF0000
00FFFFFF0000
01F800000000
01F800000000
01F800000000
03F000000000
03F000000000
03F000000000
00FFFFC00000
00FFFFC00000
00FFFFC00000
01FFFF800000
01FFFF800000
01FFFF800000
000000000000
000000000000
000000000000
000000000000
000000000000
000000000000
000000000000
000000000000
000000000000
000000000000
000000000000
000000000000
ENDCHAR
STARTCHAR U+00E8
ENCODING 232
SWIDTH 1000 0
DWIDTH 27 0
BBX 46 60 -9 -12
BITMAP
000000000000
000000000000
000000000000
000000000000
000000000000
000000000000
000001FF0000
000001FF0000
000001FF0000
000003FE0000
000003FE0000
000003FE0000
0000001FF000
0000001FF000
0000001FF000
0000003FE000
0000003FE000
0000003FE000
0000FFFFC000
0000FFFFC000
0000FFFFC000
0001FFFF8000
0001FFFF8000
0001FFFF8000
001F8007E000
001F8007E000
001F8007E000
003F000FC000
003F000FC000
003F000FC000
007FFFFF8000
007FFFFF8000
007FFFFF8000
00FFFFFF0000
00FFFFFF0000
00FFFFFF0000
01F800000000
01F800000000
01F800000000
03F000000000
03F000000000
03F000000000
00FFFFC00000
00FFFFC00000
00FFFFC00000
01FFFF800000
01FFFF800000
01FFFF800000
000000000000
000000000000
000000000000
000000000000
000000000000
000000000000
000000000000
000000000000
000000000000
000000000000
000000000000
000000000000
ENDCHAR
STARTCHAR U+00E7
ENCODING 231
SWIDTH 1000 0
DWIDTH 27 0
BBX 46 60 -9 -12
BITMAP
000000000000
000000000000
000000000000
000000000000
000000000000
000000000000
000000000000
000000000000
000000000000
000000000000
000000000000
000000000000
000000000000
000000000000
000000000000
000000000000
000000000000
000000000000
0000FFFFC000
0000FFFFC000
0000FFFFC000
0001FFFF8000
0001FFFF8000
0001FFFF8000
001F8007E000
001F8007E000
001F8007E000
003F000FC000
003F000FC000
003F000FC000
007E00000000
007E00000000
007E00000000
00FC00000000
00FC00000000
00FC00000000
01F8007E0000
01F8007E0000
01F8007E0000
03F000FC0000
03F000FC0000
03F000FC0000
00FFFFC00000
00FFFFC00000
00FFFFC00000
01FFFF800000
01FFFF800000
01FFFF800000
0001F8000000
0001F8000000
0001F8000000
0003F0000000
0003F0000000
0003F0000000
01FFE0000000
01FFE0000000
01FFE0000000
03FFC0000000
03FFC0000000
03FFC0000000
ENDCHAR
STARTCHAR U+00E6
ENCODING 230
SWIDTH 1000 0
DWIDTH 27 0
BBX 46 60 -9 -12
BITMAP
000000000000
000000000000
000000000000
000000000000
000000000000
000000000000
000000000000
000000000000
000000000000
000000000000
000000000000
000000000000
000000000000
000000000000
000000000000
000000000000
000000000000
000000000000
0000FFFFC000
0000FFFFC000
0000FFFFC000
0001FFFF8000
0001FFFF8000
0001FFFF8000
00000FC7E000
00000FC7E000
00000FC7E000
00001F8FC000
00001F8FC000
00001F8FC000
000FFFFF8000
000FFFFF8000
000FFFFF8000
001FFFFF0000
001FFFFF0000
001FFFFF0000
01F8FC000000
01F8FC000000
01F8FC000000
03F1F8000000
03F1F8000000
03F1F8000000
00FFFFF80000
00FFFFF80000
00FFFFF80000
01FFFFF00000
01FFFFF00000
01FFFFF00000
000000000000
000000000000
000000000000
000000000000
000000000000
000000000000
000000000000
000000000000
000000000000
000000000000
000000000000
000000000000
ENDCHAR
STARTCHAR U+00E5
ENCODING 229
SWIDTH 1000 0
DWIDTH 27 0
BBX 46 60 -9 -12
BITMAP
0000007FF800
0000007FF800
0000007FF800
000000FFF000
000000FFF000
000000FFF000
00000FC0FC00
00000FC0FC00
00000FC0FC00
00001F81F800
00001F81F800
00001F81F800
000007FF8000
000007FF8000
000007FF8000
00000FFF0000
00000FFF0000
00000FFF0000
0000FFFFC000
0000FFFFC000
0000FFFFC000
0001FFFF8000
0001FFFF8000
0001FFFF8000
00000007E000
00000007E000
00000007E000
0000000FC000
0000000FC000
0000000FC000
000FFFFF8000
000FFFFF8000
000FFFFF8000
001FFFFF0000
001FFFFF0000
001FFFFF0000
01F803FE0000
01F803FE0000
01F803FE0000
03F007FC0000
03F007FC0000
03F007FC0000
00FFFFF80000
00FFFFF80000
00FFFFF80000
01FFFFF00000
01FFFFF00000
01FFFFF00000
000000000000
000000000000
000000000000
000000000000
000000000000
000000000000
000000000000
000000000000
000000000000
000000000000
000000000000
000000000000
ENDCHAR
STARTCHAR U+00E4
ENCODING 228
SWIDTH 1000 0
DWIDTH 27 0
BBX 46 60 -9 -12
BITMAP
000000000000
000000000000
000000000000
000000000000
000000000000
000000000000
00000FC0FC00
00000FC0FC00
00000FC0FC00
00001F81F800
00001F81F800
00001F81F800
000000000000
000000000000
000000000000
000000000000
000000000000
000000000000
0000FFFFC000
0000FFFFC000
0000FFFFC000
0001FFFF8000
0001FFFF8000
0001FFFF8000
00000007E000
00000007E000
00000007E000
0000000FC000
0000000FC000
0000000FC000
000FFFFF8000
000FFFFF8000
000FFFFF8000
001FFFFF0000
001FFFFF0000
001FFFFF0000
01F803FE0000
01F803FE0000
01F803FE0000
03F007FC0000
03F007FC0000
03F007FC0000
00FFFFF80000
00FFFFF80000
00FFFFF80000
01FFFFF00000
01FFFFF00000
01FFFFF00000
000000000000
000000000000
000000000000
000000000000
000000000000
000000000000
000000000000
000000000000
000000000000
000000000000
000000000000
000000000000
ENDCHAR
STARTCHAR U+00E3
ENCODING 227
SWIDTH 1000 0
DWIDTH 27 0
BBX 46 60 -9 -12
BITMAP
0000007FC7E0
0000007FC7E0
0000007FC7E0
000000FF8FC0
000000FF8FC0
000000FF8FC0
00000FC7FC00
00000FC7FC00
00000FC7FC00
00001F8FF800
00001F8FF800
00001F8FF800
000000000000
000000000000
000000000000
000000000000
000000000000
000000000000
0000FFFFC000
0000FFFFC000
0000FFFFC000
0001FFFF8000
0001FFFF8000
0001FFFF8000
00000007E000
00000007E000
00000007E000
0000000FC000
0000000FC000
0000000FC000
000FFFFF8000
000FFFFF8000
000FFFFF8000
001FFFFF0000
001FFFFF0000
001FFFFF0000
01F803FE0000
01F803FE0000
01F803FE0000
03F007FC0000
03F007FC0000
03F007FC0000
00FFFFF80000
00FFFFF80000
00FFFFF80000
01FFFFF00000
01FFFFF00000
01FFFFF00000
000000000000
000000000000
000000000000
000000000000
000000000000
000000000000
000000000000
000000000000
000000000000
000000000000
000000000000
000000000000
ENDCHAR
STARTCHAR U+00E2
ENCODING 226
SWIDTH 1000 0
DWIDTH 27 0
BBX 46 60 -9 -12
BITMAP
0000007FF800
0000007FF800
0000007FF800
000000FFF000
000000FFF000
000000FFF000
00000FC0FC00
00000FC0FC00
00000FC0FC00
00001F81F800
00001F81F800
00001F81F800
000000000000
000000000000
000000000000
000000000000
000000000000
000000000000
0000FFFFC000
0000FFFFC000
0000FFFFC000
0001FFFF8000
0001FFFF8000
0001FFFF8000
00000007E000
00000007E000
00000007E000
0000000FC000
0000000FC000
0000000FC000
000FFFFF8000
000FFFFF8000
000FFFFF8000
001FFFFF0000
001FFFFF0000
001FFFFF0000
01F803FE0000
01F803FE0000
01F803FE0000
03F007FC0000
03F007FC0000
03F007FC0000
00FFFFF80000
00FFFFF80000
00FFFFF80000
01FFFFF00000
01FFFFF00000
01FFFFF00000
000000000000
000000000000
000000000000
000000000000
000000000000
000000000000
000000000000
000000000000
000000000000
000000000000
000000000000
000000000000
ENDCHAR
STARTCHAR U+00E1
ENCODING 225
SWIDTH 1000 0
DWIDTH 27 0
BBX 46 60 -9 -12
BITMAP
000000000000
000000000000
000000000000
000000000000
000000000000
000000000000
0000003FE000
0000003FE000
0000003FE000
0000007FC000
0000007FC000
0000007FC000
00003FE00000
00003FE00000
00003FE00000
00007FC00000
00007FC00000
00007FC00000
0000FFFFC000
0000FFFFC000
0000FFFFC000
0001FFFF8000
0001FFFF8000
0001FFFF8000
00000007E000
00000007E000
00000007E000
0000000FC000
0000000FC000
0000000FC000
000FFFFF8000
000FFFFF8000
000FFFFF8000
001FFFFF0000
001FFFFF0000
001FFFFF0000
01F803FE0000
01F803FE0000
01F803FE0000
03F007FC0000
03F007FC0000
03F007FC0000
00FFFFF80000
00FFFFF80000
00FFFFF80000
01FFFFF00000
01FFFFF00000
01FFFFF00000
000000000000
000000000000
000000000000
000000000000
000000000000
000000000000
000000000000
000000000000
000000000000
000000000000
000000000000
000000000000
ENDCHAR
STARTCHAR U+00E0
ENCODING 224
SWIDTH 1000 0
DWIDTH 27 0
BBX 46 60 -9 -12
BITMAP
000000000000
000000000000
000000000000
000000000000
000000000000
000000000000
000001FF0000
000001FF0000
000001FF0000
000003FE0000
000003FE0000
000003FE0000
0000001FF000
0000001FF000
0000001FF000
0000003FE000
0000003FE000
0000003FE000
0000FFFFC000
0000FFFFC000
0000FFFFC000
0001FFFF8000
0001FFFF8000
0001FFFF8000
00000007E000
00000007E000
00000007E000
0000000FC000
0000000FC000
0000000FC000
000FFFFF8000
000FFFFF8000
000FFFFF8000
001FFFFF0000
001FFFFF0000
001FFFFF0000
01F803FE0000
01F803FE0000
01F803FE0000
03F007FC0000
03F007FC0000
03F007FC0000
00FFFFF80000
00FFFFF80000
00FFFFF80000
01FFFFF00000
01FFFFF00000
01FFFFF00000
000000000000
000000000000
000000000000
000000000000
000000000000
000000000000
000000000000
000000000000
000000000000
000000000000
000000000000
000000000000
ENDCHAR
STARTCHAR U+00DF
ENCODING 223
SWIDTH 1000 0
DWIDTH 27 0
BBX 46 60 -9 -12
BITMAP
000000000000
000000000000
000000000000
000000000000
000000000000
000000000000
000001FFE000
000001FFE000
000001FFE000
000003FFC000
000003FFC000
000003FFC000
00003F03F000
00003F03F000
00003F03F000
00007E07E000
00007E07E000
00007E07E000
0007E00FC000
0007E00FC000
0007E00FC000
000FC01F8000
000FC01F8000
000FC01F8000
001FFFF80000
001FFFF80000
001FFFF80000
003FFFF00000
003FFFF00000
003FFFF00000
007E00FC0000
007E00FC0000
007E00FC0000
00FC01F80000
00FC01F80000
00FC01F80000
01FFE07E0000
01FFE07E0000
01FFE07E0000
03FFC0FC0000
03FFC0FC0000
03FFC0FC0000
07E3FFC00000
07E3FFC00000
07E3FFC00000
0FC7FF800000
0FC7FF800000
0FC7FF800000
1F8000000000
1F8000000000
1F8000000000
3F0000000000
3F0000000000
3F0000000000
000000000000
000000000000
000000000000
000000000000
000000000000
000000000000
ENDCHAR
STARTCHAR U+00DE
ENCODING 222
SWIDTH 1000 0
DWIDTH 27 0
BBX 46 60 -9 -12
BITMAP
000000000000
000000000000
000000000000
000000000000
000000000000
000000000000
00007FC00000
00007FC00000
00007FC00000
0000FF800000
0000FF800000
0000FF800000
00003FFFF000
00003FFFF000
00003FFFF000
00007FFFE000
00007FFFE000
00007FFFE000
0000FC01F800
0000FC01F800
0000FC01F800
0001F803F000
0001F803F000
0001F803F000
0003F007E000
0003F007E000
0003F007E000
0007E00FC000
0007E00FC000
0007E00FC000
000FC01F8000
000FC01F8000
000FC01F8000
001F803F0000
001F803F0000
001F803F0000
003FFFF00000
003FFFF00000
003FFFF00000
007FFFE00000
007FFFE00000
007FFFE00000
07FC00000000
07FC00000000
07FC00000000
0FF800000000
0FF800000000
0FF800000000
000000000000
000000000000
000000000000
000000000000
000000000000
000000000000
000000000000
000000000000
000000000000
000000000000
000000000000
000000000000
ENDCHAR
STARTCHAR U+0178
ENCODING 376
SWIDTH 1000 0
DWIDTH 27 0
BBX 46 60 -9 -12
BITMAP
000003F03F00
000003F03F00
000003F03F00
000007E07E00
000007E07E00
000007E07E00
000000000000
000000000000
000000000000
000000000000
000000000000
000000000000
0001F8007E00
0001F8007E00
0001F8007E00
0003F000FC00
0003F000FC00
0003F000FC00
0000FC0FC000
0000FC0FC000
0000FC0FC000
0001F81F8000
0001F81F8000
0001F81F8000
00007FF80000
00007FF80000
00007FF80000
0000FFF00000
0000FFF00000
0000FFF00000
00003F000000
00003F000000
00003F000000
00007E000000
00007E000000
00007E000000
0000FC000000
0000FC000000
0000FC000000
0001F8000000
0001F8000000
0001F8000000
0003F0000000
0003F0000000
0003F0000000
0007E0000000
0007E0000000
0007E0000000
000000000000
000000000000
000000000000
000000000000
000000000000
000000000000
000000000000
000000000000
000000000000
000000000000
000000000000
000000000000
ENDCHAR
STARTCHAR U+00DC
ENCODING 220
SWIDTH 1000 0
DWIDTH 27 0
BBX 46 60 -9 -12
BITMAP
000003F03F00
000003F03F00
000003F03F00
000007E07E00
000007E07E00
000007E07E00
000000000000
000000000000
000000000000
000000000000
000000000000
000000000000
0001F8007E00
0001F8007E00
0001F8007E00
0003F000FC00
0003F000FC00
0003F000FC00
0007E001F800
0007E001F800
0007E001F800
000FC003F000
000FC003F000
000FC003F000
001F8007E000
001F8007E000
001F8007E000
003F000FC000
003F000FC000
003F000FC000
007E001F8000
007E001F8000
007E001F8000
00FC003F0000
00FC003F0000
00FC003F0000
01F8007E0000
01F8007E0000
01F8007E0000
03F000FC0000
03F000FC0000
03F000FC0000
00FFFFC00000
00FFFFC00000
00FFFFC00000
01FFFF800000
01FFFF800000
01FFFF800000
000000000000
000000000000
000000000000
000000000000
000000000000
000000000000
000000000000
000000000000
000000000000
000000000000
000000000000
000000000000
ENDCHAR
STARTCHAR U+00DB
ENCODING 219
SWIDTH 1000 0
DWIDTH 27 0
BBX 46 60 -9 -12
BITMAP
0000000FC000
0000000FC000
0000000FC000
0000001F8000
0000001F8000
0000001F8000
000001FFE000
000001FFE000
000001FFE000
000003FFC000
000003FFC000
000007FFC000
0001F8007E00
0001F8007E00
0001F8007E00
0003F000FC00
0003F000FC00
0003F000FC00
0007E001F800
0007E001F800
0007E001F800
000FC003F000
000FC003F000
000FC003F000
001F8007E000
001F8007E000
001F8007E000
003F000FC000
003F000FC000
003F000FC000
007E001F8000
007E001F8000
007E001F8000
00FC003F0000
00FC003F0000
00FC003F0000
01F8007E0000
01F8007E0000
01F8007E0000
03F000FC0000
03F000FC0000
03F000FC0000
00FFFFC00000
00FFFFC00000
00FFFFC00000
01FFFF800000
01FFFF800000
01FFFF800000
000000000000
000000000000
000000000000
000000000000
000000000000
000000000000
000000000000
000000000000
000000000000
000000000000
000000000000
000000000000
ENDCHAR
STARTCHAR U+00DA
ENCODING 218
SWIDTH 1000 0
DWIDTH 27 0
BBX 46 60 -9 -12
BITMAP
00000001FF00
00000001FF00
00000001FF00
00000003FE00
00000003FE00
00000003FE00
000001FF0000
000001FF0000
000001FF0000
000003FE0000
000003FE0000
000007FE0000
0001F8007E00
0001F8007E00
0001F8007E00
0003F000FC00
0003F000FC00
0003F000FC00
0007E001F800
0007E001F800
0007E001F800
000FC003F000
000FC003F000
000FC003F000
001F8007E000
001F8007E000
001F8007E000
003F000FC000
003F000FC000
003F000FC000
007E001F8000
007E001F8000
007E001F8000
00FC003F0000
00FC003F0000
00FC003F0000
01F8007E0000
01F8007E0000
01F8007E0000
03F000FC0000
03F000FC0000
03F000FC0000
00FFFFC00000
00FFFFC00000
00FFFFC00000
01FFFF800000
01FFFF800000
01FFFF800000
000000000000
000000000000
000000000000
000000000000
000000000000
000000000000
000000000000
000000000000
000000000000
000000000000
000000000000
000000000000
ENDCHAR
STARTCHAR U+00D9
ENCODING 217
SWIDTH 1000 0
DWIDTH 27 0
BBX 46 60 -9 -12
BITMAP
000003FE0000
000003FE0000
000003FE0000
000007FC0000
000007FC0000
000007FC0000
0000003FE000
0000003FE000
0000003FE000
0000007FC000
0000007FC000
0000007FC000
0001F8007E00
0001F8007E00
0001F8007E00
0003F000FC00
0003F000FC00
0003F000FC00
0007E001F800
0007E001F800
0007E001F800
000FC003F000
000FC003F000
000FC003F000
001F8007E000
001F8007E000
001F8007E000
003F000FC000
003F000FC000
003F000FC000
007E001F8000
007E001F8000
007E001F8000
00FC003F0000
00FC003F0000
00FC003F0000
01F8007E0000
01F8007E0000
01F8007E0000
03F000FC0000
03F000FC0000
03F000FC0000
00FFFFC00000
00FFFFC00000
00FFFFC00000
01FFFF800000
01FFFF800000
01FFFF800000
000000000000
000000000000
000000000000
000000000000
000000000000
000000000000
000000000000
000000000000
000000000000
000000000000
000000000000
000000000000
ENDCHAR
STARTCHAR U+00D8
ENCODING 216
SWIDTH 1000 0
DWIDTH 27 0
BBX 46 60 -9 -12
BITMAP
0000000007E0
0000000007E0
0000000007E0
000000000FC0
000000000FC0
000000000FC0
00000FFFFC00
00000FFFFC00
00000FFFFC00
00001FFFF800
00001FFFF800
00001FFFF800
0001F803FE00
0001F803FE00
0001F803FE00
0003F007FC00
0003F007FC00
0003F007FC00
0007E07FF800
0007E07FF800
0007E07FF800
000FC0FFF000
000FC0FFF000
000FC0FFF000
001F8FC7E000
001F8FC7E000
001F8FC7E000
003F1F8FC000
003F1F8FC000
003F1F8FC000
007FF81F8000
007FF81F8000
007FF81F8000
00FFF03F0000
00FFF03F0000
00FFF03F0000
01FF007E0000
01FF007E0000
01FF007E0000
03FE00FC0000
03FE00FC0000
03FE00FC0000
00FFFFC00000
00FFFFC00000
00FFFFC00000
01FFFF800000
01FFFF800000
01FFFF800000
1F8000000000
1F8000000000
1F8000000000
3F0000000000
3F0000000000
3F0000000000
000000000000
000000000000
000000000000
000000000000
000000000000
000000000000
ENDCHAR
STARTCHAR U+0152
ENCODING 338
SWIDTH 1000 0
DWIDTH 27 0
BBX 46 60 -9 -12
BITMAP
000000000000
000000000000
000000000000
000000000000
000000000000
000000000000
00000FFFFF80
00000FFFFF80
00000FFFFF80
00001FFFFF00
00001FFFFF00
00001FFFFF00
0001F8FC0000
0001F8FC0000
0001F8FC0000
0003F1F80000
0003F1F80000
0003F1F80000
0007E3F00000
0007E3F00000
0007E3F00000
000FC7E00000
000FC7E00000
000FC7E00000
001F8FFF0000
001F8FFF0000
001F8FFF0000
003F1FFE0000
003F1FFE0000
003F1FFE0000
007E3F000000
007E3F000000
007E3F000000
00FC7E000000
00FC7E000000
00FC7E000000
01F8FC000000
01F8FC000000
01F8FC000000
03F1F8000000
03F1F8000000
03F1F8000000
00FFFFF80000
00FFFFF80000
00FFFFF80000
01FFFFF00000
01FFFFF00000
01FFFFF00000
000000000000
000000000000
000000000000
000000000000
000000000000
000000000000
000000000000
000000000000
000000000000
000000000000
000000000000
000000000000
ENDCHAR
STARTCHAR U+00D6
ENCODING 214
SWIDTH 1000 0
DWIDTH 27 0
BBX 46 60 -9 -12
BITMAP
000003F03F00
000003F03F00
000003F03F00
000007E07E00
000007E07E00
000007E07E00
000000000000
000000000000
000000000000
000000000000
000000000000
000000000000
00003FFFF000
00003FFFF000
00003FFFF000
00007FFFE000
00007FFFE000
00007FFFE000
0007E001F800
0007E001F800
0007E001F800
000FC003F000
000FC003F000
000FC003F000
001F8007E000
001F8007E000
001F8007E000
003F000FC000
003F000FC000
003F000FC000
007E001F8000
007E001F8000
007E001F8000
00FC003F0000
00FC003F0000
00FC003F0000
01F8007E0000
01F8007E0000
01F8007E0000
03F000FC0000
03F000FC0000
03F000FC0000
00FFFFC00000
00FFFFC00000
00FFFFC00000
01FFFF800000
01FFFF800000
01FFFF800000
000000000000
000000000000
000000000000
000000000000
000000000000
000000000000
000000000000
000000000000
000000000000
000000000000
000000000000
000000000000
ENDCHAR
STARTCHAR U+00D5
ENCODING 213
SWIDTH 1000 0
DWIDTH 27 0
BBX 46 60 -9 -12
BITMAP
000003FE3F00
000003FE3F00
000003FE3F00
000007FC7E00
000007FC7E00
000007FC7E00
00007E3FE000
00007E3FE000
00007E3FE000
0000FC7FC000
0000FC7FC000
0000FC7FC000
00003FFFF000
00003FFFF000
00003FFFF000
00007FFFE000
00007FFFE000
00007FFFE000
0007E001F800
0007E001F800
0007E001F800
000FC003F000
000FC003F000
000FC003F000
001F8007E000
001F8007E000
001F8007E000
003F000FC000
003F000FC000
003F000FC000
007E001F8000
007E001F8000
007E001F8000
00FC003F0000
00FC003F0000
00FC003F0000
01F8007E0000
01F8007E0000
01F8007E0000
03F000FC0000
03F000FC0000
03F000FC0000
00FFFFC00000
00FFFFC00000
00FFFFC00000
01FFFF800000
01FFFF800000
01FFFF800000
000000000000
000000000000
000000000000
000000000000
000000000000
000000000000
000000000000
000000000000
000000000000
000000000000
000000000000
000000000000
ENDCHAR
STARTCHAR U+00D4
ENCODING 212
SWIDTH 1000 0
DWIDTH 27 0
BBX 46 60 -9 -12
BITMAP
0000007FF800
0000007FF800
0000007FF800
000000FFF000
000000FFF000
000000FFF000
00000FC0FC00
00000FC0FC00
00000FC0FC00
00001F81F800
00001F81F800
00001F81F800
00003FFFF000
00003FFFF000
00003FFFF000
00007FFFE000
00007FFFE000
00007FFFE000
0007E001F800
0007E001F800
0007E001F800
000FC003F000
000FC003F000
000FC003F000
001F8007E000
001F8007E000
001F8007E000
003F000FC000
003F000FC000
003F000FC000
007E001F8000
007E001F8000
007E001F8000
00FC003F0000
00FC003F0000
00FC003F0000
01F8007E0000
01F8007E0000
01F8007E0000
03F000FC0000
03F000FC0000
03F000FC0000
00FFFFC00000
00FFFFC00000
00FFFFC00000
01FFFF800000
01FFFF800000
01FFFF800000
000000000000
000000000000
000000000000
000000000000
000000000000
000000000000
000000000000
000000000000
000000000000
000000000000
000000000000
000000000000
ENDCHAR
STARTCHAR U+00D3
ENCODING 211
SWIDTH 1000 0
DWIDTH 27 0
BBX 46 60 -9 -12
BITMAP
0000000FF800
0000000FF800
0000000FF800
0000001FF000
0000001FF000
0000001FF000
00000FF80000
00000FF80000
00000FF80000
00001FF00000
00001FF00000
00001FF00000
00003FFFF000
00003FFFF000
00003FFFF000
00007FFFE000
00007FFFE000
00007FFFE000
0007E001F800
0007E001F800
0007E001F800
000FC003F000
000FC003F000
000FC003F000
001F8007E000
001F8007E000
001F8007E000
003F000FC000
003F000FC000
003F000FC000
007E001F8000
007E001F8000
007E001F8000
00FC003F0000
00FC003F0000
00FC003F0000
01F8007E0000
01F8007E0000
01F8007E0000
03F000FC0000
03F000FC0000
03F000FC0000
00FFFFC00000
00FFFFC00000
00FFFFC00000
01FFFF800000
01FFFF800000
01FFFF800000
000000000000
000000000000
000000000000
000000000000
000000000000
000000000000
000000000000
000000000000
000000000000
000000000000
000000000000
000000000000
ENDCHAR
STARTCHAR U+00D2
ENCODING 210
SWIDTH 1000 0
DWIDTH 27 0
BBX 46 60 -9 -12
BITMAP
0000007FC000
0000007FC000
0000007FC000
000000FF8000
000000FF8000
000000FF8000
00000007FC00
00000007FC00
00000007FC00
0000000FF800
0000000FF800
0000000FF800
00003FFFF000
00003FFFF000
00003FFFF000
00007FFFE000
00007FFFE000
00007FFFE000
0007E001F800
0007E001F800
0007E001F800
000FC003F000
000FC003F000
000FC003F000
001F8007E000
001F8007E000
001F8007E000
003F000FC000
003F000FC000
003F000FC000
007E001F8000
007E001F8000
007E001F8000
00FC003F0000
00FC003F0000
00FC003F0000
01F8007E0000
01F8007E0000
01F8007E0000
03F000FC0000
03F000FC0000
03F000FC0000
00FFFFC00000
00FFFFC00000
00FFFFC00000
01FFFF800000
01FFFF800000
01FFFF800000
000000000000
000000000000
000000000000
000000000000
000000000000
000000000000
000000000000
000000000000
000000000000
000000000000
000000000000
000000000000
ENDCHAR
STARTCHAR U+00D1
ENCODING 209
SWIDTH 1000 0
DWIDTH 27 0
BBX 46 60 -9 -12
BITMAP
0000007FC7E0
0000007FC7E0
0000007FC7E0
000000FF8FC0
000000FF8FC0
000000FF8FC0
00000FC7FC00
00000FC7FC00
00000FC7FC00
00001F8FF800
00001F8FF800
00001F8FF800
0001FF007E00
0001FF007E00
0001FF007E00
0003FE00FC00
0003FE00FC00
0003FE00FC00
0007FF81F800
0007FF81F800
0007FF81F800
000FFF03F000
000FFF03F000
000FFF03F000
001F8FC7E000
001F8FC7E000
001F8FC7E000
003F1F8FC000
003F1F8FC000
003F1F8FC000
007E07FF8000
007E07FF8000
007E07FF8000
00FC0FFF0000
00FC0FFF0000
00FC0FFF0000
01F803FE0000
01F803FE0000
01F803FE0000
03F007FC0000
03F007FC0000
03F007FC0000
07E001F80000
07E001F80000
07E001F80000
0FC003F00000
0FC003F00000
0FC003F00000
000000000000
000000000000
000000000000
000000000000
000000000000
000000000000
000000000000
000000000000
000000000000
000000000000
000000000000
000000000000
ENDCHAR
STARTCHAR U+00D0
ENCODING 208
SWIDTH 1000 0
DWIDTH 27 0
BBX 46 60 -9 -12
BITMAP
000000000000
000000000000
000000000000
000000000000
000000000000
000000000000
00007FFFE000
00007FFFE000
00007FFFE000
0000FFFFC000
0000FFFFC000
0000FFFFC000
00003F03F000
00003F03F000
00003F03F000
00007E07E000
00007E07E000
00007E07E000
0000FC01F800
0000FC01F800
0000FC01F800
0001F803F000
0001F803F000
0001F803F000
001FFFC7E000
001FFFC7E000
001FFFC7E000
003FFF8FC000
003FFF8FC000
003FFF8FC000
000FC01F8000
000FC01F8000
000FC01F8000
001F803F0000
001F803F0000
001F803F0000
003F03F00000
003F03F00000
003F03F00000
007E07E00000
007E07E00000
007E07E00000
07FFFE000000
07FFFE000000
07FFFE000000
0FFFFC000000
0FFFFC000000
0FFFFC000000
000000000000
000000000000
000000000000
000000000000
000000000000
000000000000
000000000000
000000000000
000000000000
000000000000
000000000000
000000000000
ENDCHAR
STARTCHAR U+00CF
ENCODING 207
SWIDTH 1000 0
DWIDTH 27 0
BBX 46 60 -9 -12
BITMAP
000003F03F00
000003F03F00
000003F03F00
000007E07E00
000007E07E00
000007E07E00
000000000000
000000000000
000000000000
000000000000
000000000000
000000000000
00003FFFF000
00003FFFF000
00003FFFF000
00007FFFE000
00007FFFE000
00007FFFE000
000003F00000
000003F00000
000003F00000
000007E00000
000007E00000
000007E00000
00000FC00000
00000FC00000
00000FC00000
00001F800000
00001F800000
00001F800000
00003F000000
00003F000000
00003F000000
00007E000000
00007E000000
00007E000000
0000FC000000
0000FC000000
0000FC000000
0001F8000000
0001F8000000
0001F8000000
00FFFFC00000
00FFFFC00000
00FFFFC00000
01FFFF800000
01FFFF800000
01FFFF800000
000000000000
000000000000
000000000000
000000000000
000000000000
000000000000
000000000000
000000000000
000000000000
000000000000
000000000000
000000000000
ENDCHAR
STARTCHAR U+00CE
ENCODING 206
SWIDTH 1000 0
DWIDTH 27 0
BBX 46 60 -9 -12
BITMAP
0000007FF800
0000007FF800
0000007FF800
000000FFF000
000000FFF000
000000FFF000
00000FC0FC00
00000FC0FC00
00000FC0FC00
00001F81F800
00001F81F800
00001F81F800
00003FFFF000
00003FFFF000
00003FFFF000
00007FFFE000
00007FFFE000
00007FFFE000
000003F00000
000003F00000
000003F00000
000007E00000
000007E00000
000007E00000
00000FC00000
00000FC00000
00000FC00000
00001F800000
00001F800000
00001F800000
00003F000000
00003F000000
00003F000000
00007E000000
00007E000000
00007E000000
0000FC000000
0000FC000000
0000FC000000
0001F8000000
0001F8000000
0001F8000000
00FFFFC00000
00FFFFC00000
00FFFFC00000
01FFFF800000
01FFFF800000
01FFFF800000
000000000000
000000000000
000000000000
000000000000
000000000000
000000000000
000000000000
000000000000
000000000000
000000000000
000000000000
000000000000
ENDCHAR
STARTCHAR U+00CD
ENCODING 205
SWIDTH 1000 0
DWIDTH 27 0
BBX 46 60 -9 -12
BITMAP
0000000FF800
0000000FF800
0000000FF800
0000001FF000
0000001FF000
0000001FF000
00000FF80000
00000FF80000
00000FF80000
00001FF00000
00001FF00000
00001FF00000
00003FFFF000
00003FFFF000
00003FFFF000
00007FFFE000
00007FFFE000
00007FFFE000
000003F00000
000003F00000
000003F00000
000007E00000
000007E00000
000007E00000
00000FC00000
00000FC00000
00000FC00000
00001F800000
00001F800000
00001F800000
00003F000000
00003F000000
00003F000000
00007E000000
00007E000000
00007E000000
0000FC000000
0000FC000000
0000FC000000
0001F8000000
0001F8000000
0001F8000000
00FFFFC00000
00FFFFC00000
00FFFFC00000
01FFFF800000
01FFFF800000
01FFFF800000
000000000000
000000000000
000000000000
000000000000
000000000000
000000000000
000000000000
000000000000
000000000000
000000000000
000000000000
000000000000
ENDCHAR
STARTCHAR U+00CC
ENCODING 204
SWIDTH 1000 0
DWIDTH 27 0
BBX 46 60 -9 -12
BITMAP
0000007FC000
0000007FC000
0000007FC000
000000FF8000
000000FF8000
000000FF8000
00000007FC00
00000007FC00
00000007FC00
0000000FF800
0000000FF800
0000000FF800
00003FFFF000
00003FFFF000
00003FFFF000
00007FFFE000
00007FFFE000
00007FFFE000
000003F00000
000003F00000
000003F00000
000007E00000
000007E00000
000007E00000
00000FC00000
00000FC00000
00000FC00000
00001F800000
00001F800000
00001F800000
00003F000000
00003F000000
00003F000000
00007E000000
00007E000000
00007E000000
0000FC000000
0000FC000000
0000FC000000
0001F8000000
0001F8000000
0001F8000000
00FFFFC00000
00FFFFC00000
00FFFFC00000
01FFFF800000
01FFFF800000
01FFFF800000
000000000000
000000000000
000000000000
000000000000
000000000000
000000000000
000000000000
000000000000
000000000000
000000000000
000000000000
000000000000
ENDCHAR
STARTCHAR U+00CB
ENCODING 203
SWIDTH 1000 0
DWIDTH 27 0
BBX 46 60 -9 -12
BITMAP
000003F03F00
000003F03F00
000003F03F00
000007E07E00
000007E07E00
000007E07E00
000000000000
000000000000
000000000000
000000000000
000000000000
000000000000
0001FFFFFE00
0001FFFFFE00
0001FFFFFE00
0003FFFFFC00
0003FFFFFC00
0003FFFFFC00
0007E0000000
0007E0000000
0007E0000000
000FC0000000
000FC0000000
000FC0000000
001FFFF80000
001FFFF80000
001FFFF80000
003FFFF00000
003FFFF00000
003FFFF00000
007E00000000
007E00000000
007E00000000
00FC00000000
00FC00000000
00FC00000000
01F800000000
01F800000000
01F800000000
03F000000000
03F000000000
03F000000000
07FFFFF80000
07FFFFF80000
07FFFFF80000
0FFFFFF00000
0FFFFFF00000
0FFFFFF00000
000000000000
000000000000
000000000000
000000000000
000000000000
000000000000
000000000000
000000000000
000000000000
000000000000
000000000000
000000000000
ENDCHAR
STARTCHAR U+00CA
ENCODING 202
SWIDTH 1000 0
DWIDTH 27 0
BBX 46 60 -9 -12
BITMAP
0000007FF800
0000007FF800
0000007FF800
000000FFF000
000000FFF000
000000FFF000
00000FC0FC00
00000FC0FC00
00000FC0FC00
00001F81F800
00001F81F800
00001F81F800
0001FFFFFE00
0001FFFFFE00
0001FFFFFE00
0003FFFFFC00
0003FFFFFC00
0003FFFFFC00
0007E0000000
0007E0000000
0007E0000000
000FC0000000
000FC0000000
000FC0000000
001FFFC00000
001FFFC00000
001FFFC00000
003FFF800000
003FFF800000
003FFF800000
007E00000000
007E00000000
007E00000000
00FC00000000
00FC00000000
00FC00000000
01F800000000
01F800000000
01F800000000
03F000000000
03F000000000
03F000000000
07FFFFF80000
07FFFFF80000
07FFFFF80000
0FFFFFF00000
0FFFFFF00000
0FFFFFF00000
000000000000
000000000000
000000000000
000000000000
000000000000
000000000000
000000000000
000000000000
000000000000
000000000000
000000000000
000000000000
ENDCHAR
STARTCHAR U+00C9
ENCODING 201
SWIDTH 1000 0
DWIDTH 27 0
BBX 46 60 -9 -12
BITMAP
00000001FF00
00000001FF00
00000001FF00
00000003FE00
00000003FE00
00000003FE00
000001FF0000
000001FF0000
000001FF0000
000003FE0000
000003FE0000
000003FE0000
0001FFFFFE00
0001FFFFFE00
0001FFFFFE00
0003FFFFFC00
0003FFFFFC00
0003FFFFFC00
0007E0000000
0007E0000000
0007E0000000
000FC0000000
000FC0000000
000FC0000000
001FFFF80000
001FFFF80000
001FFFF80000
003FFFF00000
003FFFF00000
003FFFF00000
007E00000000
007E00000000
007E00000000
00FC00000000
00FC00000000
00FC00000000
01F800000000
01F800000000
01F800000000
03F000000000
03F000000000
03F000000000
07FFFFF80000
07FFFFF80000
07FFFFF80000
0FFFFFF00000
0FFFFFF00000
0FFFFFF00000
000000000000
000000000000
000000000000
000000000000
000000000000
000000000000
000000000000
000000000000
000000000000
000000000000
000000000000
000000000000
ENDCHAR
STARTCHAR U+00C8
ENCODING 200
SWIDTH 1000 0
DWIDTH 27 0
BBX 46 60 -9 -12
BITMAP
000003FE0000
000003FE0000
000003FE0000
000007FC0000
000007FC0000
000007FC0000
0000003FE000
0000003FE000
0000003FE000
0000007FC000
0000007FC000
0000007FC000
0001FFFFFE00
0001FFFFFE00
0001FFFFFE00
0003FFFFFC00
0003FFFFFC00
0003FFFFFC00
0007E0000000
0007E0000000
0007E0000000
000FC0000000
000FC0000000
000FC0000000
001FFFF80000
001FFFF80000
001FFFF80000
003FFFF00000
003FFFF00000
003FFFF00000
007E00000000
007E00000000
007E00000000
00FC00000000
00FC00000000
00FC00000000
01F800000000
01F800000000
01F800000000
03F000000000
03F000000000
03F000000000
07FFFFF80000
07FFFFF80000
07FFFFF80000
0FFFFFF00000
0FFFFFF00000
0FFFFFF00000
000000000000
000000000000
000000000000
000000000000
000000000000
000000000000
000000000000
000000000000
000000000000
000000000000
000000000000
000000000000
ENDCHAR
STARTCHAR U+00C7
ENCODING 199
SWIDTH 1000 0
DWIDTH 27 0
BBX 46 60 -9 -12
BITMAP
000000000000
000000000000
000000000000
000000000000
000000000000
000000000000
000001FFFC00
000001FFFC00
000001FFFC00
000003FFF800
000003FFF800
000003FFF800
00003F007E00
00003F007E00
00003F007E00
00007E00FC00
00007E00FC00
00007E00FC00
0007E0000000
0007E0000000
0007E0000000
000FC0000000
000FC0000000
000FC0000000
001F80000000
001F80000000
001F80000000
003F00000000
003F00000000
003F00000000
007E00000000
007E00000000
007E00000000
00FC00000000
00FC00000000
00FC00000000
003F007E0000
003F007E0000
003F007E0000
007E00FC0000
007E00FC0000
007E00FC0000
001FFFC00000
001FFFC00000
001FFFC00000
003FFF800000
003FFF800000
003FFF800000
0001F8000000
0001F8000000
0001F8000000
0003F0000000
0003F0000000
0003F0000000
01FFE0000000
01FFE0000000
01FFE0000000
03FFC0000000
03FFC0000000
03FFC0000000
ENDCHAR
STARTCHAR U+00C6
ENCODING 198
SWIDTH 1000 0
DWIDTH 27 0
BBX 46 60 -9 -12
BITMAP
000000000000
000000000000
000000000000
000000000000
000000000000
000000000000
000001FFFF80
000001FFFF80
000001FFFF80
000003FFFF00
000003FFFF00
000003FFFF00
00003FFC0000
00003FFC0000
00003FFC0000
00007FF80000
00007FF80000
00007FF80000
0007E3F00000
0007E3F00000
0007E3F00000
000FC7E00000
000FC7E00000
000FC7E00000
001F8FFF0000
001F8FFF0000
001F8FFF0000
003F1FFE0000
003F1FFE0000
003F1FFE0000
007FFF000000
007FFF000000
007FFF000000
00FFFE000000
00FFFE000000
00FFFE000000
01F8FC000000
01F8FC000000
01F8FC000000
03F1F8000000
03F1F8000000
03F1F8000000
07E3FFF80000
07E3FFF80000
07E3FFF80000
0FC7FFF00000
0FC7FFF00000
0FC7FFF00000
000000000000
000000000000
000000000000
000000000000
000000000000
000000000000
000000000000
000000000000
000000000000
000000000000
000000000000
000000000000
ENDCHAR
STARTCHAR U+00C5
ENCODING 197
SWIDTH 1000 0
DWIDTH 27 0
BBX 46 60 -9 -12
BITMAP
0000007FF800
0000007FF800
0000007FF800
000000FFF000
000000FFF000
000000FFF000
00000FC0FC00
00000FC0FC00
00000FC0FC00
00001F81F800
00001F81F800
00001F81F800
000007FF8000
000007FF8000
000007FF8000
00000FFF0000
00000FFF0000
00000FFF0000
00001FFE0000
00001FFE0000
00001FFE0000
00003FFC0000
00003FFC0000
00003FFC0000
0003F03F0000
0003F03F0000
0003F03F0000
0007E07E0000
0007E07E0000
0007E07E0000
007FFFFF8000
007FFFFF8000
007FFFFF8000
00FFFFFF0000
00FFFFFF0000
00FFFFFF0000
01F8007E0000
01F8007E0000
01F8007E0000
03F000FC0000
03F000FC0000
03F000FC0000
07E001F80000
07E001F80000
07E001F80000
0FC003F00000
0FC003F00000
0FC003F00000
000000000000
000000000000
000000000000
000000000000
000000000000
000000000000
000000000000
000000000000
000000000000
000000000000
000000000000
000000000000
ENDCHAR
STARTCHAR U+00C4
ENCODING 196
SWIDTH 1000 0
DWIDTH 27 0
BBX 46 60 -9 -12
BITMAP
000003F03F00
000003F03F00
000003F03F00
000007E07E00
000007E07E00
000007E07E00
000000000000
000000000000
000000000000
000000000000
000000000000
000000000000
000000FC0000
000000FC0000
000000FC0000
000001F80000
000001F80000
000001F80000
00001FFE0000
00001FFE0000
00001FFE0000
00003FFC0000
00003FFC0000
00003FFC0000
0003F03F0000
0003F03F0000
0003F03F0000
0007E07E0000
0007E07E0000
0007E07E0000
007FFFFF8000
007FFFFF8000
007FFFFF8000
00FFFFFF0000
00FFFFFF0000
00FFFFFF0000
01F8007E0000
01F8007E0000
01F8007E0000
03F000FC0000
03F000FC0000
03F000FC0000
07E001F80000
07E001F80000
07E001F80000
0FC003F00000
0FC003F00000
0FC003F00000
000000000000
000000000000
000000000000
000000000000
000000000000
000000000000
000000000000
000000000000
000000000000
000000000000
000000000000
000000000000
ENDCHAR
STARTCHAR U+00C3
ENCODING 195
SWIDTH 1000 0
DWIDTH 27 0
BBX 46 60 -9 -12
BITMAP
0000007FC7E0
0000007FC7E0
0000007FC7E0
000000FF8FC0
000000FF8FC0
000000FF8FC0
00000FC7FC00
00000FC7FC00
00000FC7FC00
00001F8FF800
00001F8FF800
00001F8FF800
000000FC0000
000000FC0000
000000FC0000
000001F80000
000001F80000
000001F80000
00001FFE0000
00001FFE0000
00001FFE0000
00003FFC0000
00003FFC0000
00003FFC0000
0003F03F0000
0003F03F0000
0003F03F0000
0007E07E0000
0007E07E0000
0007E07E0000
007FFFFF8000
007FFFFF8000
007FFFFF8000
00FFFFFF0000
00FFFFFF0000
00FFFFFF0000
01F8007E0000
01F8007E0000
01F8007E0000
03F000FC0000
03F000FC0000
03F000FC0000
07E001F80000
07E001F80000
07E001F80000
0FC003F00000
0FC003F00000
0FC003F00000
000000000000
000000000000
000000000000
000000000000
000000000000
000000000000
000000000000
000000000000
000000000000
000000000000
000000000000
000000000000
ENDCHAR
STARTCHAR U+00C2
ENCODING 194
SWIDTH 1000 0
DWIDTH 27 0
BBX 46 60 -9 -12
BITMAP
0000007FF800
0000007FF800
0000007FF800
000000FFF000
000000FFF000
000000FFF000
00000FC0FC00
00000FC0FC00
00000FC0FC00
00001F81F800
00001F81F800
00001F83F800
000000FC0000
000000FC0000
000000FC0000
000001F80000
000001F80000
000001F80000
00001FFE0000
00001FFE0000
00001FFE0000
00003FFC0000
00003FFC0000
00003FFC0000
0003F03F0000
0003F03F0000
0003F03F0000
0007E07E0000
0007E07E0000
0007E07E0000
007FFFFF8000
007FFFFF8000
007FFFFF8000
00FFFFFF0000
00FFFFFF0000
00FFFFFF0000
01F8007E0000
01F8007E0000
01F8007E0000
03F000FC0000
03F000FC0000
03F000FC0000
07E001F80000
07E001F80000
07E001F80000
0FC003F00000
0FC003F00000
0FC003F00000
000000000000
000000000000
000000000000
000000000000
000000000000
000000000000
000000000000
000000000000
000000000000
000000000000
000000000000
000000000000
ENDCHAR
STARTCHAR U+00C1
ENCODING 193
SWIDTH 1000 0
DWIDTH 27 0
BBX 46 60 -9 -12
BITMAP
0000000FF800
0000000FF800
0000000FF800
0000001FF000
0000001FF000
0000001FF000
00000FF80000
00000FF80000
00000FF80000
00001FF00000
00001FF00000
00001FF00000
000000FC0000
000000FC0000
000000FC0000
000001F80000
000001F80000
000001F80000
00001FFE0000
00001FFE0000
00001FFE0000
00003FFC0000
00003FFC0000
00003FFC0000
0003F03F0000
0003F03F0000
0003F03F0000
0007E07E0000
0007E07E0000
0007E07E0000
007FFFFF8000
007FFFFF8000
007FFFFF8000
00FFFFFF0000
00FFFFFF0000
00FFFFFF0000
01F8007E0000
01F8007E0000
01F8007E0000
03F000FC0000
03F000FC0000
03F000FC0000
07E001F80000
07E001F80000
07E001F80000
0FC003F00000
0FC003F00000
0FC003F00000
000000000000
000000000000
000000000000
000000000000
000000000000
000000000000
000000000000
000000000000
000000000000
000000000000
000000000000
000000000000
ENDCHAR
STARTCHAR U+00C0
ENCODING 192
SWIDTH 1000 0
DWIDTH 27 0
BBX 46 60 -9 -12
BITMAP
0000007FC000
0000007FC000
0000007FC000
000000FF8000
000000FF8000
000000FF8000
00000007FC00
00000007FC00
00000007FC00
0000000FF800
0000000FF800
0000000FF800
000000FC0000
000000FC0000
000000FC0000
000001F80000
000001F80000
000001F80000
00001FFE0000
00001FFE0000
00001FFE0000
00003FFC0000
00003FFC0000
00003FFC0000
0003F03F0000
0003F03F0000
0003F03F0000
0007E07E0000
0007E07E0000
0007E07E0000
007FFFFF8000
007FFFFF8000
007FFFFF8000
00FFFFFF0000
00FFFFFF0000
00FFFFFF0000
01F8007E0000
01F8007E0000
01F8007E0000
03F000FC0000
03F000FC0000
03F000FC0000
07E001F80000
07E001F80000
07E001F80000
0FC003F00000
0FC003F00000
0FC003F00000
000000000000
000000000000
000000000000
000000000000
000000000000
000000000000
000000000000
000000000000
000000000000
000000000000
000000000000
000000000000
ENDCHAR
STARTCHAR U+00BF
ENCODING 191
SWIDTH 1000 0
DWIDTH 27 0
BBX 46 60 -9 -12
BITMAP
000000000000
000000000000
000000000000
000000000000
000000000000
000000000000
0000003F0000
0000003F0000
0000003F0000
0000007E0000
0000007E0000
0000007E0000
000000000000
000000000000
000000000000
000000000000
000000000000
000000000000
000003F00000
000003F00000
000003F00000
000007E00000
000007E00000
000007E00000
00000FC00000
00000FC00000
00000FC00000
00001F800000
00001F800000
00001F800000
000FF8000000
000FF8000000
000FF8000000
001FF0000000
001FF0000000
001FF0000000
01F8007E0000
01F8007E0000
01F8007E0000
03F000FC0000
03F000FC0000
03F000FC0000
00FFFFC00000
00FFFFC00000
00FFFFC00000
01FFFF800000
01FFFF800000
01FFFF800000
000000000000
000000000000
000000000000
000000000000
000000000000
000000000000
000000000000
000000000000
000000000000
000000000000
000000000000
000000000000
ENDCHAR
STARTCHAR U+00BE
ENCODING 190
SWIDTH 1000 0
DWIDTH 27 0
BBX 46 60 -9 -12
BITMAP
00001FFFC000
00001FFFC000
00001FFFC000
00003FFF8000
00003FFF8000
00003FFF8000
0000003F0000
0000003F0000
0000003F0000
0000007E0000
0000007E0000
0000007E0000
00003FE3F000
00003FE3F000
00003FE3F000
00007FC7E000
00007FC7E000
00007FC7E000
000003FE0000
000003FE0000
000003FE0000
000007FC0000
000007FC0000
000007FC0000
001FFFC00000
001FFFC00000
001FFFC00000
003FFF800000
003FFF800000
003FFF800000
0001F8FC0000
0001F8FC0000
0001F8FC0000
0003F1F80000
0003F1F80000
0003F1F80000
003F1FF00000
003F1FF00000
003F1FF00000
007E3FE00000
007E3FE00000
007E3FE00000
07E3FFC00000
07E3FFC00000
07E3FFC00000
0FC7FF800000
0FC7FF800000
0FC7FF800000
007FFFE00000
007FFFE00000
007FFFE00000
00FFFFC00000
00FFFFC00000
00FFFFC00000
0000FC000000
0000FC000000
0000FC000000
0001F8000000
0001F8000000
0001F8000000
ENDCHAR
STARTCHAR U+00BD
ENCODING 189
SWIDTH 1000 0
DWIDTH 27 0
BBX 46 60 -9 -12
BITMAP
000000000000
000000000000
000000000000
000000000000
000000000000
000000000000
00000FC00000
00000FC00000
00000FC00000
00001F800000
00001F800000
00001F800000
0001FF03F000
0001FF03F000
0001FF03F000
0003FE07E000
0003FE07E000
0003FE07E000
0000FC7E0000
0000FC7E0000
0000FC7E0000
0001F8FC0000
0001F8FC0000
0001F8FC0000
0003FFC00000
0003FFC00000
0003FFC00000
0007FF800000
0007FF800000
0007FF800000
0001FFFC0000
0001FFFC0000
0001FFFC0000
0003FFF80000
0003FFF80000
0003FFF80000
003FFC7E0000
003FFC7E0000
003FFC7E0000
007FF8FC0000
007FF8FC0000
007FF8FC0000
07E00FC00000
07E00FC00000
07E00FC00000
0FC01F800000
0FC01F800000
0FC01F800000
0001F8000000
0001F8000000
0001F8000000
0003F0000000
0003F0000000
0003F0000000
003FFF800000
003FFF800000
003FFF800000
007FFF000000
007FFF000000
007FFF000000
ENDCHAR
STARTCHAR U+00BC
ENCODING 188
SWIDTH 1000 0
DWIDTH 27 0
BBX 46 60 -9 -12
BITMAP
000000000000
000000000000
000000000000
000000000000
000000000000
000000000000
00000FC00000
00000FC00000
00000FC00000
00001F800000
00001F800000
00001F800000
0001FF03F000
0001FF03F000
0001FF03F000
0003FE07E000
0003FE07E000
0003FE07E000
0000FC7E0000
0000FC7E0000
0000FC7E0000
0001F8FC0000
0001F8FC0000
0001F8FC0000
0003FFC00000
0003FFC00000
0003FFC00000
0007FF800000
0007FF800000
0007FF800000
0001F8FC0000
0001F8FC0000
0001F8FC0000
0003F1F80000
0003F1F80000
0003F1F80000
003F1FF00000
003F1FF00000
003F1FF00000
007E3FE00000
007E3FE00000
007E3FE00000
07E3FFC00000
07E3FFC00000
07E3FFC00000
0FC7FF800000
0FC7FF800000
0FC7FF800000
007FFFE00000
007FFFE00000
007FFFE00000
00FFFFC00000
00FFFFC00000
00FFFFC00000
0000FC000000
0000FC000000
0000FC000000
0001F8000000
0001F8000000
0001F8000000
ENDCHAR
STARTCHAR U+00BB
ENCODING 187
SWIDTH 1000 0
DWIDTH 27 0
BBX 46 60 -9 -12
BITMAP
000000000000
000000000000
000000000000
000000000000
000000000000
000000000000
00007E3F0000
00007E3F0000
00007E3F0000
0000FC7E0000
0000FC7E0000
0000FCFE0000
00003F1F8000
00003F1F8000
00003F1F8000
00007E3F0000
00007E3F0000
00007E7F0000
00001F8FC000
00001F8FC000
00001F8FC000
00003F1F8000
00003F1F8000
00003F3F8000
00000FC7E000
00000FC7E000
00000FC7E000
00001F8FC000
00001F8FC000
00001F8FC000
0001F8FC0000
0001F8FC0000
0001F8FC0000
0003F1F80000
0003F1F80000
0003F1F80000
003F1F800000
003F1F800000
003F1F800000
007E3F000000
007E3F000000
007E3F000000
07E3F0000000
07E3F0000000
07E3F0000000
0FC7E0000000
0FC7E0000000
0FC7E0000000
000000000000
000000000000
000000000000
000000000000
000000000000
000000000000
000000000000
000000000000
000000000000
000000000000
000000000000
000000000000
ENDCHAR
STARTCHAR U+00BA
ENCODING 186
SWIDTH 1000 0
DWIDTH 27 0
BBX 46 60 -9 -12
BITMAP
000000000000
000000000000
000000000000
000000000000
000000000000
000000000000
00000FFFFC00
00000FFFFC00
00000FFFFC00
00001FFFF800
00001FFFF800
00001FFFF800
0001F8007E00
0001F8007E00
0001F8007E00
0003F000FC00
0003F000FC00
0003F000FC00
0007E001F800
0007E001F800
0007E001F800
000FC003F000
000FC003F000
000FC003F000
001F8007E000
001F8007E000
001F8007E000
003F000FC000
003F000FC000
003F000FC000
000FFFFC0000
000FFFFC0000
000FFFFC0000
001FFFF80000
001FFFF80000
001FFFF80000
000000000000
000000000000
000000000000
000000000000
000000000000
000000000000
07FFFFF80000
07FFFFF80000
07FFFFF80000
0FFFFFF00000
0FFFFFF00000
0FFFFFF00000
000000000000
000000000000
000000000000
000000000000
000000000000
000000000000
000000000000
000000000000
000000000000
000000000000
000000000000
000000000000
ENDCHAR
STARTCHAR U+00B9
ENCODING 185
SWIDTH 1000 0
DWIDTH 27 0
BBX 46 60 -9 -12
BITMAP
0000000FC000
0000000FC000
0000000FC000
0000001F8000
0000001F8000
0000001F8000
000001FF0000
000001FF0000
000001FF0000
000003FE0000
000003FE0000
000003FE0000
000000FC0000
000000FC0000
000000FC0000
000001F80000
000001F80000
000001F80000
000003F00000
000003F00000
000003F00000
000007E00000
000007E00000
000007E00000
00007FF80000
00007FF80000
00007FF80000
0000FFF00000
0000FFF00000
0000FFF00000
000000000000
000000000000
000000000000
000000000000
000000000000
000000000000
000000000000
000000000000
000000000000
000000000000
000000000000
000000000000
000000000000
000000000000
000000000000
000000000000
000000000000
000000000000
000000000000
000000000000
000000000000
000000000000
000000000000
000000000000
000000000000
000000000000
000000000000
000000000000
000000000000
000000000000
ENDCHAR
STARTCHAR U+00B8
ENCODING 184
SWIDTH 1000 0
DWIDTH 27 0
BBX 46 60 -9 -12
BITMAP
000000000000
000000000000
000000000000
000000000000
000000000000
000000000000
000000000000
000000000000
000000000000
000000000000
000000000000
000000000000
000000000000
000000000000
000000000000
000000000000
000000000000
000000000000
000000000000
000000000000
000000000000
000000000000
000000000000
000000000000
000000000000
000000000000
000000000000
000000000000
000000000000
000000000000
000000000000
000000000000
000000000000
000000000000
000000000000
000000000000
000000000000
000000000000
000000000000
000000000000
000000000000
000000000000
000000000000
000000000000
000000000000
000000000000
000000000000
000000000000
0001F8000000
0001F8000000
0001F8000000
0003F0000000
0003F0000000
0003F0000000
01FFE0000000
01FFE0000000
01FFE0000000
03FFC0000000
03FFC0000000
03FFC0000000
ENDCHAR
STARTCHAR U+2022
ENCODING 8226
SWIDTH 1000 0
DWIDTH 27 0
BBX 46 60 -9 -12
BITMAP
000000000000
000000000000
000000000000
000000000000
000000000000
000000000000
000000000000
000000000000
000000000000
000000000000
000000000000
000000000000
000000000000
000000000000
000000000000
000000000000
000000000000
000000000000
00001FF00000
00001FF00000
00001FF00000
00003FE00000
00003FE00000
00003FE00000
00007FC00000
00007FC00000
00007FC00000
0000FF800000
0000FF800000
0000FF800000
000000000000
000000000000
000000000000
000000000000
000000000000
000000000000
000000000000
000000000000
000000000000
000000000000
000000000000
000000000000
000000000000
000000000000
000000000000
000000000000
000000000000
000000000000
000000000000
000000000000
000000000000
000000000000
000000000000
000000000000
000000000000
000000000000
000000000000
000000000000
000000000000
000000000000
ENDCHAR
STARTCHAR U+00B6
ENCODING 182
SWIDTH 1000 0
DWIDTH 27 0
BBX 46 60 -9 -12
BITMAP
000000000000
000000000000
000000000000
000000000000
000000000000
000000000000
00000FFFFF80
00000FFFFF80
00000FFFFF80
00001FFFFF00
00001FFFFF00
00001FFFFF00
0001FF1FFE00
0001FF1FFE00
0001FF1FFE00
0003FE3FFC00
0003FE3FFC00
0003FE3FFC00
0007FC7FF800
0007FC7FF800
0007FC7FF800
000FF8FFF000
000FF8FFF000
000FF8FFF000
0003FFFFE000
0003FFFFE000
0003FFFFE000
0007FFFFC000
0007FFFFC000
0007FFFFC000
000007FF8000
000007FF8000
000007FF8000
00000FFF0000
00000FFF0000
00000FFF0000
00001FFE0000
00001FFE0000
00001FFE0000
00003FFC0000
00003FFC0000
00003FFC0000
00007FF80000
00007FF80000
00007FF80000
0000FFF00000
0000FFF00000
0000FFF00000
000000000000
000000000000
000000000000
000000000000
000000000000
000000000000
000000000000
000000000000
000000000000
000000000000
000000000000
000000000000
ENDCHAR
STARTCHAR U+00B5
ENCODING 181
SWIDTH 1000 0
DWIDTH 27 0
BBX 46 60 -9 -12
BITMAP
000000000000
000000000000
000000000000
000000000000
000000000000
000000000000
000000000000
000000000000
000000000000
000000000000
000000000000
000000000000
000000000000
000000000000
000000000000
000000000000
000000000000
000000000000
0000FC01F800
0000FC01F800
0000FC01F800
0001F803F000
0001F803F000
0001F803F000
0003F007E000
0003F007E000
0003F007E000
0007E00FC000
0007E00FC000
0007E00FC000
000FC01F8000
000FC01F8000
000FC01F8000
001F803F0000
001F803F0000
001F803F0000
003FE3FE0000
003FE3FE0000
003FE3FE0000
007FC7FC0000
007FC7FC0000
007FC7FC0000
00FFFFF80000
00FFFFF80000
00FFFFF80000
01FFFFF00000
01FFFFF00000
01FFFFF00000
03F000000000
03F000000000
03F000000000
07E000000000
07E000000000
07E000000000
7E0000000000
7E0000000000
7E0000000000
FC0000000000
FC0000000000
FC0000000000
ENDCHAR
STARTCHAR U+00B4
ENCODING 180
SWIDTH 1000 0
DWIDTH 27 0
BBX 46 60 -9 -12
BITMAP
000000000000
000000000000
000000000000
000000000000
000000000000
000000000000
00000007FC00
00000007FC00
00000007FC00
0000000FF800
0000000FF800
0000000FF800
0000001F8000
0000001F8000
0000001F8000
0000003F0000
0000003F0000
0000003F0000
000003F00000
000003F00000
000003F00000
000007E00000
000007E00000
000007E00000
000000000000
000000000000
000000000000
000000000000
000000000000
000000000000
000000000000
000000000000
000000000000
000000000000
000000000000
000000000000
000000000000
000000000000
000000000000
000000000000
000000000000
000000000000
000000000000
000000000000
000000000000
000000000000
000000000000
000000000000
000000000000
000000000000
000000000000
000000000000
000000000000
000000000000
000000000000
000000000000
000000000000
000000000000
000000000000
000000000000
ENDCHAR
STARTCHAR U+00B3
ENCODING 179
SWIDTH 1000 0
DWIDTH 27 0
BBX 46 60 -9 -12
BITMAP
000003FFFF00
000003FFFF00
000003FFFF00
000007FFFE00
000007FFFE00
000007FFFE00
00000000FC00
00000000FC00
00000000FC00
00000001F800
00000001F800
00000001F800
000000FF8000
000000FF8000
000000FF8000
000001FF0000
000001FF0000
000001FF0000
0000000FC000
0000000FC000
0000000FC000
0000001F8000
0000001F8000
0000001F8000
0003FFF80000
0003FFF80000
0003FFF80000
0007FFF00000
0007FFF00000
0007FFF00000
000000000000
000000000000
000000000000
000000000000
000000000000
000000000000
000000000000
000000000000
000000000000
000000000000
000000000000
000000000000
000000000000
000000000000
000000000000
000000000000
000000000000
000000000000
000000000000
000000000000
000000000000
000000000000
000000000000
000000000000
000000000000
000000000000
000000000000
000000000000
000000000000
000000000000
ENDCHAR
STARTCHAR U+00B2
ENCODING 178
SWIDTH 1000 0
DWIDTH 27 0
BBX 46 60 -9 -12
BITMAP
0000007FF800
0000007FF800
0000007FF800
000000FFF000
000000FFF000
000000FFF000
00000FC0FC00
00000FC0FC00
00000FC0FC00
00001F81F800
00001F81F800
00001F81F800
000000FF8000
000000FF8000
000000FF8000
000001FF0000
000001FF0000
000001FF0000
00001F800000
00001F800000
00001F800000
00003F000000
00003F000000
00003F000000
0003FFFF0000
0003FFFF0000
0003FFFF0000
0007FFFE0000
0007FFFE0000
0007FFFE0000
000000000000
000000000000
000000000000
000000000000
000000000000
000000000000
000000000000
000000000000
000000000000
000000000000
000000000000
000000000000
000000000000
000000000000
000000000000
000000000000
000000000000
000000000000
000000000000
000000000000
000000000000
000000000000
000000000000
000000000000
000000000000
000000000000
000000000000
000000000000
000000000000
000000000000
ENDCHAR
STARTCHAR U+00AF
ENCODING 175
SWIDTH 1000 0
DWIDTH 27 0
BBX 46 60 -9 -12
BITMAP
000003FFFF00
000003FFFF00
000003FFFF00
000007FFFE00
000007FFFE00
000007FFFE00
000000000000
000000000000
000000000000
000000000000
000000000000
000000000000
000000000000
000000000000
000000000000
000000000000
000000000000
000000000000
000000000000
000000000000
000000000000
000000000000
000000000000
000000000000
000000000000
000000000000
000000000000
000000000000
000000000000
000000000000
000000000000
000000000000
000000000000
000000000000
000000000000
000000000000
000000000000
000000000000
000000000000
000000000000
000000000000
000000000000
000000000000
000000000000
000000000000
000000000000
000000000000
000000000000
000000000000
000000000000
000000000000
000000000000
000000000000
000000000000
000000000000
000000000000
000000000000
000000000000
000000000000
000000000000
ENDCHAR
STARTCHAR U+00AE
ENCODING 174
SWIDTH 1000 0
DWIDTH 27 0
BBX 46 60 -9 -12
BITMAP
000000000000
000000000000
000000000000
000000000000
000000000000
000000000000
000001FFE000
000001FFE000
000001FFE000
000003FFC000
000003FFC000
000003FFC000
00003F03F000
00003F03F000
00003F03F000
00007E07E000
00007E07E000
00007E07E000
0007FFFFF800
0007FFFFF800
0007FFFFF800
000FFFFFF000
000FFFFFF000
000FFFFFF000
001FFE3FE000
001FFE3FE000
001FFE3FE000
003FFC7FC000
003FFC7FC000
003FFC7FC000
007FFFFF8000
007FFFFF8000
007FFFFF8000
00FFFFFF0000
00FFFFFF0000
00FFFFFF0000
01FFFC7E0000
01FFFC7E0000
01FFFC7E0000
03FFF8FC0000
03FFF8FC0000
03FFF8FC0000
00FFFFC00000
00FFFFC00000
00FFFFC00000
01FFFF800000
01FFFF800000
01FFFF800000
007FF8000000
007FF8000000
007FF8000000
00FFF0000000
00FFF0000000
00FFF0000000
000000000000
000000000000
000000000000
000000000000
000000000000
000000000000
ENDCHAR
STARTCHAR U+00D7
ENCODING 215
SWIDTH 1000 0
DWIDTH 27 0
BBX 46 60 -9 -12
BITMAP
000000000000
000000000000
000000000000
000000000000
000000000000
000000000000
000000000000
000000000000
000000000000
000000000000
000000000000
000000000000
00003F03F000
00003F03F000
00003F03F000
00007E07E000
00007E07E000
00007E07E000
00001FFE0000
00001FFE0000
00001FFE0000
00003FFC0000
00003FFC0000
00003FFC0000
00000FC00000
00000FC00000
00000FC00000
00001F800000
00001F800000
00001F800000
0001FFE00000
0001FFE00000
0001FFE00000
0003FFC00000
0003FFC00000
0003FFC00000
003F03F00000
003F03F00000
003F03F00000
007E07E00000
007E07E00000
007E07E00000
000000000000
000000000000
000000000000
000000000000
000000000000
000000000000
000000000000
000000000000
000000000000
000000000000
000000000000
000000000000
000000000000
000000000000
000000000000
000000000000
000000000000
000000000000
ENDCHAR
STARTCHAR U+00AC
ENCODING 172
SWIDTH 1000 0
DWIDTH 27 0
BBX 46 60 -9 -12
BITMAP
000000000000
000000000000
000000000000
000000000000
000000000000
000000000000
000000000000
000000000000
000000000000
000000000000
000000000000
000000000000
000000000000
000000000000
000000000000
000000000000
000000000000
000000000000
000000000000
000000000000
000000000000
000000000000
000000000000
000000000000
000000000000
000000000000
000000000000
000000000000
000000000000
000000000000
007FFFFF8000
007FFFFF8000
007FFFFF8000
00FFFFFF0000
00FFFFFF0000
00FFFFFF0000
0000007E0000
0000007E0000
0000007E0000
000000FC0000
000000FC0000
000000FC0000
000001F80000
000001F80000
000001F80000
000003F00000
000003F00000
000003F00000
000000000000
000000000000
000000000000
000000000000
000000000000
000000000000
000000000000
000000000000
000000000000
000000000000
000000000000
000000000000
ENDCHAR
STARTCHAR U+00AB
ENCODING 171
SWIDTH 1000 0
DWIDTH 27 0
BBX 46 60 -9 -12
BITMAP
000000000000
000000000000
000000000000
000000000000
000000000000
000000000000
0000003F1F80
0000003F1F80
0000003F1F80
0000007E3F00
0000007E3F00
0000007E3F00
000007E3F000
000007E3F000
000007E3F000
00000FC7E000
00000FC7E000
00000FC7E000
0000FC7E0000
0000FC7E0000
0000FC7E0000
0001F8FC0000
0001F8FC0000
0001F8FC0000
001F8FC00000
001F8FC00000
001F8FC00000
003F1F800000
003F1F800000
003F3F800000
000FC7E00000
000FC7E00000
000FC7E00000
001F8FC00000
001F8FC00000
001F9FC00000
0007E3F00000
0007E3F00000
0007E3F00000
000FC7E00000
000FC7E00000
000FCFE00000
0003F1F80000
0003F1F80000
0003F1F80000
0007E3F00000
0007E3F00000
0007E3F00000
000000000000
000000000000
000000000000
000000000000
000000000000
000000000000
000000000000
000000000000
000000000000
000000000000
000000000000
000000000000
ENDCHAR
STARTCHAR U+00AA
ENCODING 170
SWIDTH 1000 0
DWIDTH 27 0
BBX 46 60 -9 -12
BITMAP
000000000000
000000000000
000000000000
000000000000
000000000000
000000000000
00000FFFFC00
00000FFFFC00
00000FFFFC00
00001FFFF800
00001FFFF800
00001FFFF800
000000007E00
000000007E00
000000007E00
00000000FC00
00000000FC00
00000000FC00
0000FFFFF800
0000FFFFF800
0000FFFFF800
0001FFFFF000
0001FFFFF000
0001FFFFF000
001F803FE000
001F803FE000
001F803FE000
003F007FC000
003F007FC000
003F007FC000
000FFFFF8000
000FFFFF8000
000FFFFF8000
001FFFFF0000
001FFFFF0000
001FFFFF0000
000000000000
000000000000
000000000000
000000000000
000000000000
000000000000
07FFFFF80000
07FFFFF80000
07FFFFF80000
0FFFFFF00000
0FFFFFF00000
0FFFFFF00000
000000000000
000000000000
000000000000
000000000000
000000000000
000000000000
000000000000
000000000000
000000000000
000000000000
000000000000
000000000000
ENDCHAR
STARTCHAR U+00A9
ENCODING 169
SWIDTH 1000 0
DWIDTH 27 0
BBX 46 60 -9 -12
BITMAP
000000000000
000000000000
000000000000
000000000000
000000000000
000000000000
000001FFE000
000001FFE000
000001FFE000
000003FFC000
000003FFC000
000003FFC000
00003F03F000
00003F03F000
00003F03F000
00007E07E000
00007E07E000
00007E07E000
0007E3FFF800
0007E3FFF800
0007E3FFF800
000FC7FFF000
000FC7FFF000
000FC7FFF000
001FFE07E000
001FFE07E000
001FFE07E000
003FFC0FC000
003FFC0FC000
003FFC0FC000
007FF81F8000
007FF81F8000
007FF81F8000
00FFF03F0000
00FFF03F0000
00FFF03F0000
01F8FFFE0000
01F8FFFE0000
01F8FFFE0000
03F1FFFC0000
03F1FFFC0000
03F3FFFC0000
00FC0FC00000
00FC0FC00000
00FC0FC00000
01F81F800000
01F81F800000
01F81F800000
007FF8000000
007FF8000000
007FF8000000
00FFF0000000
00FFF0000000
00FFF0000000
000000000000
000000000000
000000000000
000000000000
000000000000
000000000000
ENDCHAR
STARTCHAR U+00A4
ENCODING 164
SWIDTH 1000 0
DWIDTH 27 0
BBX 46 60 -9 -12
BITMAP
000000000000
000000000000
000000000000
000000000000
000000000000
000000000000
000000000000
000000000000
000000000000
000000000000
000000000000
000000000000
0001F8007E00
0001F8007E00
0001F8007E00
0003F000FC00
0003F000FC00
0003F000FC00
0000FFFFC000
0000FFFFC000
0000FFFFC000
0001FFFF8000
0001FFFF8000
0001FFFF8000
0003F03F0000
0003F03F0000
0003F03F0000
0007E07E0000
0007E07E0000
0007E07E0000
000FFFFC0000
000FFFFC0000
000FFFFC0000
001FFFF80000
001FFFF80000
001FFFF80000
01F8007E0000
01F8007E0000
01F8007E0000
03F000FC0000
03F000FC0000
03F000FC0000
000000000000
000000000000
000000000000
000000000000
000000000000
000000000000
000000000000
000000000000
000000000000
000000000000
000000000000
000000000000
000000000000
000000000000
000000000000
000000000000
000000000000
000000000000
ENDCHAR
STARTCHAR U+00A7
ENCODING 167
SWIDTH 1000 0
DWIDTH 27 0
BBX 46 60 -9 -12
BITMAP
000000000000
000000000000
000000000000
000000000000
000000000000
000000000000
000001FFFC00
000001FFFC00
000001FFFC00
000003FFF800
000003FFF800
000003FFF800
00003F000000
00003F000000
00003F000000
00007E000000
00007E000000
00007E000000
00001FFE0000
00001FFE0000
00001FFE0000
00003FFC0000
00003FFC0000
00003FFC0000
0003F03F0000
0003F03F0000
0003F03F0000
0007E07E0000
0007E07E0000
0007E07E0000
0001FFE00000
0001FFE00000
0001FFE00000
0003FFC00000
0003FFC00000
0003FFC00000
000003F00000
000003F00000
000003F00000
000007E00000
000007E00000
000007E00000
00FFFE000000
00FFFE000000
00FFFE000000
01FFFC000000
01FFFC000000
01FFFC000000
000000000000
000000000000
000000000000
000000000000
000000000000
000000000000
000000000000
000000000000
000000000000
000000000000
000000000000
000000000000
ENDCHAR
STARTCHAR U+00A6
ENCODING 166
SWIDTH 1000 0
DWIDTH 27 0
BBX 46 60 -9 -12
BITMAP
000000000000
000000000000
000000000000
000000000000
000000000000
000000000000
0000003F0000
0000003F0000
0000003F0000
0000007E0000
0000007E0000
0000007E0000
000000FC0000
000000FC0000
000000FC0000
000001F80000
000001F80000
000001F80000
000003F00000
000003F00000
000003F00000
000007E00000
000007E00000
000007E00000
000000000000
000000000000
000000000000
000000000000
000000000000
000000000000
00003F000000
00003F000000
00003F000000
00007E000000
00007E000000
00007E000000
0000FC000000
0000FC000000
0000FC000000
0001F8000000
0001F8000000
0001F8000000
0003F0000000
0003F0000000
0003F0000000
0007E0000000
0007E0000000
0007E0000000
000000000000
000000000000
000000000000
000000000000
000000000000
000000000000
000000000000
000000000000
000000000000
000000000000
000000000000
000000000000
ENDCHAR
STARTCHAR U+00A5
ENCODING 165
SWIDTH 1000 0
DWIDTH 27 0
BBX 46 60 -9 -12
BITMAP
000000000000
000000000000
000000000000
000000000000
000000000000
000000000000
00007E001F80
00007E001F80
00007E001F80
0000FC003F00
0000FC003F00
0000FC003F00
00003F03F000
00003F03F000
00003F03F000
00007E07E000
00007E07E000
00007E07E000
00001FFE0000
00001FFE0000
00001FFE0000
00003FFC0000
00003FFC0000
00003FFC0000
00000FC00000
00000FC00000
00000FC00000
00001F800000
00001F800000
00001F800000
007FFFFF8000
007FFFFF8000
007FFFFF8000
00FFFFFF0000
00FFFFFF0000
00FFFFFF0000
0000FC000000
0000FC000000
0000FC000000
0001F8000000
0001F8000000
0001F8000000
0003F0000000
0003F0000000
0003F0000000
0007E0000000
0007E0000000
0007E0000000
000000000000
000000000000
000000000000
000000000000
000000000000
000000000000
000000000000
000000000000
000000000000
000000000000
000000000000
000000000000
ENDCHAR
STARTCHAR U+00A8
ENCODING 168
SWIDTH 1000 0
DWIDTH 27 0
BBX 46 60 -9 -12
BITMAP
000003F03F00
000003F03F00
000003F03F00
000007E07E00
000007E07E00
000007E07E00
000000000000
000000000000
000000000000
000000000000
000000000000
000000000000
000000000000
000000000000
000000000000
000000000000
000000000000
000000000000
000000000000
000000000000
000000000000
000000000000
000000000000
000000000000
000000000000
000000000000
000000000000
000000000000
000000000000
000000000000
000000000000
000000000000
000000000000
000000000000
000000000000
000000000000
000000000000
000000000000
000000000000
000000000000
000000000000
000000000000
000000000000
000000000000
000000000000
000000000000
000000000000
000000000000
000000000000
000000000000
000000000000
000000000000
000000000000
000000000000
000000000000
000000000000
000000000000
000000000000
000000000000
000000000000
ENDCHAR
STARTCHAR U+00A2
ENCODING 162
SWIDTH 1000 0
DWIDTH 27 0
BBX 46 60 -9 -12
BITMAP
000000000000
000000000000
000000000000
000000000000
000000000000
000000000000
000000000000
000000000000
000000000000
000000000000
000000000000
000000000000
000000FC0000
000000FC0000
000000FC0000
000001F80000
000001F80000
000001F80000
0000FFFFC000
0000FFFFC000
0000FFFFC000
0001FFFF8000
0001FFFF8000
0001FFFF8000
001F8FC7E000
001F8FC7E000
001F8FC7E000
003F1F8FC000
003F1F8FC000
003F1F8FC000
007E3F000000
007E3F000000
007E3F000000
00FC7E000000
00FC7E000000
00FC7E000000
01F8FC7E0000
01F8FC7E0000
01F8FC7E0000
03F1F8FC0000
03F1F8FC0000
03F1F8FC0000
00FFFFC00000
00FFFFC00000
00FFFFC00000
01FFFF800000
01FFFF800000
01FFFF800000
000FC0000000
000FC0000000
000FC0000000
001F80000000
001F80000000
001F80000000
000000000000
000000000000
000000000000
000000000000
000000000000
000000000000
ENDCHAR
STARTCHAR U+00A1
ENCODING 161
SWIDTH 1000 0
DWIDTH 27 0
BBX 46 60 -9 -12
BITMAP
000000000000
000000000000
000000000000
000000000000
000000000000
000000000000
0000003F0000
0000003F0000
0000003F0000
0000007E0000
0000007E0000
0000007E0000
000000000000
000000000000
000000000000
000000000000
000000000000
000000000000
000003F00000
000003F00000
000003F00000
000007E00000
000007E00000
000007E00000
00000FC00000
00000FC00000
00000FC00000
00001F800000
00001F800000
00001F800000
00003F000000
00003F000000
00003F000000
00007E000000
00007E000000
00007E000000
0000FC000000
0000FC000000
0000FC000000
0001F8000000
0001F8000000
0001F8000000
0003F0000000
0003F0000000
0003F0000000
0007E0000000
0007E0000000
0007E0000000
000000000000
000000000000
000000000000
000000000000
000000000000
000000000000
000000000000
000000000000
000000000000
000000000000
000000000000
000000000000
ENDCHAR
STARTCHAR U+201F
ENCODING 8223
SWIDTH 1000 0
DWIDTH 27 0
BBX 46 60 -9 -12
BITMAP
000000000000
000000000000
000000000000
000000000000
000000000000
000000000000
00000FFFFC00
00000FFFFC00
00000FFFFC00
00001FFFF800
00001FFFF800
00001FFFF800
00003F1F8000
00003F1F8000
00003F1F8000
00007E3F0000
00007E3F0000
00007E7F0000
00001F8FC000
00001F8FC000
00001F8FC000
00003F1F8000
00003F1F8000
00003F1F8000
000000000000
000000000000
000000000000
000000000000
000000000000
000000000000
000000000000
000000000000
000000000000
000000000000
000000000000
000000000000
000000000000
000000000000
000000000000
000000000000
000000000000
000000000000
000000000000
000000000000
000000000000
000000000000
000000000000
000000000000
000000000000
000000000000
000000000000
000000000000
000000000000
000000000000
000000000000
000000000000
000000000000
000000000000
000000000000
000000000000
ENDCHAR
STARTCHAR U+201E
ENCODING 8222
SWIDTH 1000 0
DWIDTH 27 0
BBX 46 60 -9 -12
BITMAP
000000000000
000000000000
000000000000
000000000000
000000000000
000000000000
000000000000
000000000000
000000000000
000000000000
000000000000
000000000000
000000000000
000000000000
000000000000
000000000000
000000000000
000000000000
000000000000
000000000000
000000000000
000000000000
000000000000
000000000000
000000000000
000000000000
000000000000
000000000000
000000000000
000000000000
000000000000
000000000000
000000000000
000000000000
000000000000
000000000000
000000000000
000000000000
000000000000
000000000000
000000000000
000000000000
00FC7E000000
00FC7E000000
00FC7E000000
01F8FC000000
01F8FC000000
01F8FC000000
03F1F8000000
03F1F8000000
03F1F8000000
07E3F0000000
07E3F0000000
07E3F0000000
000000000000
000000000000
000000000000
000000000000
000000000000
000000000000
ENDCHAR
STARTCHAR U+201D
ENCODING 8221
SWIDTH 1000 0
DWIDTH 27 0
BBX 46 60 -9 -12
BITMAP
000000000000
000000000000
000000000000
000000000000
000000000000
000000000000
00000FF8FF80
00000FF8FF80
00000FF8FF80
00001FF1FF00
00001FF1FF00
00001FF1FF00
000007E07E00
000007E07E00
000007E07E00
00000FC0FC00
00000FC0FC00
00000FC0FC00
0000FC0FC000
0000FC0FC000
0000FC0FC000
0001F81F8000
0001F81F8000
0001F81F8000
000000000000
000000000000
000000000000
000000000000
000000000000
000000000000
000000000000
000000000000
000000000000
000000000000
000000000000
000000000000
000000000000
000000000000
000000000000
000000000000
000000000000
000000000000
000000000000
000000000000
000000000000
000000000000
000000000000
000000000000
000000000000
000000000000
000000000000
000000000000
000000000000
000000000000
000000000000
000000000000
000000000000
000000000000
000000000000
000000000000
ENDCHAR
STARTCHAR U+201C
ENCODING 8220
SWIDTH 1000 0
DWIDTH 27 0
BBX 46 60 -9 -12
BITMAP
000000000000
000000000000
000000000000
000000000000
000000000000
000000000000
000001F81F80
000001F81F80
000001F81F80
000003F03F00
000003F03F00
000003F03F00
00003F03F000
00003F03F000
00003F03F000
00007E07E000
00007E07E000
00007E07E000
0000FF8FF800
0000FF8FF800
0000FF8FF800
0001FF1FF000
0001FF1FF000
0001FF1FF000
000000000000
000000000000
000000000000
000000000000
000000000000
000000000000
000000000000
000000000000
000000000000
000000000000
000000000000
000000000000
000000000000
000000000000
000000000000
000000000000
000000000000
000000000000
000000000000
000000000000
000000000000
000000000000
000000000000
000000000000
000000000000
000000000000
000000000000
000000000000
000000000000
000000000000
000000000000
000000000000
000000000000
000000000000
000000000000
000000000000
ENDCHAR
STARTCHAR U+201B
ENCODING 8219
SWIDTH 1000 0
DWIDTH 27 0
BBX 46 60 -9 -12
BITMAP
000000000000
000000000000
000000000000
000000000000
000000000000
000000000000
0000003F0000
0000003F0000
0000003F0000
0000007E0000
0000007E0000
0000007E0000
000000FC0000
000000FC0000
000000FC0000
000001F80000
000001F80000
000001F80000
000003F00000
000003F00000
000003F00000
000007E00000
000007E00000
000007E00000
000000000000
000000000000
000000000000
000000000000
000000000000
000000000000
000000000000
000000000000
000000000000
000000000000
000000000000
000000000000
000000000000
000000000000
000000000000
000000000000
000000000000
000000000000
000000000000
000000000000
000000000000
000000000000
000000000000
000000000000
000000000000
000000000000
000000000000
000000000000
000000000000
000000000000
000000000000
000000000000
000000000000
000000000000
000000000000
000000000000
ENDCHAR
STARTCHAR U+201A
ENCODING 8218
SWIDTH 1000 0
DWIDTH 27 0
BBX 46 60 -9 -12
BITMAP
000000000000
000000000000
000000000000
000000000000
000000000000
000000000000
000000000000
000000000000
000000000000
000000000000
000000000000
000000000000
000000000000
000000000000
000000000000
000000000000
000000000000
000000000000
000000000000
000000000000
000000000000
000000000000
000000000000
000000000000
000000000000
000000000000
000000000000
000000000000
000000000000
000000000000
00003F000000
00003F000000
00003F000000
00007E000000
00007E000000
00007E000000
0000FC000000
0000FC000000
0000FC000000
0001F8000000
0001F8000000
0001F8000000
0003F0000000
0003F0000000
0003F0000000
0007E0000000
0007E0000000
0007E0000000
000000000000
000000000000
000000000000
000000000000
000000000000
000000000000
000000000000
000000000000
000000000000
000000000000
000000000000
000000000000
ENDCHAR
STARTCHAR U+2019
ENCODING 8217
SWIDTH 1000 0
DWIDTH 27 0
BBX 46 60 -9 -12
BITMAP
000000000000
000000000000
000000000000
000000000000
000000000000
000000000000
00000FF80000
00000FF80000
00000FF80000
00001FF00000
00001FF00000
00001FF00000
000007E00000
000007E00000
000007E00000
00000FC00000
00000FC00000
00000FC00000
0000FC000000
0000FC000000
0000FC000000
0001F8000000
0001F8000000
0001F8000000
000000000000
000000000000
000000000000
000000000000
000000000000
000000000000
000000000000
000000000000
000000000000
000000000000
000000000000
000000000000
000000000000
000000000000
000000000000
000000000000
000000000000
000000000000
000000000000
000000000000
000000000000
000000000000
000000000000
000000000000
000000000000
000000000000
000000000000
000000000000
000000000000
000000000000
000000000000
000000000000
000000000000
000000000000
000000000000
000000000000
ENDCHAR
STARTCHAR U+2018
ENCODING 8216
SWIDTH 1000 0
DWIDTH 27 0
BBX 46 60 -9 -12
BITMAP
000000000000
000000000000
000000000000
000000000000
000000000000
000000000000
000000001F80
000000001F80
000000001F80
000000003F00
000000003F00
000000003F00
00000003F000
00000003F000
00000003F000
00000007E000
00000007E000
00000007E000
0000000FF800
0000000FF800
0000000FF800
0000001FF000
0000001FF000
0000001FF000
000000000000
000000000000
000000000000
000000000000
000000000000
000000000000
000000000000
000000000000
000000000000
000000000000
000000000000
000000000000
000000000000
000000000000
000000000000
000000000000
000000000000
000000000000
000000000000
000000000000
000000000000
000000000000
000000000000
000000000000
000000000000
000000000000
000000000000
000000000000
000000000000
000000000000
000000000000
000000000000
000000000000
000000000000
000000000000
000000000000
ENDCHAR
STARTCHAR U+2017
ENCODING 8215
SWIDTH 1000 0
DWIDTH 27 0
BBX 46 60 -9 -12
BITMAP
000000000000
000000000000
000000000000
000000000000
000000000000
000000000000
000000000000
000000000000
000000000000
000000000000
000000000000
000000000000
000000000000
000000000000
000000000000
000000000000
000000000000
000000000000
000000000000
000000000000
000000000000
000000000000
000000000000
000000000000
000000000000
000000000000
000000000000
000000000000
000000000000
000000000000
000000000000
000000000000
000000000000
000000000000
000000000000
000000000000
000000000000
000000000000
000000000000
000000000000
000000000000
000000000000
07FFFFF80000
07FFFFF80000
07FFFFF80000
0FFFFFF00000
0FFFFFF00000
0FFFFFF00000
000000000000
000000000000
000000000000
000000000000
000000000000
000000000000
7FFFFF800000
7FFFFF800000
7FFFFF800000
FFFFFF000000
FFFFFF000000
FFFFFF000000
ENDCHAR
STARTCHAR U+2016
ENCODING 8214
SWIDTH 1000 0
DWIDTH 27 0
BBX 46 60 -9 -12
BITMAP
000000000000
000000000000
000000000000
000000000000
000000000000
000000000000
0000003FFC00
0000003FFC00
0000003FFC00
0000007FF800
0000007FF800
0000007FF800
000000FFF000
000000FFF000
000000FFF000
000001FFE000
000001FFE000
000001FFE000
000003FFC000
000003FFC000
000003FFC000
000007FF8000
000007FF8000
000007FF8000
00000FFF0000
00000FFF0000
00000FFF0000
00001FFE0000
00001FFE0000
00001FFE0000
00003FFC0000
00003FFC0000
00003FFC0000
00007FF80000
00007FF80000
00007FF80000
0000FFF00000
0000FFF00000
0000FFF00000
0001FFE00000
0001FFE00000
0001FFE00000
0003FFC00000
0003FFC00000
0003FFC00000
0007FF800000
0007FF800000
0007FF800000
000000000000
000000000000
000000000000
000000000000
000000000000
000000000000
000000000000
000000000000
000000000000
000000000000
000000000000
000000000000
ENDCHAR
STARTCHAR U+2015
ENCODING 8213
SWIDTH 1000 0
DWIDTH 27 0
BBX 46 60 -9 -12
BITMAP
000000000000
000000000000
000000000000
000000000000
000000000000
000000000000
000000000000
000000000000
000000000000
000000000000
000000000000
000000000000
000000000000
000000000000
000000000000
000000000000
000000000000
000000000000
000000000000
000000000000
000000000000
000000000000
000000000000
000000000000
001FFFFFFC00
001FFFFFFC00
001FFFFFFC00
003FFFFFF800
003FFFFFF800
003FFFFFF800
000000000000
000000000000
000000000000
000000000000
000000000000
000000000000
000000000000
000000000000
000000000000
000000000000
000000000000
000000000000
000000000000
000000000000
000000000000
000000000000
000000000000
000000000000
000000000000
000000000000
000000000000
000000000000
000000000000
000000000000
000000000000
000000000000
000000000000
000000000000
000000000000
000000000000
ENDCHAR
STARTCHAR U+2014
ENCODING 8212
SWIDTH 1000 0
DWIDTH 27 0
BBX 46 60 -9 -12
BITMAP
000000000000
000000000000
000000000000
000000000000
000000000000
000000000000
000000000000
000000000000
000000000000
000000000000
000000000000
000000000000
000000000000
000000000000
000000000000
000000000000
000000000000
000000000000
000000000000
000000000000
000000000000
000000000000
000000000000
000000000000
001FFFFFE000
001FFFFFE000
001FFFFFE000
003FFFFFC000
003FFFFFC000
003FFFFFC000
000000000000
000000000000
000000000000
000000000000
000000000000
000000000000
000000000000
000000000000
000000000000
000000000000
000000000000
000000000000
000000000000
000000000000
000000000000
000000000000
000000000000
000000000000
000000000000
000000000000
000000000000
000000000000
000000000000
000000000000
000000000000
000000000000
000000000000
000000000000
000000000000
000000000000
ENDCHAR
STARTCHAR U+2013
ENCODING 8211
SWIDTH 1000 0
DWIDTH 27 0
BBX 46 60 -9 -12
BITMAP
000000000000
000000000000
000000000000
000000000000
000000000000
000000000000
000000000000
000000000000
000000000000
000000000000
000000000000
000000000000
000000000000
000000000000
000000000000
000000000000
000000000000
000000000000
000000000000
000000000000
000000000000
000000000000
000000000000
000000000000
00007FFF0000
00007FFF0000
00007FFF0000
0000FFFE0000
0000FFFE0000
0000FFFE0000
000000000000
000000000000
000000000000
000000000000
000000000000
000000000000
000000000000
000000000000
000000000000
000000000000
000000000000
000000000000
000000000000
000000000000
000000000000
000000000000
000000000000
000000000000
000000000000
000000000000
000000000000
000000000000
000000000000
000000000000
000000000000
000000000000
000000000000
000000000000
000000000000
000000000000
ENDCHAR
STARTCHAR U+2012
ENCODING 8210
SWIDTH 1000 0
DWIDTH 27 0
BBX 46 60 -9 -12
BITMAP
000000000000
000000000000
000000000000
000000000000
000000000000
000000000000
000000000000
000000000000
000000000000
000000000000
000000000000
000000000000
000000000000
000000000000
000000000000
000000000000
000000000000
000000000000
000000000000
000000000000
000000000000
000000000000
000000000000
000000000000
0003FFFF0000
0003FFFF0000
0003FFFF0000
0007FFFE0000
0007FFFE0000
0007FFFE0000
000000000000
000000000000
000000000000
000000000000
000000000000
000000000000
000000000000
000000000000
000000000000
000000000000
000000000000
000000000000
000000000000
000000000000
000000000000
000000000000
000000000000
000000000000
000000000000
000000000000
000000000000
000000000000
000000000000
000000000000
000000000000
000000000000
000000000000
000000000000
000000000000
000000000000
ENDCHAR
STARTCHAR U+2011
ENCODING 8209
SWIDTH 1000 0
DWIDTH 27 0
BBX 46 60 -9 -12
BITMAP
000000000000
000000000000
000000000000
000000000000
000000000000
000000000000
000000000000
000000000000
000000000000
000000000000
000000000000
000000000000
000000000000
000000000000
000000000000
000000000000
000000000000
000000000000
000000000000
000000000000
000000000000
000000000000
000000000000
000000000000
00007FF80000
00007FF80000
00007FF80000
0000FFF00000
0000FFF00000
0000FFF00000
000000000000
000000000000
000000000000
000000000000
000000000000
000000000000
000000000000
000000000000
000000000000
000000000000
000000000000
000000000000
000000000000
000000000000
000000000000
000000000000
000000000000
000000000000
000000000000
000000000000
000000000000
000000000000
000000000000
000000000000
000000000000
000000000000
000000000000
000000000000
000000000000
000000000000
ENDCHAR
STARTCHAR U+2010
ENCODING 8208
SWIDTH 1000 0
DWIDTH 27 0
BBX 46 60 -9 -12
BITMAP
000000000000
000000000000
000000000000
000000000000
000000000000
000000000000
000000000000
000000000000
000000000000
000000000000
000000000000
000000000000
000000000000
000000000000
000000000000
000000000000
000000000000
000000000000
000000000000
000000000000
000000000000
000000000000
000000000000
000000000000
00007FF80000
00007FF80000
00007FF80000
0000FFF00000
0000FFF00000
0000FFF00000
000000000000
000000000000
000000000000
000000000000
000000000000
000000000000
000000000000
000000000000
000000000000
000000000000
000000000000
000000000000
000000000000
000000000000
000000000000
000000000000
000000000000
000000000000
000000000000
000000000000
000000000000
000000000000
000000000000
000000000000
000000000000
000000000000
000000000000
000000000000
000000000000
000000000000
ENDCHAR
STARTCHAR U+007F
ENCODING 127
SWIDTH 1000 0
DWIDTH 27 0
BBX 46 60 -9 -12
BITMAP
000000000000
000000000000
000000000000
000000000000
000000000000
000000000000
00007FF80000
00007FF80000
00007FF80000
0000FFF00000
0000FFF00000
0000FFF00000
0001F8FC0000
0001F8FC0000
0001F8FC0000
0003F1F80000
0003F1F80000
0003F1F80000
0007E3F00000
0007E3F00000
0007E3F00000
000FC7E00000
000FC7E00000
000FC7E00000
001F8FC00000
001F8FC00000
001F8FC00000
003F1F800000
003F1F800000
003F1F800000
007FFFE00000
007FFFE00000
007FFFE00000
00FFFFC00000
00FFFFC00000
00FFFFC00000
0007E0000000
0007E0000000
0007E0000000
000FC0000000
000FC0000000
000FC0000000
001F80000000
001F80000000
001F80000000
003F00000000
003F00000000
003F00000000
007E00000000
007E00000000
007E00000000
00FC00000000
00FC00000000
00FC00000000
01F800000000
01F800000000
01F800000000
03F000000000
03F000000000
03F000000000
ENDCHAR
STARTCHAR U+007E
ENCODING 126
SWIDTH 1000 0
DWIDTH 27 0
BBX 46 60 -9 -12
BITMAP
000000000000
000000000000
000000000000
000000000000
000000000000
000000000000
00000FF81F80
00000FF81F80
00000FF81F80
00001FF03F00
00001FF03F00
00001FF03F00
0001F8FC7E00
0001F8FC7E00
0001F8FC7E00
0003F1F8FC00
0003F1F8FC00
0003F1F8FC00
0007E07FC000
0007E07FC000
0007E07FC000
000FC0FF8000
000FC0FF8000
000FC0FF8000
000000000000
000000000000
000000000000
000000000000
000000000000
000000000000
000000000000
000000000000
000000000000
000000000000
000000000000
000000000000
000000000000
000000000000
000000000000
000000000000
000000000000
000000000000
000000000000
000000000000
000000000000
000000000000
000000000000
000000000000
000000000000
000000000000
000000000000
000000000000
000000000000
000000000000
000000000000
000000000000
000000000000
000000000000
000000000000
000000000000
ENDCHAR
STARTCHAR U+007D
ENCODING 125
SWIDTH 1000 0
DWIDTH 27 0
BBX 46 60 -9 -12
BITMAP
000000000000
000000000000
000000000000
000000000000
000000000000
000000000000
00007FF80000
00007FF80000
00007FF80000
0000FFF00000
0000FFF00000
0000FFF00000
000000FC0000
000000FC0000
000000FC0000
000001F80000
000001F80000
000001F80000
00001F800000
00001F800000
00001F800000
00003F000000
00003F000000
00003F000000
00000FF80000
00000FF80000
00000FF80000
00001FF00000
00001FF00000
00001FF00000
0001F8000000
0001F8000000
0001F8000000
0003F0000000
0003F0000000
0003F0000000
0000FC000000
0000FC000000
0000FC000000
0001F8000000
0001F8000000
0001F8000000
07FF80000000
07FF80000000
07FF80000000
0FFF00000000
0FFF00000000
0FFF00000000
000000000000
000000000000
000000000000
000000000000
000000000000
000000000000
000000000000
000000000000
000000000000
000000000000
000000000000
000000000000
ENDCHAR
STARTCHAR U+007C
ENCODING 124
SWIDTH 1000 0
DWIDTH 27 0
BBX 46 60 -9 -12
BITMAP
000000000000
000000000000
000000000000
000000000000
000000000000
000000000000
0000003F0000
0000003F0000
0000003F0000
0000007E0000
0000007E0000
0000007E0000
000000FC0000
000000FC0000
000000FC0000
000001F80000
000001F80000
000001F80000
000003F00000
000003F00000
000003F00000
000007E00000
000007E00000
000007E00000
00000FC00000
00000FC00000
00000FC00000
00001F800000
00001F800000
00001F800000
00003F000000
00003F000000
00003F000000
00007E000000
00007E000000
00007E000000
0000FC000000
0000FC000000
0000FC000000
0001F8000000
0001F8000000
0001F8000000
0003F0000000
0003F0000000
0003F0000000
0007E0000000
0007E0000000
0007E0000000
000000000000
000000000000
000000000000
000000000000
000000000000
000000000000
000000000000
000000000000
000000000000
000000000000
000000000000
000000000000
ENDCHAR
STARTCHAR U+007B
ENCODING 123
SWIDTH 1000 0
DWIDTH 27 0
BBX 46 60 -9 -12
BITMAP
000000000000
000000000000
000000000000
000000000000
000000000000
000000000000
00000007FF80
00000007FF80
00000007FF80
0000000FFF00
0000000FFF00
0000000FFF00
000000FC0000
000000FC0000
000000FC0000
000001F80000
000001F80000
000001F80000
0000007E0000
0000007E0000
0000007E0000
000000FC0000
000000FC0000
000000FC0000
00007FC00000
00007FC00000
00007FC00000
0000FF800000
0000FF800000
0000FF800000
000007E00000
000007E00000
000007E00000
00000FC00000
00000FC00000
00000FC00000
0000FC000000
0000FC000000
0000FC000000
0001F8000000
0001F8000000
0001F8000000
00007FF80000
00007FF80000
00007FF80000
0000FFF00000
0000FFF00000
0000FFF00000
000000000000
000000000000
000000000000
000000000000
000000000000
000000000000
000000000000
000000000000
000000000000
000000000000
000000000000
000000000000
ENDCHAR
STARTCHAR U+007A
ENCODING 122
SWIDTH 1000 0
DWIDTH 27 0
BBX 46 60 -9 -12
BITMAP
000000000000
000000000000
000000000000
000000000000
000000000000
000000000000
000000000000
000000000000
000000000000
000000000000
000000000000
000000000000
000000000000
000000000000
000000000000
000000000000
000000000000
000000000000
0007FFFFF800
0007FFFFF800
0007FFFFF800
000FFFFFF000
000FFFFFF000
000FFFFFF000
0000003F0000
0000003F0000
0000003F0000
0000007E0000
0000007E0000
0000007E0000
00003FE00000
00003FE00000
00003FE00000
00007FC00000
00007FC00000
00007FC00000
0007E0000000
0007E0000000
0007E0000000
000FC0000000
000FC0000000
000FC0000000
07FFFFF80000
07FFFFF80000
07FFFFF80000
0FFFFFF00000
0FFFFFF00000
0FFFFFF00000
000000000000
000000000000
000000000000
000000000000
000000000000
000000000000
000000000000
000000000000
000000000000
000000000000
000000000000
000000000000
ENDCHAR
STARTCHAR U+0079
ENCODING 121
SWIDTH 1000 0
DWIDTH 27 0
BBX 46 60 -9 -12
BITMAP
000000000000
000000000000
000000000000
000000000000
000000000000
000000000000
000000000000
000000000000
000000000000
000000000000
000000000000
000000000000
000000000000
000000000000
000000000000
000000000000
000000000000
000000000000
0007E00FC000
0007E00FC000
0007E00FC000
000FC01F8000
000FC01F8000
000FC01F8000
001F803F0000
001F803F0000
001F803F0000
003F007E0000
003F007E0000
003F007E0000
007E07FC0000
007E07FC0000
007E07FC0000
00FC0FF80000
00FC0FF80000
00FC0FF80000
003FFFF00000
003FFFF00000
003FFFF00000
007FFFE00000
007FFFE00000
007FFFE00000
00000FC00000
00000FC00000
00000FC00000
00001F800000
00001F800000
00001F800000
1F803F000000
1F803F000000
1F803F000000
3F007E000000
3F007E000000
3F007E000000
0FFFE0000000
0FFFE0000000
0FFFE0000000
1FFFC0000000
1FFFC0000000
1FFFC0000000
ENDCHAR
STARTCHAR U+0078
ENCODING 120
SWIDTH 1000 0
DWIDTH 27 0
BBX 46 60 -9 -12
BITMAP
000000000000
000000000000
000000000000
000000000000
000000000000
000000000000
000000000000
000000000000
000000000000
000000000000
000000000000
000000000000
000000000000
000000000000
000000000000
000000000000
000000000000
000000000000
0007E00FC000
0007E00FC000
0007E00FC000
000FC01F8000
000FC01F8000
000FC01F8000
0003F1F80000
0003F1F80000
0003F1F80000
0007E3F00000
0007E3F00000
0007E3F00000
0001FF000000
0001FF000000
0001FF000000
0003FE000000
0003FE000000
0003FE000000
003F1F800000
003F1F800000
003F1F800000
007E3F000000
007E3F000000
007E3F000000
07E00FC00000
07E00FC00000
07E00FC00000
0FC01F800000
0FC01F800000
0FC01F800000
000000000000
000000000000
000000000000
000000000000
000000000000
000000000000
000000000000
000000000000
000000000000
000000000000
000000000000
000000000000
ENDCHAR
STARTCHAR U+0077
ENCODING 119
SWIDTH 1000 0
DWIDTH 27 0
BBX 46 60 -9 -12
BITMAP
000000000000
000000000000
000000000000
000000000000
000000000000
000000000000
000000000000
000000000000
000000000000
000000000000
000000000000
000000000000
000000000000
000000000000
000000000000
000000000000
000000000000
000000000000
0007E001F800
0007E001F800
0007E001F800
000FC003F000
000FC003F000
000FC003F000
001F8007E000
001F8007E000
001F8007E000
003F000FC000
003F000FC000
003F000FC000
007E3F1F8000
007E3F1F8000
007E3F1F8000
00FC7E3F0000
00FC7E3F0000
00FC7E3F0000
01FFFFFE0000
01FFFFFE0000
01FFFFFE0000
03FFFFFC0000
03FFFFFC0000
03FFFFFC0000
00FC0FC00000
00FC0FC00000
00FC0FC00000
01F81F800000
01F81F800000
01F81F800000
000000000000
000000000000
000000000000
000000000000
000000000000
000000000000
000000000000
000000000000
000000000000
000000000000
000000000000
000000000000
ENDCHAR
STARTCHAR U+0076
ENCODING 118
SWIDTH 1000 0
DWIDTH 27 0
BBX 46 60 -9 -12
BITMAP
000000000000
000000000000
000000000000
000000000000
000000000000
000000000000
000000000000
000000000000
000000000000
000000000000
000000000000
000000000000
000000000000
000000000000
000000000000
000000000000
000000000000
000000000000
0007E001F800
0007E001F800
0007E001F800
000FC003F000
000FC003F000
000FC003F000
001F8007E000
001F8007E000
001F8007E000
003F000FC000
003F000FC000
003F000FC000
000FC0FC0000
000FC0FC0000
000FC0FC0000
001F81F80000
001F81F80000
001F81F80000
0007FF800000
0007FF800000
0007FF800000
000FFF000000
000FFF000000
000FFF000000
0003F0000000
0003F0000000
0003F0000000
0007E0000000
0007E0000000
0007E0000000
000000000000
000000000000
000000000000
000000000000
000000000000
000000000000
000000000000
000000000000
000000000000
000000000000
000000000000
000000000000
ENDCHAR
STARTCHAR U+0075
ENCODING 117
SWIDTH 1000 0
DWIDTH 27 0
BBX 46 60 -9 -12
BITMAP
000000000000
000000000000
000000000000
000000000000
000000000000
000000000000
000000000000
000000000000
000000000000
000000000000
000000000000
000000000000
000000000000
000000000000
000000000000
000000000000
000000000000
000000000000
0007E00FC000
0007E00FC000
0007E00FC000
000FC01F8000
000FC01F8000
000FC01F8000
001F803F0000
001F803F0000
001F803F0000
003F007E0000
003F007E0000
003F007E0000
007E00FC0000
007E00FC0000
007E00FC0000
00FC01F80000
00FC01F80000
00FC01F80000
01F803F00000
01F803F00000
01F803F00000
03F007E00000
03F007E00000
03F007E00000
00FFFFF80000
00FFFFF80000
00FFFFF80000
01FFFFF00000
01FFFFF00000
01FFFFF00000
000000000000
000000000000
000000000000
000000000000
000000000000
000000000000
000000000000
000000000000
000000000000
000000000000
000000000000
000000000000
ENDCHAR
STARTCHAR U+0074
ENCODING 116
SWIDTH 1000 0
DWIDTH 27 0
BBX 46 60 -9 -12
BITMAP
000000000000
000000000000
000000000000
000000000000
000000000000
000000000000
000001F80000
000001F80000
000001F80000
000003F00000
000003F00000
000003F00000
000007E00000
000007E00000
000007E00000
00000FC00000
00000FC00000
00000FC00000
0007FFFE0000
0007FFFE0000
0007FFFE0000
000FFFFC0000
000FFFFC0000
000FFFFC0000
00007E000000
00007E000000
00007E000000
0000FC000000
0000FC000000
0000FC000000
0001F8000000
0001F8000000
0001F8000000
0003F0000000
0003F0000000
0003F0000000
0007E3F00000
0007E3F00000
0007E3F00000
000FC7E00000
000FC7E00000
000FC7E00000
0003FE000000
0003FE000000
0003FE000000
0007FC000000
0007FC000000
0007FC000000
000000000000
000000000000
000000000000
000000000000
000000000000
000000000000
000000000000
000000000000
000000000000
000000000000
000000000000
000000000000
ENDCHAR
STARTCHAR U+0073
ENCODING 115
SWIDTH 1000 0
DWIDTH 27 0
BBX 46 60 -9 -12
BITMAP
000000000000
000000000000
000000000000
000000000000
000000000000
000000000000
000000000000
000000000000
000000000000
000000000000
000000000000
000000000000
000000000000
000000000000
000000000000
000000000000
000000000000
000000000000
0000FFFFC000
0000FFFFC000
0000FFFFC000
0001FFFF8000
0001FFFF8000
0001FFFF8000
001F80000000
001F80000000
001F80000000
003F00000000
003F00000000
003F00000000
000FFFFC0000
000FFFFC0000
000FFFFC0000
001FFFF80000
001FFFF80000
001FFFF80000
0000007E0000
0000007E0000
0000007E0000
000000FC0000
000000FC0000
000000FC0000
07FFFFC00000
07FFFFC00000
07FFFFC00000
0FFFFF800000
0FFFFF800000
0FFFFF800000
000000000000
000000000000
000000000000
000000000000
000000000000
000000000000
000000000000
000000000000
000000000000
000000000000
000000000000
000000000000
ENDCHAR
STARTCHAR U+0072
ENCODING 114
SWIDTH 1000 0
DWIDTH 27 0
BBX 46 60 -9 -12
BITMAP
000000000000
000000000000
000000000000
000000000000
000000000000
000000000000
000000000000
000000000000
000000000000
000000000000
000000000000
000000000000
000000000000
000000000000
000000000000
000000000000
000000000000
000000000000
0007E3FFC000
0007E3FFC000
0007E3FFC000
000FC7FF8000
000FC7FF8000
000FC7FF8000
0003FE07E000
0003FE07E000
0003FE07E000
0007FC0FC000
0007FC0FC000
0007FC0FC000
000FC0000000
000FC0000000
000FC0000000
001F80000000
001F80000000
001F80000000
003F00000000
003F00000000
003F00000000
007E00000000
007E00000000
007E00000000
00FC00000000
00FC00000000
00FC00000000
01F800000000
01F800000000
01F800000000
000000000000
000000000000
000000000000
000000000000
000000000000
000000000000
000000000000
000000000000
000000000000
000000000000
000000000000
000000000000
ENDCHAR
STARTCHAR U+0071
ENCODING 113
SWIDTH 1000 0
DWIDTH 27 0
BBX 46 60 -9 -12
BITMAP
000000000000
000000000000
000000000000
000000000000
000000000000
000000000000
000000000000
000000000000
000000000000
000000000000
000000000000
000000000000
000000000000
000000000000
000000000000
000000000000
000000000000
000000000000
0000FFFFF800
0000FFFFF800
0000FFFFF800
0001FFFFF000
0001FFFFF000
0001FFFFF000
001F803FE000
001F803FE000
001F803FE000
003F007FC000
003F007FC000
003F007FC000
007E00FF8000
007E00FF8000
007E00FF8000
00FC01FF0000
00FC01FF0000
00FC01FF0000
003FFFFE0000
003FFFFE0000
003FFFFE0000
007FFFFC0000
007FFFFC0000
007FFFFC0000
000001F80000
000001F80000
000001F80000
000003F00000
000003F00000
000003F00000
000007E00000
000007E00000
000007E00000
00000FC00000
00000FC00000
00000FC00000
00001F800000
00001F800000
00001F800000
00003F000000
00003F000000
00003F000000
ENDCHAR
STARTCHAR U+0070
ENCODING 112
SWIDTH 1000 0
DWIDTH 27 0
BBX 46 60 -9 -12
BITMAP
000000000000
000000000000
000000000000
000000000000
000000000000
000000000000
000000000000
000000000000
000000000000
000000000000
000000000000
000000000000
000000000000
000000000000
000000000000
000000000000
000000000000
000000000000
0007FFFFC000
0007FFFFC000
0007FFFFC000
000FFFFF8000
000FFFFF8000
000FFFFF8000
001FF007E000
001FF007E000
001FF007E000
003FE00FC000
003FE00FC000
003FE00FC000
007FC01F8000
007FC01F8000
007FC01F8000
00FF803F0000
00FF803F0000
00FF803F0000
01FFFFF00000
01FFFFF00000
01FFFFF00000
03FFFFE00000
03FFFFE00000
03FFFFE00000
07E000000000
07E000000000
07E000000000
0FC000000000
0FC000000000
0FC000000000
1F8000000000
1F8000000000
1F8000000000
3F0000000000
3F0000000000
3F0000000000
7E0000000000
7E0000000000
7E0000000000
FC0000000000
FC0000000000
FC0000000000
ENDCHAR
STARTCHAR U+006f
ENCODING 111
SWIDTH 1000 0
DWIDTH 27 0
BBX 46 60 -9 -12
BITMAP
000000000000
000000000000
000000000000
000000000000
000000000000
000000000000
000000000000
000000000000
000000000000
000000000000
000000000000
000000000000
000000000000
000000000000
000000000000
000000000000
000000000000
000000000000
0000FFFFC000
0000FFFFC000
0000FFFFC000
0001FFFF8000
0001FFFF8000
0001FFFF8000
001F8007E000
001F8007E000
001F8007E000
003F000FC000
003F000FC000
003F000FC000
007E001F8000
007E001F8000
007E001F8000
00FC003F0000
00FC003F0000
00FC003F0000
01F8007E0000
01F8007E0000
01F8007E0000
03F000FC0000
03F000FC0000
03F000FC0000
00FFFFC00000
00FFFFC00000
00FFFFC00000
01FFFF800000
01FFFF800000
01FFFF800000
000000000000
000000000000
000000000000
000000000000
000000000000
000000000000
000000000000
000000000000
000000000000
000000000000
000000000000
000000000000
ENDCHAR
STARTCHAR U+006e
ENCODING 110
SWIDTH 1000 0
DWIDTH 27 0
BBX 46 60 -9 -12
BITMAP
000000000000
000000000000
000000000000
000000000000
000000000000
000000000000
000000000000
000000000000
000000000000
000000000000
000000000000
000000000000
000000000000
000000000000
000000000000
000000000000
000000000000
000000000000
0007FFFFC000
0007FFFFC000
0007FFFFC000
000FFFFF8000
000FFFFF8000
000FFFFF8000
001FF007E000
001FF007E000
001FF007E000
003FE00FC000
003FE00FC000
003FE00FC000
007E001F8000
007E001F8000
007E001F8000
00FC003F0000
00FC003F0000
00FC003F0000
01F8007E0000
01F8007E0000
01F8007E0000
03F000FC0000
03F000FC0000
03F000FC0000
07E001F80000
07E001F80000
07E001F80000
0FC003F00000
0FC003F00000
0FC003F00000
000000000000
000000000000
000000000000
000000000000
000000000000
000000000000
000000000000
000000000000
000000000000
000000000000
000000000000
000000000000
ENDCHAR
STARTCHAR U+006d
ENCODING 109
SWIDTH 1000 0
DWIDTH 27 0
BBX 46 60 -9 -12
BITMAP
000000000000
000000000000
000000000000
000000000000
000000000000
000000000000
000000000000
000000000000
000000000000
000000000000
000000000000
000000000000
000000000000
000000000000
000000000000
000000000000
000000000000
000000000000
0007FC0FC000
0007FC0FC000
0007FC0FC000
000FF81F8000
000FF81F8000
000FF81F8000
001FFFFFE000
001FFFFFE000
001FFFFFE000
003FFFFFC000
003FFFFFC000
003FFFFFC000
007E3F1F8000
007E3F1F8000
007E3F1F8000
00FC7E3F0000
00FC7E3F0000
00FC7E3F0000
01F8FC7E0000
01F8FC7E0000
01F8FC7E0000
03F1F8FC0000
03F1F8FC0000
03F1F8FC0000
07E001F80000
07E001F80000
07E001F80000
0FC003F00000
0FC003F00000
0FC003F00000
000000000000
000000000000
000000000000
000000000000
000000000000
000000000000
000000000000
000000000000
000000000000
000000000000
000000000000
000000000000
ENDCHAR
STARTCHAR U+006c
ENCODING 108
SWIDTH 1000 0
DWIDTH 27 0
BBX 46 60 -9 -12
BITMAP
000000000000
000000000000
000000000000
000000000000
000000000000
000000000000
000001FF0000
000001FF0000
000001FF0000
000003FE0000
000003FE0000
000003FE0000
000000FC0000
000000FC0000
000000FC0000
000001F80000
000001F80000
000001F80000
000003F00000
000003F00000
000003F00000
000007E00000
000007E00000
000007E00000
00000FC00000
00000FC00000
00000FC00000
00001F800000
00001F800000
00001F800000
00003F000000
00003F000000
00003F000000
00007E000000
00007E000000
00007E000000
0000FC000000
0000FC000000
0000FC000000
0001F8000000
0001F8000000
0001F8000000
001FFE000000
001FFE000000
001FFE000000
003FFC000000
003FFC000000
003FFC000000
000000000000
000000000000
000000000000
000000000000
000000000000
000000000000
000000000000
000000000000
000000000000
000000000000
000000000000
000000000000
ENDCHAR
STARTCHAR U+006b
ENCODING 107
SWIDTH 1000 0
DWIDTH 27 0
BBX 46 60 -9 -12
BITMAP
000000000000
000000000000
000000000000
000000000000
000000000000
000000000000
00007E000000
00007E000000
00007E000000
0000FC000000
0000FC000000
0000FC000000
0001F8000000
0001F8000000
0001F8000000
0003F0000000
0003F0000000
0003F0000000
0007E07E0000
0007E07E0000
0007E07E0000
000FC0FC0000
000FC0FC0000
000FC0FC0000
001F8FC00000
001F8FC00000
001F8FC00000
003F1F800000
003F1F800000
003F1F800000
007FF8000000
007FF8000000
007FF8000000
00FFF0000000
00FFF0000000
00FFF0000000
01F81F800000
01F81F800000
01F81F800000
03F03F000000
03F03F000000
03F03F000000
07E001F80000
07E001F80000
07E001F80000
0FC003F00000
0FC003F00000
0FC003F00000
000000000000
000000000000
000000000000
000000000000
000000000000
000000000000
000000000000
000000000000
000000000000
000000000000
000000000000
000000000000
ENDCHAR
STARTCHAR U+006a
ENCODING 106
SWIDTH 1000 0
DWIDTH 27 0
BBX 46 60 -9 -12
BITMAP
000000000000
000000000000
000000000000
000000000000
000000000000
000000000000
00000000FC00
00000000FC00
00000000FC00
00000001F800
00000001F800
00000001F800
000000000000
000000000000
000000000000
000000000000
000000000000
000000000000
0000000FC000
0000000FC000
0000000FC000
0000001F8000
0000001F8000
0000001F8000
0000003F0000
0000003F0000
0000003F0000
0000007E0000
0000007E0000
0000007E0000
000000FC0000
000000FC0000
000000FC0000
000001F80000
000001F80000
000001F80000
000003F00000
000003F00000
000003F00000
000007E00000
000007E00000
000007E00000
07E00FC00000
07E00FC00000
07E00FC00000
0FC01F800000
0FC01F800000
0FC01F800000
1F803F000000
1F803F000000
1F803F000000
3F007E000000
3F007E000000
3F007E000000
0FFFE0000000
0FFFE0000000
0FFFE0000000
1FFFC0000000
1FFFC0000000
1FFFC0000000
ENDCHAR
STARTCHAR U+0069
ENCODING 105
SWIDTH 1000 0
DWIDTH 27 0
BBX 46 60 -9 -12
BITMAP
000000000000
000000000000
000000000000
000000000000
000000000000
000000000000
0000003F0000
0000003F0000
0000003F0000
0000007E0000
0000007E0000
0000007E0000
000000000000
000000000000
000000000000
000000000000
000000000000
000000000000
00001FF00000
00001FF00000
00001FF00000
00003FE00000
00003FE00000
00003FE00000
00000FC00000
00000FC00000
00000FC00000
00001F800000
00001F800000
00001F800000
00003F000000
00003F000000
00003F000000
00007E000000
00007E000000
00007E000000
0000FC000000
0000FC000000
0000FC000000
0001F8000000
0001F8000000
0001F8000000
00FFFFC00000
00FFFFC00000
00FFFFC00000
01FFFF800000
01FFFF800000
01FFFF800000
000000000000
000000000000
000000000000
000000000000
000000000000
000000000000
000000000000
000000000000
000000000000
000000000000
000000000000
000000000000
ENDCHAR
STARTCHAR U+0068
ENCODING 104
SWIDTH 1000 0
DWIDTH 27 0
BBX 46 60 -9 -12
BITMAP
000000000000
000000000000
000000000000
000000000000
000000000000
000000000000
00007E000000
00007E000000
00007E000000
0000FC000000
0000FC000000
0000FC000000
0001F8000000
0001F8000000
0001F8000000
0003F0000000
0003F0000000
0003F0000000
0007FFFFC000
0007FFFFC000
0007FFFFC000
000FFFFF8000
000FFFFF8000
000FFFFF8000
001FF007E000
001FF007E000
001FF007E000
003FE00FC000
003FE00FC000
003FE00FC000
007E001F8000
007E001F8000
007E001F8000
00FC003F0000
00FC003F0000
00FC003F0000
01F8007E0000
01F8007E0000
01F8007E0000
03F000FC0000
03F000FC0000
03F000FC0000
07E001F80000
07E001F80000
07E001F80000
0FC003F00000
0FC003F00000
0FC003F00000
000000000000
000000000000
000000000000
000000000000
000000000000
000000000000
000000000000
000000000000
000000000000
000000000000
000000000000
000000000000
ENDCHAR
STARTCHAR U+0067
ENCODING 103
SWIDTH 1000 0
DWIDTH 27 0
BBX 46 60 -9 -12
BITMAP
000000000000
000000000000
000000000000
000000000000
000000000000
000000000000
000000000000
000000000000
000000000000
000000000000
000000000000
000000000000
000000000000
000000000000
000000000000
000000000000
000000000000
000000000000
0000FFFFF800
0000FFFFF800
0000FFFFF800
0001FFFFF000
0001FFFFF000
0001FFFFF000
001F803F0000
001F803F0000
001F803F0000
003F007E0000
003F007E0000
003F007E0000
000FFFE00000
000FFFE00000
000FFFE00000
001FFFC00000
001FFFC00000
001FFFC00000
01F800000000
01F800000000
01F800000000
03F000000000
03F000000000
03F000000000
00FFFFC00000
00FFFFC00000
00FFFFC00000
01FFFF800000
01FFFF800000
01FFFF800000
1F8007E00000
1F8007E00000
1F8007E00000
3F000FC00000
3F000FC00000
3F000FC00000
0FFFFC000000
0FFFFC000000
0FFFFC000000
1FFFF8000000
1FFFF8000000
1FFFF8000000
ENDCHAR
STARTCHAR U+0066
ENCODING 102
SWIDTH 1000 0
DWIDTH 27 0
BBX 46 60 -9 -12
BITMAP
000000000000
000000000000
000000000000
000000000000
000000000000
000000000000
0000003FFC00
0000003FFC00
0000003FFC00
0000007FF800
0000007FF800
0000007FF800
000007E07E00
000007E07E00
000007E07E00
00000FC0FC00
00000FC0FC00
00000FC0FC00
00001F800000
00001F800000
00001F800000
00003F000000
00003F000000
00003F000000
001FFFF80000
001FFFF80000
001FFFF80000
003FFFF00000
003FFFF00000
003FFFF00000
0001F8000000
0001F8000000
0001F8000000
0003F0000000
0003F0000000
0003F0000000
0007E0000000
0007E0000000
0007E0000000
000FC0000000
000FC0000000
000FC0000000
001F80000000
001F80000000
001F80000000
003F00000000
003F00000000
003F00000000
000000000000
000000000000
000000000000
000000000000
000000000000
000000000000
000000000000
000000000000
000000000000
000000000000
000000000000
000000000000
ENDCHAR
STARTCHAR U+0065
ENCODING 101
SWIDTH 1000 0
DWIDTH 27 0
BBX 46 60 -9 -12
BITMAP
000000000000
000000000000
000000000000
000000000000
000000000000
000000000000
000000000000
000000000000
000000000000
000000000000
000000000000
000000000000
000000000000
000000000000
000000000000
000000000000
000000000000
000000000000
0000FFFFC000
0000FFFFC000
0000FFFFC000
0001FFFF8000
0001FFFF8000
0001FFFF8000
001F8007E000
001F8007E000
001F8007E000
003F000FC000
003F000FC000
003F000FC000
007FFFFF8000
007FFFFF8000
007FFFFF8000
00FFFFFF0000
00FFFFFF0000
00FFFFFF0000
01F800000000
01F800000000
01F800000000
03F000000000
03F000000000
03F000000000
00FFFFC00000
00FFFFC00000
00FFFFC00000
01FFFF800000
01FFFF800000
01FFFF800000
000000000000
000000000000
000000000000
000000000000
000000000000
000000000000
000000000000
000000000000
000000000000
000000000000
000000000000
000000000000
ENDCHAR
STARTCHAR U+0064
ENCODING 100
SWIDTH 1000 0
DWIDTH 27 0
BBX 46 60 -9 -12
BITMAP
000000000000
000000000000
000000000000
000000000000
000000000000
000000000000
000000001F80
000000001F80
000000001F80
000000003F00
000000003F00
000000003F00
000000007E00
000000007E00
000000007E00
00000000FC00
00000000FC00
00000000FC00
0000FFFFF800
0000FFFFF800
0000FFFFF800
0001FFFFF000
0001FFFFF000
0001FFFFF000
001F803FE000
001F803FE000
001F803FE000
003F007FC000
003F007FC000
003F007FC000
007E001F8000
007E001F8000
007E001F8000
00FC003F0000
00FC003F0000
00FC003F0000
01F803FE0000
01F803FE0000
01F803FE0000
03F007FC0000
03F007FC0000
03F007FC0000
00FFFFF80000
00FFFFF80000
00FFFFF80000
01FFFFF00000
01FFFFF00000
01FFFFF00000
000000000000
000000000000
000000000000
000000000000
000000000000
000000000000
000000000000
000000000000
000000000000
000000000000
000000000000
000000000000
ENDCHAR
STARTCHAR U+0063
ENCODING 99
SWIDTH 1000 0
DWIDTH 27 0
BBX 46 60 -9 -12
BITMAP
000000000000
000000000000
000000000000
000000000000
000000000000
000000000000
000000000000
000000000000
000000000000
000000000000
000000000000
000000000000
000000000000
000000000000
000000000000
000000000000
000000000000
000000000000
0000FFFFC000
0000FFFFC000
0000FFFFC000
0001FFFF8000
0001FFFF8000
0001FFFF8000
001F8007E000
001F8007E000
001F8007E000
003F000FC000
003F000FC000
003F000FC000
007E00000000
007E00000000
007E00000000
00FC00000000
00FC00000000
00FC00000000
01F800000000
01F800000000
01F800000000
03F000000000
03F000000000
03F000000000
00FFFFF80000
00FFFFF80000
00FFFFF80000
01FFFFF00000
01FFFFF00000
01FFFFF00000
000000000000
000000000000
000000000000
000000000000
000000000000
000000000000
000000000000
000000000000
000000000000
000000000000
000000000000
000000000000
ENDCHAR
STARTCHAR U+0062
ENCODING 98
SWIDTH 1000 0
DWIDTH 27 0
BBX 46 60 -9 -12
BITMAP
000000000000
000000000000
000000000000
000000000000
000000000000
000000000000
00007E000000
00007E000000
00007E000000
0000FC000000
0000FC000000
0000FC000000
0001F8000000
0001F8000000
0001F8000000
0003F0000000
0003F0000000
0003F0000000
0007FFFFC000
0007FFFFC000
0007FFFFC000
000FFFFF8000
000FFFFF8000
000FFFFF8000
001FF007E000
001FF007E000
001FF007E000
003FE00FC000
003FE00FC000
003FE00FC000
007E001F8000
007E001F8000
007E001F8000
00FC003F0000
00FC003F0000
00FC003F0000
01FF007E0000
01FF007E0000
01FF007E0000
03FE00FC0000
03FE00FC0000
03FE00FC0000
07FFFFC00000
07FFFFC00000
07FFFFC00000
0FFFFF800000
0FFFFF800000
0FFFFF800000
000000000000
000000000000
000000000000
000000000000
000000000000
000000000000
000000000000
000000000000
000000000000
000000000000
000000000000
000000000000
ENDCHAR
STARTCHAR U+0061
ENCODING 97
SWIDTH 1000 0
DWIDTH 27 0
BBX 46 60 -9 -12
BITMAP
000000000000
000000000000
000000000000
000000000000
000000000000
000000000000
000000000000
000000000000
000000000000
000000000000
000000000000
000000000000
000000000000
000000000000
000000000000
000000000000
000000000000
000000000000
0000FFFFC000
0000FFFFC000
0000FFFFC000
0001FFFF8000
0001FFFF8000
0001FFFF8000
00000007E000
00000007E000
00000007E000
0000000FC000
0000000FC000
0000000FC000
000FFFFF8000
000FFFFF8000
000FFFFF8000
001FFFFF0000
001FFFFF0000
001FFFFF0000
01F803FE0000
01F803FE0000
01F803FE0000
03F007FC0000
03F007FC0000
03F007FC0000
00FFFFF80000
00FFFFF80000
00FFFFF80000
01FFFFF00000
01FFFFF00000
01FFFFF00000
000000000000
000000000000
000000000000
000000000000
000000000000
000000000000
000000000000
000000000000
000000000000
000000000000
000000000000
000000000000
ENDCHAR
STARTCHAR U+0060
ENCODING 96
SWIDTH 1000 0
DWIDTH 27 0
BBX 46 60 -9 -12
BITMAP
000000000000
000000000000
000000000000
000000000000
000000000000
000000000000
000001FF0000
000001FF0000
000001FF0000
000003FE0000
000003FE0000
000003FE0000
000000FC0000
000000FC0000
000000FC0000
000001F80000
000001F80000
000001F80000
0000007E0000
0000007E0000
0000007E0000
000000FC0000
000000FC0000
000000FC0000
000000000000
000000000000
000000000000
000000000000
000000000000
000000000000
000000000000
000000000000
000000000000
000000000000
000000000000
000000000000
000000000000
000000000000
000000000000
000000000000
000000000000
000000000000
000000000000
000000000000
000000000000
000000000000
000000000000
000000000000
000000000000
000000000000
000000000000
000000000000
000000000000
000000000000
000000000000
000000000000
000000000000
000000000000
000000000000
000000000000
ENDCHAR
STARTCHAR U+005F
ENCODING 95
SWIDTH 1000 0
DWIDTH 27 0
BBX 46 60 -9 -12
BITMAP
000000000000
000000000000
000000000000
000000000000
000000000000
000000000000
000000000000
000000000000
000000000000
000000000000
000000000000
000000000000
000000000000
000000000000
000000000000
000000000000
000000000000
000000000000
000000000000
000000000000
000000000000
000000000000
000000000000
000000000000
000000000000
000000000000
000000000000
000000000000
000000000000
000000000000
000000000000
000000000000
000000000000
000000000000
000000000000
000000000000
000000000000
000000000000
000000000000
000000000000
000000000000
000000000000
07FFFFF80000
07FFFFF80000
07FFFFF80000
0FFFFFF00000
0FFFFFF00000
0FFFFFF00000
000000000000
000000000000
000000000000
000000000000
000000000000
000000000000
000000000000
000000000000
000000000000
000000000000
000000000000
000000000000
ENDCHAR
STARTCHAR U+005E
ENCODING 94
SWIDTH 1000 0
DWIDTH 27 0
BBX 46 60 -9 -12
BITMAP
000000000000
000000000000
000000000000
000000000000
000000000000
000000000000
0000003F0000
0000003F0000
0000003F0000
0000007E0000
0000007E0000
0000007E0000
000007FF8000
000007FF8000
000007FF8000
00000FFF0000
00000FFF0000
00000FFF0000
0000FC0FC000
0000FC0FC000
0000FC0FC000
0001F81F8000
0001F81F8000
0001F81F8000
001F8007E000
001F8007E000
001F8007E000
003F000FC000
003F000FC000
003F000FC000
000000000000
000000000000
000000000000
000000000000
000000000000
000000000000
000000000000
000000000000
000000000000
000000000000
000000000000
000000000000
000000000000
000000000000
000000000000
000000000000
000000000000
000000000000
000000000000
000000000000
000000000000
000000000000
000000000000
000000000000
000000000000
000000000000
000000000000
000000000000
000000000000
000000000000
ENDCHAR
STARTCHAR U+005D
ENCODING 93
SWIDTH 1000 0
DWIDTH 27 0
BBX 46 60 -9 -12
BITMAP
000000000000
000000000000
000000000000
000000000000
000000000000
000000000000
00000FFFE000
00000FFFE000
00000FFFE000
00001FFFC000
00001FFFC000
00001FFFC000
0000001F8000
0000001F8000
0000001F8000
0000003F0000
0000003F0000
0000003F0000
0000007E0000
0000007E0000
0000007E0000
000000FC0000
000000FC0000
000000FC0000
000001F80000
000001F80000
000001F80000
000003F00000
000003F00000
000003F00000
000007E00000
000007E00000
000007E00000
00000FC00000
00000FC00000
00000FC00000
00001F800000
00001F800000
00001F800000
00003F000000
00003F000000
00003F000000
00FFFE000000
00FFFE000000
00FFFE000000
01FFFC000000
01FFFC000000
01FFFC000000
000000000000
000000000000
000000000000
000000000000
000000000000
000000000000
000000000000
000000000000
000000000000
000000000000
000000000000
000000000000
ENDCHAR
STARTCHAR U+005C
ENCODING 92
SWIDTH 1000 0
DWIDTH 27 0
BBX 46 60 -9 -12
BITMAP
000000000000
000000000000
000000000000
000000000000
000000000000
000000000000
00007E000000
00007E000000
00007E000000
0000FC000000
0000FC000000
0000FC000000
00003F000000
00003F000000
00003F000000
00007E000000
00007E000000
00007E000000
00001F800000
00001F800000
00001F800000
00003F000000
00003F000000
00003F000000
00000FC00000
00000FC00000
00000FC00000
00001F800000
00001F800000
00001F800000
000007E00000
000007E00000
000007E00000
00000FC00000
00000FC00000
00000FC00000
000003F00000
000003F00000
000003F00000
000007E00000
000007E00000
000007E00000
000001F80000
000001F80000
000001F80000
000003F00000
000003F00000
000003F00000
000000000000
000000000000
000000000000
000000000000
000000000000
000000000000
000000000000
000000000000
000000000000
000000000000
000000000000
000000000000
ENDCHAR
STARTCHAR U+005B
ENCODING 91
SWIDTH 1000 0
DWIDTH 27 0
BBX 46 60 -9 -12
BITMAP
000000000000
000000000000
000000000000
000000000000
000000000000
000000000000
000001FFFC00
000001FFFC00
000001FFFC00
000003FFF800
000003FFF800
000003FFF800
000007E00000
000007E00000
000007E00000
00000FC00000
00000FC00000
00000FC00000
00001F800000
00001F800000
00001F800000
00003F000000
00003F000000
00003F000000
00007E000000
00007E000000
00007E000000
0000FC000000
0000FC000000
0000FC000000
0001F8000000
0001F8000000
0001F8000000
0003F0000000
0003F0000000
0003F0000000
0007E0000000
0007E0000000
0007E0000000
000FC0000000
000FC0000000
000FC0000000
001FFFC00000
001FFFC00000
001FFFC00000
003FFF800000
003FFF800000
003FFF800000
000000000000
000000000000
000000000000
000000000000
000000000000
000000000000
000000000000
000000000000
000000000000
000000000000
000000000000
000000000000
ENDCHAR
STARTCHAR U+005A
ENCODING 90
SWIDTH 1000 0
DWIDTH 27 0
BBX 46 60 -9 -12
BITMAP
000000000000
000000000000
000000000000
000000000000
000000000000
000000000000
00007FFFFF80
00007FFFFF80
00007FFFFF80
0000FFFFFF00
0000FFFFFF00
0000FFFFFF00
00000003F000
00000003F000
00000003F000
00000007E000
00000007E000
00000007E000
0000007E0000
0000007E0000
0000007E0000
000000FC0000
000000FC0000
000000FC0000
00000FC00000
00000FC00000
00000FC00000
00001F800000
00001F800000
00001F800000
0001F8000000
0001F8000000
0001F8000000
0003F0000000
0003F0000000
0003F0000000
003F00000000
003F00000000
003F00000000
007E00000000
007E00000000
007E00000000
07FFFFF80000
07FFFFF80000
07FFFFF80000
0FFFFFF00000
0FFFFFF00000
0FFFFFF00000
000000000000
000000000000
000000000000
000000000000
000000000000
000000000000
000000000000
000000000000
000000000000
000000000000
000000000000
000000000000
ENDCHAR
STARTCHAR U+0059
ENCODING 89
SWIDTH 1000 0
DWIDTH 27 0
BBX 46 60 -9 -12
BITMAP
000000000000
000000000000
000000000000
000000000000
000000000000
000000000000
00007E001F80
00007E001F80
00007E001F80
0000FC003F00
0000FC003F00
0000FC003F00
00003F03F000
00003F03F000
00003F03F000
00007E07E000
00007E07E000
00007E07E000
00001FFE0000
00001FFE0000
00001FFE0000
00003FFC0000
00003FFC0000
00003FFC0000
00000FC00000
00000FC00000
00000FC00000
00001F800000
00001F800000
00001F800000
00003F000000
00003F000000
00003F000000
00007E000000
00007E000000
00007E000000
0000FC000000
0000FC000000
0000FC000000
0001F8000000
0001F8000000
0001F8000000
0003F0000000
0003F0000000
0003F0000000
0007E0000000
0007E0000000
0007E0000000
000000000000
000000000000
000000000000
000000000000
000000000000
000000000000
000000000000
000000000000
000000000000
000000000000
000000000000
000000000000
ENDCHAR
STARTCHAR U+0058
ENCODING 88
SWIDTH 1000 0
DWIDTH 27 0
BBX 46 60 -9 -12
BITMAP
000000000000
000000000000
000000000000
000000000000
000000000000
000000000000
00007E001F80
00007E001F80
00007E001F80
0000FC003F00
0000FC003F00
0000FC003F00
00003F03F000
00003F03F000
00003F03F000
00007E07E000
00007E07E000
00007E07E000
00001FFE0000
00001FFE0000
00001FFE0000
00003FFC0000
00003FFC0000
00003FFC0000
00000FC00000
00000FC00000
00000FC00000
00001F800000
00001F800000
00001F800000
0001FFE00000
0001FFE00000
0001FFE00000
0003FFC00000
0003FFC00000
0003FFC00000
003F03F00000
003F03F00000
003F03F00000
007E07E00000
007E07E00000
007E07E00000
07E001F80000
07E001F80000
07E001F80000
0FC003F00000
0FC003F00000
0FC003F00000
000000000000
000000000000
000000000000
000000000000
000000000000
000000000000
000000000000
000000000000
000000000000
000000000000
000000000000
000000000000
ENDCHAR
STARTCHAR U+0057
ENCODING 87
SWIDTH 1000 0
DWIDTH 27 0
BBX 46 60 -9 -12
BITMAP
000000000000
000000000000
000000000000
000000000000
000000000000
000000000000
00007E001F80
00007E001F80
00007E001F80
0000FC003F00
0000FC003F00
0000FC003F00
0001F8007E00
0001F8007E00
0001F8007E00
0003F000FC00
0003F000FC00
0003F000FC00
0007E001F800
0007E001F800
0007E001F800
000FC003F000
000FC003F000
000FC003F000
001F8FC7E000
001F8FC7E000
001F8FC7E000
003F1F8FC000
003F1F8FC000
003F1F8FC000
007E3F1F8000
007E3F1F8000
007E3F1F8000
00FC7E3F0000
00FC7E3F0000
00FC7E3F0000
01FFFFFE0000
01FFFFFE0000
01FFFFFE0000
03FFFFFC0000
03FFFFFC0000
03FFFFFC0000
00FC0FC00000
00FC0FC00000
00FC0FC00000
01F81F800000
01F81F800000
01F81F800000
000000000000
000000000000
000000000000
000000000000
000000000000
000000000000
000000000000
000000000000
000000000000
000000000000
000000000000
000000000000
ENDCHAR
STARTCHAR U+0056
ENCODING 86
SWIDTH 1000 0
DWIDTH 27 0
BBX 46 60 -9 -12
BITMAP
000000000000
000000000000
000000000000
000000000000
000000000000
000000000000
00007E001F80
00007E001F80
00007E001F80
0000FC003F00
0000FC003F00
0000FC003F00
0001F8007E00
0001F8007E00
0001F8007E00
0003F000FC00
0003F000FC00
0003F000FC00
0000FC0FC000
0000FC0FC000
0000FC0FC000
0001F81F8000
0001F81F8000
0001F81F8000
0003F03F0000
0003F03F0000
0003F03F0000
0007E07E0000
0007E07E0000
0007E07E0000
0001FFE00000
0001FFE00000
0001FFE00000
0003FFC00000
0003FFC00000
0003FFC00000
0007FF800000
0007FF800000
0007FF800000
000FFF000000
000FFF000000
000FFF000000
0003F0000000
0003F0000000
0003F0000000
0007E0000000
0007E0000000
0007E0000000
000000000000
000000000000
000000000000
000000000000
000000000000
000000000000
000000000000
000000000000
000000000000
000000000000
000000000000
000000000000
ENDCHAR
STARTCHAR U+0055
ENCODING 85
SWIDTH 1000 0
DWIDTH 27 0
BBX 46 60 -9 -12
BITMAP
000000000000
000000000000
000000000000
000000000000
000000000000
000000000000
00007E001F80
00007E001F80
00007E001F80
0000FC003F00
0000FC003F00
0000FC003F00
0001F8007E00
0001F8007E00
0001F8007E00
0003F000FC00
0003F000FC00
0003F000FC00
0007E001F800
0007E001F800
0007E001F800
000FC003F000
000FC003F000
000FC003F000
001F8007E000
001F8007E000
001F8007E000
003F000FC000
003F000FC000
003F000FC000
007E001F8000
007E001F8000
007E001F8000
00FC003F0000
00FC003F0000
00FC003F0000
01F8007E0000
01F8007E0000
01F8007E0000
03F000FC0000
03F000FC0000
03F000FC0000
00FFFFC00000
00FFFFC00000
00FFFFC00000
01FFFF800000
01FFFF800000
01FFFF800000
000000000000
000000000000
000000000000
000000000000
000000000000
000000000000
000000000000
000000000000
000000000000
000000000000
000000000000
000000000000
ENDCHAR
STARTCHAR U+0054
ENCODING 84
SWIDTH 1000 0
DWIDTH 27 0
BBX 46 60 -9 -12
BITMAP
000000000000
000000000000
000000000000
000000000000
000000000000
000000000000
00007FFFFF80
00007FFFFF80
00007FFFFF80
0000FFFFFF00
0000FFFFFF00
0000FFFFFF00
000000FC0000
000000FC0000
000000FC0000
000001F80000
000001F80000
000001F80000
000003F00000
000003F00000
000003F00000
000007E00000
000007E00000
000007E00000
00000FC00000
00000FC00000
00000FC00000
00001F800000
00001F800000
00001F800000
00003F000000
00003F000000
00003F000000
00007E000000
00007E000000
00007E000000
0000FC000000
0000FC000000
0000FC000000
0001F8000000
0001F8000000
0001F8000000
0003F0000000
0003F0000000
0003F0000000
0007E0000000
0007E0000000
0007E0000000
000000000000
000000000000
000000000000
000000000000
000000000000
000000000000
000000000000
000000000000
000000000000
000000000000
000000000000
000000000000
ENDCHAR
STARTCHAR U+0053
ENCODING 83
SWIDTH 1000 0
DWIDTH 27 0
BBX 46 60 -9 -12
BITMAP
000000000000
000000000000
000000000000
000000000000
000000000000
000000000000
00000FFFFC00
00000FFFFC00
00000FFFFC00
00001FFFF800
00001FFFF800
00001FFFF800
0001F8007E00
0001F8007E00
0001F8007E00
0003F000FC00
0003F000FC00
0003F000FC00
0007E0000000
0007E0000000
0007E0000000
000FC0000000
000FC0000000
000FC0000000
0003FFFF0000
0003FFFF0000
0003FFFF0000
0007FFFE0000
0007FFFE0000
0007FFFE0000
0000001F8000
0000001F8000
0000001F8000
0000003F0000
0000003F0000
0000003F0000
01F8007E0000
01F8007E0000
01F8007E0000
03F000FC0000
03F000FC0000
03F000FC0000
00FFFFC00000
00FFFFC00000
00FFFFC00000
01FFFF800000
01FFFF800000
01FFFF800000
000000000000
000000000000
000000000000
000000000000
000000000000
000000000000
000000000000
000000000000
000000000000
000000000000
000000000000
000000000000
ENDCHAR
STARTCHAR U+0052
ENCODING 82
SWIDTH 1000 0
DWIDTH 27 0
BBX 46 60 -9 -12
BITMAP
000000000000
000000000000
000000000000
000000000000
000000000000
000000000000
00007FFFFC00
00007FFFFC00
00007FFFFC00
0000FFFFF800
0000FFFFF800
0000FFFFF800
0001F8007E00
0001F8007E00
0001F8007E00
0003F000FC00
0003F000FC00
0003F000FC00
0007E001F800
0007E001F800
0007E001F800
000FC003F000
000FC003F000
000FC003F000
001FFFFF0000
001FFFFF0000
001FFFFF0000
003FFFFE0000
003FFFFE0000
003FFFFE0000
007E07E00000
007E07E00000
007E07E00000
00FC0FC00000
00FC0FC00000
00FC0FC00000
01F803F00000
01F803F00000
01F803F00000
03F007E00000
03F007E00000
03F007E00000
07E001F80000
07E001F80000
07E001F80000
0FC003F00000
0FC003F00000
0FC003F00000
000000000000
000000000000
000000000000
000000000000
000000000000
000000000000
000000000000
000000000000
000000000000
000000000000
000000000000
000000000000
ENDCHAR
STARTCHAR U+0051
ENCODING 81
SWIDTH 1000 0
DWIDTH 27 0
BBX 46 60 -9 -12
BITMAP
000000000000
000000000000
000000000000
000000000000
000000000000
000000000000
00000FFFFC00
00000FFFFC00
00000FFFFC00
00001FFFF800
00001FFFF800
00001FFFF800
0001F8007E00
0001F8007E00
0001F8007E00
0003F000FC00
0003F000FC00
0003F000FC00
0007E001F800
0007E001F800
0007E001F800
000FC003F000
000FC003F000
000FC003F000
001F8007E000
001F8007E000
001F8007E000
003F000FC000
003F000FC000
003F000FC000
007E07FF8000
007E07FF8000
007E07FF8000
00FC0FFF0000
00FC0FFF0000
00FC0FFF0000
01F803F00000
01F803F00000
01F803F00000
03F007E00000
03F007E00000
03F007E00000
00FFFFF80000
00FFFFF80000
00FFFFF80000
01FFFFF00000
01FFFFF00000
01FFFFF00000
000000000000
000000000000
000000000000
000000000000
000000000000
000000000000
000000000000
000000000000
000000000000
000000000000
000000000000
000000000000
ENDCHAR
STARTCHAR U+0050
ENCODING 80
SWIDTH 1000 0
DWIDTH 27 0
BBX 46 60 -9 -12
BITMAP
000000000000
000000000000
000000000000
000000000000
000000000000
000000000000
00007FFFFC00
00007FFFFC00
00007FFFFC00
0000FFFFF800
0000FFFFF800
0000FFFFF800
0001F8007E00
0001F8007E00
0001F8007E00
0003F000FC00
0003F000FC00
0003F000FC00
0007E001F800
0007E001F800
0007E001F800
000FC003F000
000FC003F000
000FC003F000
001FFFFF0000
001FFFFF0000
001FFFFF0000
003FFFFE0000
003FFFFE0000
003FFFFE0000
007E00000000
007E00000000
007E00000000
00FC00000000
00FC00000000
00FC00000000
01F800000000
01F800000000
01F800000000
03F000000000
03F000000000
03F000000000
07E000000000
07E000000000
07E000000000
0FC000000000
0FC000000000
0FC000000000
000000000000
000000000000
000000000000
000000000000
000000000000
000000000000
000000000000
000000000000
000000000000
000000000000
000000000000
000000000000
ENDCHAR
STARTCHAR U+004F
ENCODING 79
SWIDTH 1000 0
DWIDTH 27 0
BBX 46 60 -9 -12
BITMAP
000000000000
000000000000
000000000000
000000000000
000000000000
000000000000
00000FFFFC00
00000FFFFC00
00000FFFFC00
00001FFFF800
00001FFFF800
00001FFFF800
0001F8007E00
0001F8007E00
0001F8007E00
0003F000FC00
0003F000FC00
0003F000FC00
0007E001F800
0007E001F800
0007E001F800
000FC003F000
000FC003F000
000FC003F000
001F8007E000
001F8007E000
001F8007E000
003F000FC000
003F000FC000
003F000FC000
007E001F8000
007E001F8000
007E001F8000
00FC003F0000
00FC003F0000
00FC003F0000
01F8007E0000
01F8007E0000
01F8007E0000
03F000FC0000
03F000FC0000
03F000FC0000
00FFFFC00000
00FFFFC00000
00FFFFC00000
01FFFF800000
01FFFF800000
01FFFF800000
000000000000
000000000000
000000000000
000000000000
000000000000
000000000000
000000000000
000000000000
000000000000
000000000000
000000000000
000000000000
ENDCHAR
STARTCHAR U+004E
ENCODING 78
SWIDTH 1000 0
DWIDTH 27 0
BBX 46 60 -9 -12
BITMAP
000000000000
000000000000
000000000000
000000000000
000000000000
000000000000
00007E001F80
00007E001F80
00007E001F80
0000FC003F00
0000FC003F00
0000FC003F00
0001FF007E00
0001FF007E00
0001FF007E00
0003FE00FC00
0003FE00FC00
0003FE00FC00
0007FF81F800
0007FF81F800
0007FF81F800
000FFF03F000
000FFF03F000
000FFF03F000
001F8FC7E000
001F8FC7E000
001F8FC7E000
003F1F8FC000
003F1F8FC000
003F1F8FC000
007E07FF8000
007E07FF8000
007E07FF8000
00FC0FFF0000
00FC0FFF0000
00FC0FFF0000
01F803FE0000
01F803FE0000
01F803FE0000
03F007FC0000
03F007FC0000
03F007FC0000
07E001F80000
07E001F80000
07E001F80000
0FC003F00000
0FC003F00000
0FC003F00000
000000000000
000000000000
000000000000
000000000000
000000000000
000000000000
000000000000
000000000000
000000000000
000000000000
000000000000
000000000000
ENDCHAR
STARTCHAR U+004D
ENCODING 77
SWIDTH 1000 0
DWIDTH 27 0
BBX 46 60 -9 -12
BITMAP
000000000000
000000000000
000000000000
000000000000
000000000000
000000000000
00007E001F80
00007E001F80
00007E001F80
0000FC003F00
0000FC003F00
0000FC003F00
0001FF03FE00
0001FF03FE00
0001FF03FE00
0003FE07FC00
0003FE07FC00
0003FE07FC00
0007FFFFF800
0007FFFFF800
0007FFFFF800
000FFFFFF000
000FFFFFF000
000FFFFFF000
001F8FC7E000
001F8FC7E000
001F8FC7E000
003F1F8FC000
003F1F8FC000
003F1F8FC000
007E001F8000
007E001F8000
007E001F8000
00FC003F0000
00FC003F0000
00FC003F0000
01F8007E0000
01F8007E0000
01F8007E0000
03F000FC0000
03F000FC0000
03F000FC0000
07E001F80000
07E001F80000
07E001F80000
0FC003F00000
0FC003F00000
0FC003F00000
000000000000
000000000000
000000000000
000000000000
000000000000
000000000000
000000000000
000000000000
000000000000
000000000000
000000000000
000000000000
ENDCHAR
STARTCHAR U+004C
ENCODING 76
SWIDTH 1000 0
DWIDTH 27 0
BBX 46 60 -9 -12
BITMAP
000000000000
000000000000
000000000000
000000000000
000000000000
000000000000
00007E000000
00007E000000
00007E000000
0000FC000000
0000FC000000
0000FC000000
0001F8000000
0001F8000000
0001F8000000
0003F0000000
0003F0000000
0003F0000000
0007E0000000
0007E0000000
0007E0000000
000FC0000000
000FC0000000
000FC0000000
001F80000000
001F80000000
001F80000000
003F00000000
003F00000000
003F00000000
007E00000000
007E00000000
007E00000000
00FC00000000
00FC00000000
00FC00000000
01F800000000
01F800000000
01F800000000
03F000000000
03F000000000
03F000000000
07FFFFF80000
07FFFFF80000
07FFFFF80000
0FFFFFF00000
0FFFFFF00000
0FFFFFF00000
000000000000
000000000000
000000000000
000000000000
000000000000
000000000000
000000000000
000000000000
000000000000
000000000000
000000000000
000000000000
ENDCHAR
STARTCHAR U+004B
ENCODING 75
SWIDTH 1000 0
DWIDTH 27 0
BBX 46 60 -9 -12
BITMAP
000000000000
000000000000
000000000000
000000000000
000000000000
000000000000
00007E001F80
00007E001F80
00007E001F80
0000FC003F00
0000FC003F00
0000FC003F00
0001F81FF000
0001F81FF000
0001F81FF000
0003F03FE000
0003F03FE000
0003F03FE000
0007FFF00000
0007FFF00000
0007FFF00000
000FFFE00000
000FFFE00000
000FFFE00000
001FF0000000
001FF0000000
001FF0000000
003FE0000000
003FE0000000
003FE0000000
007FFF000000
007FFF000000
007FFF000000
00FFFE000000
00FFFE000000
00FFFE000000
01F81FF00000
01F81FF00000
01F81FF00000
03F03FE00000
03F03FE00000
03F03FE00000
07E001F80000
07E001F80000
07E001F80000
0FC003F00000
0FC003F00000
0FC003F00000
000000000000
000000000000
000000000000
000000000000
000000000000
000000000000
000000000000
000000000000
000000000000
000000000000
000000000000
000000000000
ENDCHAR
STARTCHAR U+004A
ENCODING 74
SWIDTH 1000 0
DWIDTH 27 0
BBX 46 60 -9 -12
BITMAP
000000000000
000000000000
000000000000
000000000000
000000000000
000000000000
00000007FF80
00000007FF80
00000007FF80
0000000FFF00
0000000FFF00
0000000FFF00
00000003F000
00000003F000
00000003F000
00000007E000
00000007E000
00000007E000
0000000FC000
0000000FC000
0000000FC000
0000001F8000
0000001F8000
0000001F8000
0000003F0000
0000003F0000
0000003F0000
0000007E0000
0000007E0000
0000007E0000
000000FC0000
000000FC0000
000000FC0000
000001F80000
000001F80000
000001F80000
01F803F00000
01F803F00000
01F803F00000
03F007E00000
03F007E00000
03F007E00000
00FFFE000000
00FFFE000000
00FFFE000000
01FFFC000000
01FFFC000000
01FFFC000000
000000000000
000000000000
000000000000
000000000000
000000000000
000000000000
000000000000
000000000000
000000000000
000000000000
000000000000
000000000000
ENDCHAR
STARTCHAR U+0049
ENCODING 73
SWIDTH 1000 0
DWIDTH 27 0
BBX 46 60 -9 -12
BITMAP
000000000000
000000000000
000000000000
000000000000
000000000000
000000000000
00000FFFFC00
00000FFFFC00
00000FFFFC00
00001FFFF800
00001FFFF800
00001FFFF800
000000FC0000
000000FC0000
000000FC0000
000001F80000
000001F80000
000001F80000
000003F00000
000003F00000
000003F00000
000007E00000
000007E00000
000007E00000
00000FC00000
00000FC00000
00000FC00000
00001F800000
00001F800000
00001F800000
00003F000000
00003F000000
00003F000000
00007E000000
00007E000000
00007E000000
0000FC000000
0000FC000000
0000FC000000
0001F8000000
0001F8000000
0001F8000000
00FFFFC00000
00FFFFC00000
00FFFFC00000
01FFFF800000
01FFFF800000
01FFFF800000
000000000000
000000000000
000000000000
000000000000
000000000000
000000000000
000000000000
000000000000
000000000000
000000000000
000000000000
000000000000
ENDCHAR
STARTCHAR U+0048
ENCODING 72
SWIDTH 1000 0
DWIDTH 27 0
BBX 46 60 -9 -12
BITMAP
000000000000
000000000000
000000000000
000000000000
000000000000
000000000000
00007E001F80
00007E001F80
00007E001F80
0000FC003F00
0000FC003F00
0000FC003F00
0001F8007E00
0001F8007E00
0001F8007E00
0003F000FC00
0003F000FC00
0003F000FC00
0007E001F800
0007E001F800
0007E001F800
000FC003F000
000FC003F000
000FC003F000
001FFFFFE000
001FFFFFE000
001FFFFFE000
003FFFFFC000
003FFFFFC000
003FFFFFC000
007E001F8000
007E001F8000
007E001F8000
00FC003F0000
00FC003F0000
00FC003F0000
01F8007E0000
01F8007E0000
01F8007E0000
03F000FC0000
03F000FC0000
03F000FC0000
07E001F80000
07E001F80000
07E001F80000
0FC003F00000
0FC003F00000
0FC003F00000
000000000000
000000000000
000000000000
000000000000
000000000000
000000000000
000000000000
000000000000
000000000000
000000000000
000000000000
000000000000
ENDCHAR
STARTCHAR U+0047
ENCODING 71
SWIDTH 1000 0
DWIDTH 27 0
BBX 46 60 -9 -12
BITMAP
000000000000
000000000000
000000000000
000000000000
000000000000
000000000000
000001FFFC00
000001FFFC00
000001FFFC00
000003FFF800
000003FFF800
000003FFF800
00003F007E00
00003F007E00
00003F007E00
00007E00FC00
00007E00FC00
00007E00FC00
0007E0000000
0007E0000000
0007E0000000
000FC0000000
000FC0000000
000FC0000000
001F80000000
001F80000000
001F80000000
003F00000000
003F00000000
003F00000000
007E07FF8000
007E07FF8000
007E07FF8000
00FC0FFF0000
00FC0FFF0000
00FC0FFF0000
003F007E0000
003F007E0000
003F007E0000
007E00FC0000
007E00FC0000
007E00FC0000
001FFFC00000
001FFFC00000
001FFFC00000
003FFF800000
003FFF800000
003FFF800000
000000000000
000000000000
000000000000
000000000000
000000000000
000000000000
000000000000
000000000000
000000000000
000000000000
000000000000
000000000000
ENDCHAR
STARTCHAR U+0046
ENCODING 70
SWIDTH 1000 0
DWIDTH 27 0
BBX 46 60 -9 -12
BITMAP
000000000000
000000000000
000000000000
000000000000
000000000000
000000000000
00007FFFFF80
00007FFFFF80
00007FFFFF80
0000FFFFFF00
0000FFFFFF00
0000FFFFFF00
0001F8000000
0001F8000000
0001F8000000
0003F0000000
0003F0000000
0003F0000000
0007E0000000
0007E0000000
0007E0000000
000FC0000000
000FC0000000
000FC0000000
001FFFF80000
001FFFF80000
001FFFF80000
003FFFF00000
003FFFF00000
003FFFF00000
007E00000000
007E00000000
007E00000000
00FC00000000
00FC00000000
00FC00000000
01F800000000
01F800000000
01F800000000
03F000000000
03F000000000
03F000000000
07E000000000
07E000000000
07E000000000
0FC000000000
0FC000000000
0FC000000000
000000000000
000000000000
000000000000
000000000000
000000000000
000000000000
000000000000
000000000000
000000000000
000000000000
000000000000
000000000000
ENDCHAR
STARTCHAR U+0045
ENCODING 69
SWIDTH 1000 0
DWIDTH 27 0
BBX 46 60 -9 -12
BITMAP
000000000000
000000000000
000000000000
000000000000
000000000000
000000000000
00007FFFFF80
00007FFFFF80
00007FFFFF80
0000FFFFFF00
0000FFFFFF00
0000FFFFFF00
0001F8000000
0001F8000000
0001F8000000
0003F0000000
0003F0000000
0003F0000000
0007E0000000
0007E0000000
0007E0000000
000FC0000000
000FC0000000
000FC0000000
001FFFF80000
001FFFF80000
001FFFF80000
003FFFF00000
003FFFF00000
003FFFF00000
007E00000000
007E00000000
007E00000000
00FC00000000
00FC00000000
00FC00000000
01F800000000
01F800000000
01F800000000
03F000000000
03F000000000
03F000000000
07FFFFF80000
07FFFFF80000
07FFFFF80000
0FFFFFF00000
0FFFFFF00000
0FFFFFF00000
000000000000
000000000000
000000000000
000000000000
000000000000
000000000000
000000000000
000000000000
000000000000
000000000000
000000000000
000000000000
ENDCHAR
STARTCHAR U+0044
ENCODING 68
SWIDTH 1000 0
DWIDTH 27 0
BBX 46 60 -9 -12
BITMAP
000000000000
000000000000
000000000000
000000000000
000000000000
000000000000
00007FFFE000
00007FFFE000
00007FFFE000
0000FFFFC000
0000FFFFC000
0000FFFFC000
00003F03F000
00003F03F000
00003F03F000
00007E07E000
00007E07E000
00007E07E000
0000FC01F800
0000FC01F800
0000FC01F800
0001F803F000
0001F803F000
0001F803F000
0003F007E000
0003F007E000
0003F007E000
0007E00FC000
0007E00FC000
0007E00FC000
000FC01F8000
000FC01F8000
000FC01F8000
001F803F0000
001F803F0000
001F803F0000
003F03F00000
003F03F00000
003F03F00000
007E07E00000
007E07E00000
007E07E00000
07FFFE000000
07FFFE000000
07FFFE000000
0FFFFC000000
0FFFFC000000
0FFFFC000000
000000000000
000000000000
000000000000
000000000000
000000000000
000000000000
000000000000
000000000000
000000000000
000000000000
000000000000
000000000000
ENDCHAR
STARTCHAR U+0043
ENCODING 67
SWIDTH 1000 0
DWIDTH 27 0
BBX 46 60 -9 -12
BITMAP
000000000000
000000000000
000000000000
000000000000
000000000000
000000000000
000001FFFC00
000001FFFC00
000001FFFC00
000003FFF800
000003FFF800
000003FFF800
00003F007E00
00003F007E00
00003F007E00
00007E00FC00
00007E00FC00
00007E00FC00
0007E0000000
0007E0000000
0007E0000000
000FC0000000
000FC0000000
000FC0000000
001F80000000
001F80000000
001F80000000
003F00000000
003F00000000
003F00000000
007E00000000
007E00000000
007E00000000
00FC00000000
00FC00000000
00FC00000000
003F007E0000
003F007E0000
003F007E0000
007E00FC0000
007E00FC0000
007E00FC0000
001FFFC00000
001FFFC00000
001FFFC00000
003FFF800000
003FFF800000
003FFF800000
000000000000
000000000000
000000000000
000000000000
000000000000
000000000000
000000000000
000000000000
000000000000
000000000000
000000000000
000000000000
ENDCHAR
STARTCHAR U+0042
ENCODING 66
SWIDTH 1000 0
DWIDTH 27 0
BBX 46 60 -9 -12
BITMAP
000000000000
000000000000
000000000000
000000000000
000000000000
000000000000
00007FFFFC00
00007FFFFC00
00007FFFFC00
0000FFFFF800
0000FFFFF800
0000FFFFF800
00003F007E00
00003F007E00
00003F007E00
00007E00FC00
00007E00FC00
00007E00FC00
0000FC01F800
0000FC01F800
0000FC01F800
0001F803F000
0001F803F000
0001F803F000
0003FFFF0000
0003FFFF0000
0003FFFF0000
0007FFFE0000
0007FFFE0000
0007FFFE0000
000FC01F8000
000FC01F8000
000FC01F8000
001F803F0000
001F803F0000
001F803F0000
003F007E0000
003F007E0000
003F007E0000
007E00FC0000
007E00FC0000
007E00FC0000
07FFFFC00000
07FFFFC00000
07FFFFC00000
0FFFFF800000
0FFFFF800000
0FFFFF800000
000000000000
000000000000
000000000000
000000000000
000000000000
000000000000
000000000000
000000000000
000000000000
000000000000
000000000000
000000000000
ENDCHAR
STARTCHAR U+0041
ENCODING 65
SWIDTH 1000 0
DWIDTH 27 0
BBX 46 60 -9 -12
BITMAP
000000000000
000000000000
000000000000
000000000000
000000000000
000000000000
0000003F0000
0000003F0000
0000003F0000
0000007E0000
0000007E0000
0000007E0000
000007FF8000
000007FF8000
000007FF8000
00000FFF0000
00000FFF0000
00000FFF0000
0000FC0FC000
0000FC0FC000
0000FC0FC000
0001F81F8000
0001F81F8000
0001F81F8000
001F8007E000
001F8007E000
001F8007E000
003F000FC000
003F000FC000
003F000FC000
007FFFFF8000
007FFFFF8000
007FFFFF8000
00FFFFFF0000
00FFFFFF0000
00FFFFFF0000
01F8007E0000
01F8007E0000
01F8007E0000
03F000FC0000
03F000FC0000
03F000FC0000
07E001F80000
07E001F80000
07E001F80000
0FC003F00000
0FC003F00000
0FC003F00000
000000000000
000000000000
000000000000
000000000000
000000000000
000000000000
000000000000
000000000000
000000000000
000000000000
000000000000
000000000000
ENDCHAR
STARTCHAR U+0040
ENCODING 64
SWIDTH 1000 0
DWIDTH 27 0
BBX 46 60 -9 -12
BITMAP
000000000000
000000000000
000000000000
000000000000
000000000000
000000000000
00000FFFFC00
00000FFFFC00
00000FFFFC00
00001FFFF800
00001FFFF800
00001FFFF800
0001F8007E00
0001F8007E00
0001F8007E00
0003F000FC00
0003F000FC00
0003F000FC00
0007E3FFF800
0007E3FFF800
0007E3FFF800
000FC7FFF000
000FC7FFF000
000FC7FFF000
001FFE3FE000
001FFE3FE000
001FFE3FE000
003FFC7FC000
003FFC7FC000
003FFC7FC000
007E3FFF8000
007E3FFF8000
007E3FFF8000
00FC7FFF0000
00FC7FFF0000
00FC7FFF0000
01F800000000
01F800000000
01F800000000
03F000000000
03F000000000
03F000000000
00FFFFC00000
00FFFFC00000
00FFFFC00000
01FFFF800000
01FFFF800000
01FFFF800000
000000000000
000000000000
000000000000
000000000000
000000000000
000000000000
000000000000
000000000000
000000000000
000000000000
000000000000
000000000000
ENDCHAR
STARTCHAR U+003F
ENCODING 63
SWIDTH 1000 0
DWIDTH 27 0
BBX 46 60 -9 -12
BITMAP
000000000000
000000000000
000000000000
000000000000
000000000000
000000000000
00000FFFFC00
00000FFFFC00
00000FFFFC00
00001FFFF800
00001FFFF800
00001FFFF800
0001F8007E00
0001F8007E00
0001F8007E00
0003F000FC00
0003F000FC00
0003F000FC00
0000007FC000
0000007FC000
0000007FC000
000000FF8000
000000FF8000
000000FF8000
00000FC00000
00000FC00000
00000FC00000
00001F800000
00001F800000
00001F800000
00003F000000
00003F000000
00003F000000
00007E000000
00007E000000
00007E000000
000000000000
000000000000
000000000000
000000000000
000000000000
000000000000
0003F0000000
0003F0000000
0003F0000000
0007E0000000
0007E0000000
0007E0000000
000000000000
000000000000
000000000000
000000000000
000000000000
000000000000
000000000000
000000000000
000000000000
000000000000
000000000000
000000000000
ENDCHAR
STARTCHAR U+003E
ENCODING 62
SWIDTH 1000 0
DWIDTH 27 0
BBX 46 60 -9 -12
BITMAP
000000000000
000000000000
000000000000
000000000000
000000000000
000000000000
00007E000000
00007E000000
00007E000000
0000FC000000
0000FC000000
0000FC000000
000007E00000
000007E00000
000007E00000
00000FC00000
00000FC00000
00000FC00000
0000007E0000
0000007E0000
0000007E0000
000000FC0000
000000FC0000
000000FC0000
00000007E000
00000007E000
00000007E000
0000000FC000
0000000FC000
0000001FC000
000007E00000
000007E00000
000007E00000
00000FC00000
00000FC00000
00001FC00000
0007E0000000
0007E0000000
0007E0000000
000FC0000000
000FC0000000
001FC0000000
07E000000000
07E000000000
07E000000000
0FC000000000
0FC000000000
0FC000000000
000000000000
000000000000
000000000000
000000000000
000000000000
000000000000
000000000000
000000000000
000000000000
000000000000
000000000000
000000000000
ENDCHAR
STARTCHAR U+003D
ENCODING 61
SWIDTH 1000 0
DWIDTH 27 0
BBX 46 60 -9 -12
BITMAP
000000000000
000000000000
000000000000
000000000000
000000000000
000000000000
000000000000
000000000000
000000000000
000000000000
000000000000
000000000000
000000000000
000000000000
000000000000
000000000000
000000000000
000000000000
0007FFFFF800
0007FFFFF800
0007FFFFF800
000FFFFFF000
000FFFFFF000
000FFFFFF000
000000000000
000000000000
000000000000
000000000000
000000000000
000000000000
007FFFFF8000
007FFFFF8000
007FFFFF8000
00FFFFFF0000
00FFFFFF0000
00FFFFFF0000
000000000000
000000000000
000000000000
000000000000
000000000000
000000000000
000000000000
000000000000
000000000000
000000000000
000000000000
000000000000
000000000000
000000000000
000000000000
000000000000
000000000000
000000000000
000000000000
000000000000
000000000000
000000000000
000000000000
000000000000
ENDCHAR
STARTCHAR U+003C
ENCODING 60
SWIDTH 1000 0
DWIDTH 27 0
BBX 46 60 -9 -12
BITMAP
000000000000
000000000000
000000000000
000000000000
000000000000
000000000000
000000001F80
000000001F80
000000001F80
000000003F00
000000003F00
000000007F00
0000001F8000
0000001F8000
0000001F8000
0000003F0000
0000003F0000
0000007F0000
00001F800000
00001F800000
00001F800000
00003F000000
00003F000000
00007F000000
001F80000000
001F80000000
001F80000000
003F00000000
003F00000000
003F00000000
0001F8000000
0001F8000000
0001F8000000
0003F0000000
0003F0000000
0003F0000000
00001F800000
00001F800000
00001F800000
00003F000000
00003F000000
00003F000000
000001F80000
000001F80000
000001F80000
000003F00000
000003F00000
000003F00000
000000000000
000000000000
000000000000
000000000000
000000000000
000000000000
000000000000
000000000000
000000000000
000000000000
000000000000
000000000000
ENDCHAR
STARTCHAR U+003B
ENCODING 59
SWIDTH 1000 0
DWIDTH 27 0
BBX 46 60 -9 -12
BITMAP
000000000000
000000000000
000000000000
000000000000
000000000000
000000000000
000000000000
000000000000
000000000000
000000000000
000000000000
000000000000
000007FC0000
000007FC0000
000007FC0000
00000FF80000
00000FF80000
00000FF80000
00001FF00000
00001FF00000
00001FF00000
00003FE00000
00003FE00000
00003FE00000
000000000000
000000000000
000000000000
000000000000
000000000000
000000000000
000000000000
000000000000
000000000000
000000000000
000000000000
000000000000
0007FC000000
0007FC000000
0007FC000000
000FF8000000
000FF8000000
000FF8000000
001F80000000
001F80000000
001F80000000
003F00000000
003F00000000
003F00000000
03F000000000
03F000000000
03F000000000
07E000000000
07E000000000
07E000000000
000000000000
000000000000
000000000000
000000000000
000000000000
000000000000
ENDCHAR
STARTCHAR U+003A
ENCODING 58
SWIDTH 1000 0
DWIDTH 27 0
BBX 46 60 -9 -12
BITMAP
000000000000
000000000000
000000000000
000000000000
000000000000
000000000000
000000000000
000000000000
000000000000
000000000000
000000000000
000000000000
000007FC0000
000007FC0000
000007FC0000
00000FF80000
00000FF80000
00000FF80000
00001FF00000
00001FF00000
00001FF00000
00003FE00000
00003FE00000
00003FE00000
000000000000
000000000000
000000000000
000000000000
000000000000
000000000000
000000000000
000000000000
000000000000
000000000000
000000000000
000000000000
0007FC000000
0007FC000000
0007FC000000
000FF8000000
000FF8000000
000FF8000000
001FF0000000
001FF0000000
001FF0000000
003FE0000000
003FE0000000
003FE0000000
000000000000
000000000000
000000000000
000000000000
000000000000
000000000000
000000000000
000000000000
000000000000
000000000000
000000000000
000000000000
ENDCHAR
STARTCHAR U+0039
ENCODING 57
SWIDTH 1000 0
DWIDTH 27 0
BBX 46 60 -9 -12
BITMAP
000000000000
000000000000
000000000000
000000000000
000000000000
000000000000
00000FFFFC00
00000FFFFC00
00000FFFFC00
00001FFFF800
00001FFFF800
00001FFFF800
0001F8007E00
0001F8007E00
0001F8007E00
0003F000FC00
0003F000FC00
0003F000FC00
0007E00FF800
0007E00FF800
0007E00FF800
000FC01FF000
000FC01FF000
000FC01FF000
0003FFFFE000
0003FFFFE000
0003FFFFE000
0007FFFFC000
0007FFFFC000
0007FFFFC000
0000001F8000
0000001F8000
0000001F8000
0000003F0000
0000003F0000
0000003F0000
000003F00000
000003F00000
000003F00000
000007E00000
000007E00000
000007E00000
00FFFE000000
00FFFE000000
00FFFE000000
01FFFC000000
01FFFC000000
01FFFC000000
000000000000
000000000000
000000000000
000000000000
000000000000
000000000000
000000000000
000000000000
000000000000
000000000000
000000000000
000000000000
ENDCHAR
STARTCHAR U+0038
ENCODING 56
SWIDTH 1000 0
DWIDTH 27 0
BBX 46 60 -9 -12
BITMAP
000000000000
000000000000
000000000000
000000000000
000000000000
000000000000
00000FFFFC00
00000FFFFC00
00000FFFFC00
00001FFFF800
00001FFFF800
00001FFFF800
0001F8007E00
0001F8007E00
0001F8007E00
0003F000FC00
0003F000FC00
0003F000FC00
0007E001F800
0007E001F800
0007E001F800
000FC003F000
000FC003F000
000FC003F000
0003FFFF0000
0003FFFF0000
0003FFFF0000
0007FFFE0000
0007FFFE0000
0007FFFE0000
007E001F8000
007E001F8000
007E001F8000
00FC003F0000
00FC003F0000
00FC003F0000
01F8007E0000
01F8007E0000
01F8007E0000
03F000FC0000
03F000FC0000
03F000FC0000
00FFFFC00000
00FFFFC00000
00FFFFC00000
01FFFF800000
01FFFF800000
01FFFF800000
000000000000
000000000000
000000000000
000000000000
000000000000
000000000000
000000000000
000000000000
000000000000
000000000000
000000000000
000000000000
ENDCHAR
STARTCHAR U+0037
ENCODING 55
SWIDTH 1000 0
DWIDTH 27 0
BBX 46 60 -9 -12
BITMAP
000000000000
000000000000
000000000000
000000000000
000000000000
000000000000
00007FFFFF80
00007FFFFF80
00007FFFFF80
0000FFFFFF00
0000FFFFFF00
0000FFFFFF00
000000007E00
000000007E00
000000007E00
00000000FC00
00000000FC00
00000000FC00
0000000FC000
0000000FC000
0000000FC000
0000001F8000
0000001F8000
0000001F8000
000001F80000
000001F80000
000001F80000
000003F00000
000003F00000
000003F00000
00003F000000
00003F000000
00003F000000
00007E000000
00007E000000
00007E000000
0007E0000000
0007E0000000
0007E0000000
000FC0000000
000FC0000000
000FC0000000
001F80000000
001F80000000
001F80000000
003F00000000
003F00000000
003F00000000
000000000000
000000000000
000000000000
000000000000
000000000000
000000000000
000000000000
000000000000
000000000000
000000000000
000000000000
000000000000
ENDCHAR
STARTCHAR U+0036
ENCODING 54
SWIDTH 1000 0
DWIDTH 27 0
BBX 46 60 -9 -12
BITMAP
000000000000
000000000000
000000000000
000000000000
000000000000
000000000000
000001FFFC00
000001FFFC00
000001FFFC00
000003FFF800
000003FFF800
000003FFF800
00003F000000
00003F000000
00003F000000
00007E000000
00007E000000
00007E000000
0007E0000000
0007E0000000
0007E0000000
000FC0000000
000FC0000000
000FC0000000
001FFFFF0000
001FFFFF0000
001FFFFF0000
003FFFFE0000
003FFFFE0000
003FFFFE0000
007FC01F8000
007FC01F8000
007FC01F8000
00FF803F0000
00FF803F0000
00FF803F0000
01F8007E0000
01F8007E0000
01F8007E0000
03F000FC0000
03F000FC0000
03F000FC0000
00FFFFC00000
00FFFFC00000
00FFFFC00000
01FFFF800000
01FFFF800000
01FFFF800000
000000000000
000000000000
000000000000
000000000000
000000000000
000000000000
000000000000
000000000000
000000000000
000000000000
000000000000
000000000000
ENDCHAR
STARTCHAR U+0035
ENCODING 53
SWIDTH 1000 0
DWIDTH 27 0
BBX 46 60 -9 -12
BITMAP
000000000000
000000000000
000000000000
000000000000
000000000000
000000000000
00007FFFFF80
00007FFFFF80
00007FFFFF80
0000FFFFFF00
0000FFFFFF00
0000FFFFFF00
0001F8000000
0001F8000000
0001F8000000
0003F0000000
0003F0000000
0003F0000000
0007FFFFC000
0007FFFFC000
0007FFFFC000
000FFFFF8000
000FFFFF8000
000FFFFF8000
001FF007E000
001FF007E000
001FF007E000
003FE00FC000
003FE00FC000
003FE00FC000
0000001F8000
0000001F8000
0000001F8000
0000003F0000
0000003F0000
0000003F0000
01F8007E0000
01F8007E0000
01F8007E0000
03F000FC0000
03F000FC0000
03F000FC0000
00FFFFC00000
00FFFFC00000
00FFFFC00000
01FFFF800000
01FFFF800000
01FFFF800000
000000000000
000000000000
000000000000
000000000000
000000000000
000000000000
000000000000
000000000000
000000000000
000000000000
000000000000
000000000000
ENDCHAR
STARTCHAR U+0034
ENCODING 52
SWIDTH 1000 0
DWIDTH 27 0
BBX 46 60 -9 -12
BITMAP
000000000000
000000000000
000000000000
000000000000
000000000000
000000000000
00000007E000
00000007E000
00000007E000
0000000FC000
0000000FC000
0000000FC000
000000FF8000
000000FF8000
000000FF8000
000001FF0000
000001FF0000
000001FF0000
00001FFE0000
00001FFE0000
00001FFE0000
00003FFC0000
00003FFC0000
00003FFC0000
0003F1F80000
0003F1F80000
0003F1F80000
0007E3F00000
0007E3F00000
0007E3F00000
007FFFFF8000
007FFFFF8000
007FFFFF8000
00FFFFFF0000
00FFFFFF0000
00FFFFFF0000
00001F800000
00001F800000
00001F800000
00003F000000
00003F000000
00003F000000
00007E000000
00007E000000
00007E000000
0000FC000000
0000FC000000
0000FC000000
000000000000
000000000000
000000000000
000000000000
000000000000
000000000000
000000000000
000000000000
000000000000
000000000000
000000000000
000000000000
ENDCHAR
STARTCHAR U+0033
ENCODING 51
SWIDTH 1000 0
DWIDTH 27 0
BBX 46 60 -9 -12
BITMAP
000000000000
000000000000
000000000000
000000000000
000000000000
000000000000
00007FFFFF80
00007FFFFF80
00007FFFFF80
0000FFFFFF00
0000FFFFFF00
0000FFFFFF00
00000003F000
00000003F000
00000003F000
00000007E000
00000007E000
00000007E000
0000007E0000
0000007E0000
0000007E0000
000000FC0000
000000FC0000
000000FC0000
00000FFF0000
00000FFF0000
00000FFF0000
00001FFE0000
00001FFE0000
00001FFE0000
0000001F8000
0000001F8000
0000001F8000
0000003F0000
0000003F0000
0000003F0000
01F8007E0000
01F8007E0000
01F8007E0000
03F000FC0000
03F000FC0000
03F000FC0000
00FFFFC00000
00FFFFC00000
00FFFFC00000
01FFFF800000
01FFFF800000
01FFFF800000
000000000000
000000000000
000000000000
000000000000
000000000000
000000000000
000000000000
000000000000
000000000000
000000000000
000000000000
000000000000
ENDCHAR
STARTCHAR U+0032
ENCODING 50
SWIDTH 1000 0
DWIDTH 27 0
BBX 46 60 -9 -12
BITMAP
000000000000
000000000000
000000000000
000000000000
000000000000
000000000000
00000FFFFC00
00000FFFFC00
00000FFFFC00
00001FFFF800
00001FFFF800
00001FFFF800
0001F8007E00
0001F8007E00
0001F8007E00
0003F000FC00
0003F000FC00
0003F000FC00
00000001F800
00000001F800
00000001F800
00000003F000
00000003F000
00000003F000
00000FFF0000
00000FFF0000
00000FFF0000
00001FFE0000
00001FFE0000
00001FFE0000
000FF8000000
000FF8000000
000FF8000000
001FF0000000
001FF0000000
001FF0000000
01F800000000
01F800000000
01F800000000
03F000000000
03F000000000
03F000000000
07FFFFF80000
07FFFFF80000
07FFFFF80000
0FFFFFF00000
0FFFFFF00000
0FFFFFF00000
000000000000
000000000000
000000000000
000000000000
000000000000
000000000000
000000000000
000000000000
000000000000
000000000000
000000000000
000000000000
ENDCHAR
STARTCHAR U+0031
ENCODING 49
SWIDTH 1000 0
DWIDTH 27 0
BBX 46 60 -9 -12
BITMAP
000000000000
000000000000
000000000000
000000000000
000000000000
000000000000
0000003F0000
0000003F0000
0000003F0000
0000007E0000
0000007E0000
0000007E0000
000007FC0000
000007FC0000
000007FC0000
00000FF80000
00000FF80000
00000FF80000
0000FFF00000
0000FFF00000
0000FFF00000
0001FFE00000
0001FFE00000
0001FFE00000
00000FC00000
00000FC00000
00000FC00000
00001F800000
00001F800000
00001F800000
00003F000000
00003F000000
00003F000000
00007E000000
00007E000000
00007E000000
0000FC000000
0000FC000000
0000FC000000
0001F8000000
0001F8000000
0001F8000000
00FFFFC00000
00FFFFC00000
00FFFFC00000
01FFFF800000
01FFFF800000
01FFFF800000
000000000000
000000000000
000000000000
000000000000
000000000000
000000000000
000000000000
000000000000
000000000000
000000000000
000000000000
000000000000
ENDCHAR
STARTCHAR U+0030
ENCODING 48
SWIDTH 1000 0
DWIDTH 27 0
BBX 46 60 -9 -12
BITMAP
000000000000
000000000000
000000000000
000000000000
000000000000
000000000000
000001FFE000
000001FFE000
000001FFE000
000003FFC000
000003FFC000
000003FFC000
00003F03F000
00003F03F000
00003F03F000
00007E07E000
00007E07E000
00007E07E000
0007E001F800
0007E001F800
0007E001F800
000FC003F000
000FC003F000
000FC003F000
001F8007E000
001F8007E000
001F8007E000
003F000FC000
003F000FC000
003F000FC000
007E001F8000
007E001F8000
007E001F8000
00FC003F0000
00FC003F0000
00FC003F0000
003F03F00000
003F03F00000
003F03F00000
007E07E00000
007E07E00000
007E07E00000
001FFE000000
001FFE000000
001FFE000000
003FFC000000
003FFC000000
003FFC000000
000000000000
000000000000
000000000000
000000000000
000000000000
000000000000
000000000000
000000000000
000000000000
000000000000
000000000000
000000000000
ENDCHAR
STARTCHAR U+002F
ENCODING 47
SWIDTH 1000 0
DWIDTH 27 0
BBX 46 60 -9 -12
BITMAP
000000000000
000000000000
000000000000
000000000000
000000000000
000000000000
000000001F80
000000001F80
000000001F80
000000003F00
000000003F00
000000003F00
00000003F000
00000003F000
00000003F000
00000007E000
00000007E000
00000007E000
0000007E0000
0000007E0000
0000007E0000
000000FC0000
000000FC0000
000000FC0000
00000FC00000
00000FC00000
00000FC00000
00001F800000
00001F800000
00001F800000
0001F8000000
0001F8000000
0001F8000000
0003F0000000
0003F0000000
0003F0000000
003F00000000
003F00000000
003F00000000
007E00000000
007E00000000
007E00000000
07E000000000
07E000000000
07E000000000
0FC000000000
0FC000000000
0FC000000000
000000000000
000000000000
000000000000
000000000000
000000000000
000000000000
000000000000
000000000000
000000000000
000000000000
000000000000
000000000000
ENDCHAR
STARTCHAR U+002E
ENCODING 46
SWIDTH 1000 0
DWIDTH 27 0
BBX 46 60 -9 -12
BITMAP
000000000000
000000000000
000000000000
000000000000
000000000000
000000000000
000000000000
000000000000
000000000000
000000000000
000000000000
000000000000
000000000000
000000000000
000000000000
000000000000
000000000000
000000000000
000000000000
000000000000
000000000000
000000000000
000000000000
000000000000
000000000000
000000000000
000000000000
000000000000
000000000000
000000000000
000000000000
000000000000
000000000000
000000000000
000000000000
000000000000
0007FC000000
0007FC000000
0007FC000000
000FF8000000
000FF8000000
000FF8000000
001FF0000000
001FF0000000
001FF0000000
003FE0000000
003FE0000000
003FE0000000
000000000000
000000000000
000000000000
000000000000
000000000000
000000000000
000000000000
000000000000
000000000000
000000000000
000000000000
000000000000
ENDCHAR
STARTCHAR U+002D
ENCODING 45
SWIDTH 1000 0
DWIDTH 27 0
BBX 46 60 -9 -12
BITMAP
000000000000
000000000000
000000000000
000000000000
000000000000
000000000000
000000000000
000000000000
000000000000
000000000000
000000000000
000000000000
000000000000
000000000000
000000000000
000000000000
000000000000
000000000000
000000000000
000000000000
000000000000
000000000000
000000000000
000000000000
001FFFFFE000
001FFFFFE000
001FFFFFE000
003FFFFFC000
003FFFFFC000
003FFFFFC000
000000000000
000000000000
000000000000
000000000000
000000000000
000000000000
000000000000
000000000000
000000000000
000000000000
000000000000
000000000000
000000000000
000000000000
000000000000
000000000000
000000000000
000000000000
000000000000
000000000000
000000000000
000000000000
000000000000
000000000000
000000000000
000000000000
000000000000
000000000000
000000000000
000000000000
ENDCHAR
STARTCHAR U+002C
ENCODING 44
SWIDTH 1000 0
DWIDTH 27 0
BBX 46 60 -9 -12
BITMAP
000000000000
000000000000
000000000000
000000000000
000000000000
000000000000
000000000000
000000000000
000000000000
000000000000
000000000000
000000000000
000000000000
000000000000
000000000000
000000000000
000000000000
000000000000
000000000000
000000000000
000000000000
000000000000
000000000000
000000000000
000000000000
000000000000
000000000000
000000000000
000000000000
000000000000
000000000000
000000000000
000000000000
000000000000
000000000000
000000000000
0007FC000000
0007FC000000
0007FC000000
000FF8000000
000FF8000000
000FF8000000
001F80000000
001F80000000
001F80000000
003F00000000
003F00000000
003F00000000
03F000000000
03F000000000
03F000000000
07E000000000
07E000000000
07E000000000
000000000000
000000000000
000000000000
000000000000
000000000000
000000000000
ENDCHAR
STARTCHAR U+002B
ENCODING 43
SWIDTH 1000 0
DWIDTH 27 0
BBX 46 60 -9 -12
BITMAP
000000000000
000000000000
000000000000
000000000000
000000000000
000000000000
000000000000
000000000000
000000000000
000000000000
000000000000
000000000000
000000FC0000
000000FC0000
000000FC0000
000001F80000
000001F80000
000001F80000
000003F00000
000003F00000
000003F00000
000007E00000
000007E00000
000007E00000
001FFFFFE000
001FFFFFE000
001FFFFFE000
003FFFFFC000
003FFFFFC000
003FFFFFC000
00003F000000
00003F000000
00003F000000
00007E000000
00007E000000
00007E000000
0000FC000000
0000FC000000
0000FC000000
0001F8000000
0001F8000000
0001F8000000
000000000000
000000000000
000000000000
000000000000
000000000000
000000000000
000000000000
000000000000
000000000000
000000000000
000000000000
000000000000
000000000000
000000000000
000000000000
000000000000
000000000000
000000000000
ENDCHAR
STARTCHAR U+002A
ENCODING 42
SWIDTH 1000 0
DWIDTH 27 0
BBX 46 60 -9 -12
BITMAP
000000000000
000000000000
000000000000
000000000000
000000000000
000000000000
000000000000
000000000000
000000000000
000000000000
000000000000
000000000000
00003F03F000
00003F03F000
00003F03F000
00007E07E000
00007E07E000
00007E07E000
00001FFE0000
00001FFE0000
00001FFE0000
00003FFC0000
00003FFC0000
00003FFC0000
001FFFFFE000
001FFFFFE000
001FFFFFE000
003FFFFFC000
003FFFFFC000
003FFFFFC000
0001FFE00000
0001FFE00000
0001FFE00000
0003FFC00000
0003FFC00000
0003FFC00000
003F03F00000
003F03F00000
003F03F00000
007E07E00000
007E07E00000
007E07E00000
000000000000
000000000000
000000000000
000000000000
000000000000
000000000000
000000000000
000000000000
000000000000
000000000000
000000000000
000000000000
000000000000
000000000000
000000000000
000000000000
000000000000
000000000000
ENDCHAR
STARTCHAR U+0029
ENCODING 41
SWIDTH 1000 0
DWIDTH 27 0
BBX 46 60 -9 -12
BITMAP
000000000000
000000000000
000000000000
000000000000
000000000000
000000000000
000001F80000
000001F80000
000001F80000
000003F00000
000003F00000
000003F00000
000000FC0000
000000FC0000
000000FC0000
000001F80000
000001F80000
000001F80000
0000007E0000
0000007E0000
0000007E0000
000000FC0000
000000FC0000
000000FC0000
000001F80000
000001F80000
000001F80000
000003F00000
000003F00000
000003F00000
000007E00000
000007E00000
000007E00000
00000FC00000
00000FC00000
00000FC00000
0000FC000000
0000FC000000
0000FC000000
0001F8000000
0001F8000000
0001F8000000
001F80000000
001F80000000
001F80000000
003F00000000
003F00000000
003F00000000
000000000000
000000000000
000000000000
000000000000
000000000000
000000000000
000000000000
000000000000
000000000000
000000000000
000000000000
000000000000
ENDCHAR
STARTCHAR U+0028
ENCODING 40
SWIDTH 1000 0
DWIDTH 27 0
BBX 46 60 -9 -12
BITMAP
000000000000
000000000000
000000000000
000000000000
000000000000
000000000000
00000007E000
00000007E000
00000007E000
0000000FC000
0000000FC000
0000000FC000
000000FC0000
000000FC0000
000000FC0000
000001F80000
000001F80000
000001F80000
00001F800000
00001F800000
00001F800000
00003F000000
00003F000000
00003F000000
00007E000000
00007E000000
00007E000000
0000FC000000
0000FC000000
0000FC000000
0001F8000000
0001F8000000
0001F8000000
0003F0000000
0003F0000000
0003F0000000
0000FC000000
0000FC000000
0000FC000000
0001F8000000
0001F8000000
0001F8000000
00007E000000
00007E000000
00007E000000
0000FC000000
0000FC000000
0000FC000000
000000000000
000000000000
000000000000
000000000000
000000000000
000000000000
000000000000
000000000000
000000000000
000000000000
000000000000
000000000000
ENDCHAR
STARTCHAR U+0027
ENCODING 39
SWIDTH 1000 0
DWIDTH 27 0
BBX 46 60 -9 -12
BITMAP
000000000000
000000000000
000000000000
000000000000
000000000000
000000000000
0000003FE000
0000003FE000
0000003FE000
0000007FC000
0000007FC000
0000007FC000
000000FC0000
000000FC0000
000000FC0000
000001F80000
000001F80000
000001F80000
00001F800000
00001F800000
00001F800000
00003F000000
00003F000000
00003F000000
000000000000
000000000000
000000000000
000000000000
000000000000
000000000000
000000000000
000000000000
000000000000
000000000000
000000000000
000000000000
000000000000
000000000000
000000000000
000000000000
000000000000
000000000000
000000000000
000000000000
000000000000
000000000000
000000000000
000000000000
000000000000
000000000000
000000000000
000000000000
000000000000
000000000000
000000000000
000000000000
000000000000
000000000000
000000000000
000000000000
ENDCHAR
STARTCHAR U+0026
ENCODING 38
SWIDTH 1000 0
DWIDTH 27 0
BBX 46 60 -9 -12
BITMAP
000000000000
000000000000
000000000000
000000000000
000000000000
000000000000
00000FFF0000
00000FFF0000
00000FFF0000
00001FFE0000
00001FFE0000
00001FFE0000
0001F81F8000
0001F81F8000
0001F81F8000
0003F03F0000
0003F03F0000
0003F03F0000
0007E07E0000
0007E07E0000
0007E07E0000
000FC0FC0000
000FC0FC0000
000FC0FC0000
0003FFC00000
0003FFC00000
0003FFC00000
0007FF800000
0007FF800000
0007FF800000
007E07FF8000
007E07FF8000
007E07FF8000
00FC0FFF0000
00FC0FFF0000
00FC0FFF0000
01F803F00000
01F803F00000
01F803F00000
03F007E00000
03F007E00000
03F007E00000
00FFFFF80000
00FFFFF80000
00FFFFF80000
01FFFFF00000
01FFFFF00000
01FFFFF00000
000000000000
000000000000
000000000000
000000000000
000000000000
000000000000
000000000000
000000000000
000000000000
000000000000
000000000000
000000000000
ENDCHAR
STARTCHAR U+0025
ENCODING 37
SWIDTH 1000 0
DWIDTH 27 0
BBX 46 60 -9 -12
BITMAP
000000000000
000000000000
000000000000
000000000000
000000000000
000000000000
00000FC01F80
00000FC01F80
00000FC01F80
00001F803F00
00001F803F00
00001F803F00
0001FFE3F000
0001FFE3F000
0001FFE3F000
0003FFC7E000
0003FFC7E000
0003FFC7E000
0000FC7E0000
0000FC7E0000
0000FC7E0000
0001F8FC0000
0001F8FC0000
0001F8FC0000
00000FC00000
00000FC00000
00000FC00000
00001F800000
00001F800000
00001F800000
0001F8FC0000
0001F8FC0000
0001F8FC0000
0003F1F80000
0003F1F80000
0003F1F80000
003F1FFE0000
003F1FFE0000
003F1FFE0000
007E3FFC0000
007E3FFC0000
007E3FFC0000
07E00FC00000
07E00FC00000
07E00FC00000
0FC01F800000
0FC01F800000
0FC01F800000
000000000000
000000000000
000000000000
000000000000
000000000000
000000000000
000000000000
000000000000
000000000000
000000000000
000000000000
000000000000
ENDCHAR
STARTCHAR U+0024
ENCODING 36
SWIDTH 1000 0
DWIDTH 27 0
BBX 46 60 -9 -12
BITMAP
000000000000
000000000000
000000000000
000000000000
000000000000
000000000000
0000003F0000
0000003F0000
0000003F0000
0000007E0000
0000007E0000
0000007E0000
00003FFFF000
00003FFFF000
00003FFFF000
00007FFFE000
00007FFFE000
00007FFFE000
0007E3F00000
0007E3F00000
0007E3F00000
000FC7E00000
000FC7E00000
000FC7E00000
0003FFFF0000
0003FFFF0000
0003FFFF0000
0007FFFE0000
0007FFFE0000
0007FFFE0000
00003F1F8000
00003F1F8000
00003F1F8000
00007E3F0000
00007E3F0000
00007E3F0000
003FFFF00000
003FFFF00000
003FFFF00000
007FFFE00000
007FFFE00000
007FFFE00000
0003F0000000
0003F0000000
0003F0000000
0007E0000000
0007E0000000
0007E0000000
000000000000
000000000000
000000000000
000000000000
000000000000
000000000000
000000000000
000000000000
000000000000
000000000000
000000000000
000000000000
ENDCHAR
STARTCHAR U+0023
ENCODING 35
SWIDTH 1000 0
DWIDTH 27 0
BBX 46 60 -9 -12
BITMAP
000000000000
000000000000
000000000000
000000000000
000000000000
000000000000
00000FC7E000
00000FC7E000
00000FC7E000
00001F8FC000
00001F8FC000
00001F8FC000
00003F1F8000
00003F1F8000
00003F1F8000
00007E3F0000
00007E3F0000
00007E3F0000
0007FFFFC000
0007FFFFC000
0007FFFFC000
000FFFFF8000
000FFFFF8000
000FFFFF8000
0003F1F80000
0003F1F80000
0003F1F80000
0007E3F00000
0007E3F00000
0007E3F00000
007FFFFC0000
007FFFFC0000
007FFFFC0000
00FFFFF80000
00FFFFF80000
00FFFFF80000
003F1F800000
003F1F800000
003F1F800000
007E3F000000
007E3F000000
007E3F000000
00FC7E000000
00FC7E000000
00FC7E000000
01F8FC000000
01F8FC000000
01F8FC000000
000000000000
000000000000
000000000000
000000000000
000000000000
000000000000
000000000000
000000000000
000000000000
000000000000
000000000000
000000000000
ENDCHAR
STARTCHAR U+0022
ENCODING 34
SWIDTH 1000 0
DWIDTH 27 0
BBX 46 60 -9 -12
BITMAP
000000000000
000000000000
000000000000
000000000000
000000000000
000000000000
00000FC7E000
00000FC7E000
00000FC7E000
00001F8FC000
00001F8FC000
00001F8FC000
00003F1F8000
00003F1F8000
00003F1F8000
00007E3F0000
00007E3F0000
00007E3F0000
0000FC7E0000
0000FC7E0000
0000FC7E0000
0001F8FC0000
0001F8FC0000
0001F8FC0000
000000000000
000000000000
000000000000
000000000000
000000000000
000000000000
000000000000
000000000000
000000000000
000000000000
000000000000
000000000000
000000000000
000000000000
000000000000
000000000000
000000000000
000000000000
000000000000
000000000000
000000000000
000000000000
000000000000
000000000000
000000000000
000000000000
000000000000
000000000000
000000000000
000000000000
000000000000
000000000000
000000000000
000000000000
000000000000
000000000000
ENDCHAR
STARTCHAR U+0021
ENCODING 33
SWIDTH 1000 0
DWIDTH 27 0
BBX 46 60 -9 -12
BITMAP
000000000000
000000000000
000000000000
000000000000
000000000000
000000000000
0000003F0000
0000003F0000
0000003F0000
0000007E0000
0000007E0000
0000007E0000
000000FC0000
000000FC0000
000000FC0000
000001F80000
000001F80000
000001F80000
000003F00000
000003F00000
000003F00000
000007E00000
000007E00000
000007E00000
00000FC00000
00000FC00000
00000FC00000
00001F800000
00001F800000
00001F800000
00003F000000
00003F000000
00003F000000
00007E000000
00007E000000
00007E000000
000000000000
000000000000
000000000000
000000000000
000000000000
000000000000
0003F0000000
0003F0000000
0003F0000000
0007E0000000
0007E0000000
0007E0000000
000000000000
000000000000
000000000000
000000000000
000000000000
000000000000
000000000000
000000000000
000000000000
000000000000
000000000000
000000000000
ENDCHAR
STARTCHAR U+2E2E
ENCODING 11822
SWIDTH 1000 0
DWIDTH 27 0
BBX 46 60 -9 -12
BITMAP
000000000000
000000000000
000000000000
000000000000
000000000000
000000000000
00000FFFFC00
00000FFFFC00
00000FFFFC00
00001FFFF800
00001FFFF800
00001FFFF800
0001F8007E00
0001F8007E00
0001F8007E00
0003F000FC00
0003F000FC00
0003F000FC00
0000FF800000
0000FF800000
0000FF800000
0001FF000000
0001FF000000
0001FF000000
00000FC00000
00000FC00000
00000FC00000
00001F800000
00001F800000
00001F800000
00003F000000
00003F000000
00003F000000
00007E000000
00007E000000
00007E000000
000000000000
000000000000
000000000000
000000000000
000000000000
000000000000
0003F0000000
0003F0000000
0003F0000000
0007E0000000
0007E0000000
0007E0000000
000000000000
000000000000
000000000000
000000000000
000000000000
000000000000
000000000000
000000000000
000000000000
000000000000
000000000000
000000000000
ENDCHAR
STARTCHAR U+00b7
ENCODING 183
SWIDTH 1000 0
DWIDTH 27 0
BBX 46 60 -9 -12
BITMAP
000000000000
000000000000
000000000000
000000000000
000000000000
000000000000
000000000000
000000000000
000000000000
000000000000
000000000000
000000000000
000000000000
000000000000
000000000000
000000000000
000000000000
000000000000
000000000000
000000000000
000000000000
000000000000
000000000000
000000000000
00000FC00000
00000FC00000
00000FC00000
00001F800000
00001F800000
00001F800000
000000000000
000000000000
000000000000
000000000000
000000000000
000000000000
000000000000
000000000000
000000000000
000000000000
000000000000
000000000000
000000000000
000000000000
000000000000
000000000000
000000000000
000000000000
000000000000
000000000000
000000000000
000000000000
000000000000
000000000000
000000000000
000000000000
000000000000
000000000000
000000000000
000000000000
ENDCHAR
STARTCHAR U+00A3
ENCODING 163
SWIDTH 1000 0
DWIDTH 27 0
BBX 46 60 -9 -12
BITMAP
000000000000
000000000000
000000000000
000000000000
000000000000
000000000000
0000003FFC00
0000003FFC00
0000003FFC00
0000007FF800
0000007FF800
0000007FF800
000007E07E00
000007E07E00
000007E07E00
00000FC0FC00
00000FC0FC00
00000FC0FC00
00001F800000
00001F800000
00001F800000
00003F000000
00003F000000
00003F000000
001FFFF80000
001FFFF80000
001FFFF80000
003FFFF00000
003FFFF00000
003FFFF00000
0001F8000000
0001F8000000
0001F8000000
0003F0000000
0003F0000000
0003F0000000
003FFF800000
003FFF800000
003FFF800000
007FFF000000
007FFF000000
007FFF000000
07FF8FF80000
07FF8FF80000
07FF8FF80000
0FFF1FF00000
0FFF1FF00000
0FFF1FF00000
03F000000000
03F000000000
03F000000000
07E000000000
07E000000000
07E000000000
000000000000
000000000000
000000000000
000000000000
000000000000
000000000000
ENDCHAR
STARTCHAR U+2260
ENCODING 8800
SWIDTH 1000 0
DWIDTH 27 0
BBX 46 60 -9 -12
BITMAP
000000000000
000000000000
000000000000
000000000000
000000000000
000000000000
000000001F80
000000001F80
000000001F80
000000003F00
000000003F00
000000003F00
00000003F000
00000003F000
00000003F000
00000007E000
00000007E000
00000007E000
0007FFFFF800
0007FFFFF800
0007FFFFF800
000FFFFFF000
000FFFFFF000
000FFFFFF000
00000FC00000
00000FC00000
00000FC00000
00001F800000
00001F800000
00001F800000
007FFFFF8000
007FFFFF8000
007FFFFF8000
00FFFFFF0000
00FFFFFF0000
00FFFFFF0000
003F00000000
003F00000000
003F00000000
007E00000000
007E00000000
007E00000000
07E000000000
07E000000000
07E000000000
0FC000000000
0FC000000000
0FC000000000
000000000000
000000000000
000000000000
000000000000
000000000000
000000000000
000000000000
000000000000
000000000000
000000000000
000000000000
000000000000
ENDCHAR
STARTCHAR U+03C0
ENCODING 960
SWIDTH 1000 0
DWIDTH 27 0
BBX 46 60 -9 -12
BITMAP
000000000000
000000000000
000000000000
000000000000
000000000000
000000000000
000000000000
000000000000
000000000000
000000000000
000000000000
000000000000
000000000000
000000000000
000000000000
000000000000
000000000000
000000000000
0007FFFFF800
0007FFFFF800
0007FFFFF800
000FFFFFF000
000FFFFFF000
000FFFFFF000
00007E3F0000
00007E3F0000
00007E3F0000
0000FC7E0000
0000FC7E0000
0000FC7E0000
0001F8FC0000
0001F8FC0000
0001F8FC0000
0003F1F80000
0003F1F80000
0003F1F80000
0007E3F00000
0007E3F00000
0007E3F00000
000FC7E00000
000FC7E00000
000FC7E00000
00FC0FC00000
00FC0FC00000
00FC0FC00000
01F81F800000
01F81F800000
01F81F800000
000000000000
000000000000
000000000000
000000000000
000000000000
000000000000
000000000000
000000000000
000000000000
000000000000
000000000000
000000000000
ENDCHAR
STARTCHAR U+2265
ENCODING 8805
SWIDTH 1000 0
DWIDTH 27 0
BBX 46 60 -9 -12
BITMAP
000000000000
000000000000
000000000000
000000000000
000000000000
000000000000
00007E000000
00007E000000
00007E000000
0000FC000000
0000FC000000
0000FC000000
000007E00000
000007E00000
000007E00000
00000FC00000
00000FC00000
00000FC00000
0000007E0000
0000007E0000
0000007E0000
000000FC0000
000000FC0000
000000FC0000
00000007E000
00000007E000
00000007E000
0000000FC000
0000000FC000
0000001FC000
000007E00000
000007E00000
000007E00000
00000FC00000
00000FC00000
00001FC00000
0007E0000000
0007E0000000
0007E0000000
000FC0000000
000FC0000000
001FC0000000
07E000000000
07E000000000
07E000000000
0FC000000000
0FC000000000
0FC000000000
1FFFFFE00000
1FFFFFE00000
1FFFFFE00000
3FFFFFC00000
3FFFFFC00000
3FFFFFC00000
000000000000
000000000000
000000000000
000000000000
000000000000
000000000000
ENDCHAR
STARTCHAR U+2264
ENCODING 8804
SWIDTH 1000 0
DWIDTH 27 0
BBX 46 60 -9 -12
BITMAP
000000000000
000000000000
000000000000
000000000000
000000000000
000000000000
000000001F80
000000001F80
000000001F80
000000003F00
000000003F00
000000007F00
0000001F8000
0000001F8000
0000001F8000
0000003F0000
0000003F0000
0000007F0000
00001F800000
00001F800000
00001F800000
00003F000000
00003F000000
00007F000000
001F80000000
001F80000000
001F80000000
003F00000000
003F00000000
003F00000000
0001F8000000
0001F8000000
0001F8000000
0003F0000000
0003F0000000
0003F0000000
00001F800000
00001F800000
00001F800000
00003F000000
00003F000000
00003F000000
000001F80000
000001F80000
000001F80000
000003F00000
000003F00000
000003F00000
1FFFFFE00000
1FFFFFE00000
1FFFFFE00000
3FFFFFC00000
3FFFFFC00000
3FFFFFC00000
000000000000
000000000000
000000000000
000000000000
000000000000
000000000000
ENDCHAR
STARTCHAR U+2502
ENCODING 9474
SWIDTH 1000 0
DWIDTH 27 0
BBX 46 60 -9 -12
BITMAP
0000000FC000
0000000FC000
0000000FC000
0000001F8000
0000001F8000
0000001F8000
0000003F0000
0000003F0000
0000003F0000
0000007E0000
0000007E0000
0000007E0000
000000FC0000
000000FC0000
000000FC0000
000001F80000
000001F80000
000001F80000
000003F00000
000003F00000
000003F00000
000007E00000
000007E00000
000007E00000
00000FC00000
00000FC00000
00000FC00000
00001F800000
00001F800000
00001F800000
00003F000000
00003F000000
00003F000000
00007E000000
00007E000000
00007E000000
0000FC000000
0000FC000000
0000FC000000
0001F8000000
0001F8000000
0001F8000000
0003F0000000
0003F0000000
0003F0000000
0007E0000000
0007E0000000
0007E0000000
000FC0000000
000FC0000000
000FC0000000
001F80000000
001F80000000
001F80000000
003F00000000
003F00000000
003F00000000
007E00000000
007E00000000
007E00000000
ENDCHAR
STARTCHAR U+252C
ENCODING 9516
SWIDTH 1000 0
DWIDTH 27 0
BBX 46 60 -9 -12
BITMAP
000000000000
000000000000
000000000000
000000000000
000000000000
000000000000
000000000000
000000000000
000000000000
000000000000
000000000000
000000000000
000000000000
000000000000
000000000000
000000000000
000000000000
000000000000
000000000000
000000000000
000000000000
000000000000
000000000000
000000000000
001FFFFFFC00
001FFFFFFC00
001FFFFFFC00
003FFFFFF800
003FFFFFF800
003FFFFFF800
00003F000000
00003F000000
00003F000000
00007E000000
00007E000000
00007E000000
0000FC000000
0000FC000000
0000FC000000
0001F8000000
0001F8000000
0001F8000000
0003F0000000
0003F0000000
0003F0000000
0007E0000000
0007E0000000
0007E0000000
000FC0000000
000FC0000000
000FC0000000
001F80000000
001F80000000
001F80000000
003F00000000
003F00000000
003F00000000
007E00000000
007E00000000
007E00000000
ENDCHAR
STARTCHAR U+2534
ENCODING 9524
SWIDTH 1000 0
DWIDTH 27 0
BBX 46 60 -9 -12
BITMAP
0000000FC000
0000000FC000
0000000FC000
0000001F8000
0000001F8000
0000001F8000
0000003F0000
0000003F0000
0000003F0000
0000007E0000
0000007E0000
0000007E0000
000000FC0000
000000FC0000
000000FC0000
000001F80000
000001F80000
000001F80000
000003F00000
000003F00000
000003F00000
000007E00000
000007E00000
000007E00000
001FFFFFFC00
001FFFFFFC00
001FFFFFFC00
003FFFFFF800
003FFFFFF800
003FFFFFF800
000000000000
000000000000
000000000000
000000000000
000000000000
000000000000
000000000000
000000000000
000000000000
000000000000
000000000000
000000000000
000000000000
000000000000
000000000000
000000000000
000000000000
000000000000
000000000000
000000000000
000000000000
000000000000
000000000000
000000000000
000000000000
000000000000
000000000000
000000000000
000000000000
000000000000
ENDCHAR
STARTCHAR U+2524
ENCODING 9508
SWIDTH 1000 0
DWIDTH 27 0
BBX 46 60 -9 -12
BITMAP
0000000FC000
0000000FC000
0000000FC000
0000001F8000
0000001F8000
0000001F8000
0000003F0000
0000003F0000
0000003F0000
0000007E0000
0000007E0000
0000007E0000
000000FC0000
000000FC0000
000000FC0000
000001F80000
000001F80000
000001F80000
000003F00000
000003F00000
000003F00000
000007E00000
000007E00000
000007E00000
001FFFC00000
001FFFC00000
001FFFC00000
003FFF800000
003FFF800000
003FFF800000
00003F000000
00003F000000
00003F000000
00007E000000
00007E000000
00007E000000
0000FC000000
0000FC000000
0000FC000000
0001F8000000
0001F8000000
0001F8000000
0003F0000000
0003F0000000
0003F0000000
0007E0000000
0007E0000000
0007E0000000
000FC0000000
000FC0000000
000FC0000000
001F80000000
001F80000000
001F80000000
003F00000000
003F00000000
003F00000000
007E00000000
007E00000000
007E00000000
ENDCHAR
STARTCHAR U+251C
ENCODING 9500
SWIDTH 1000 0
DWIDTH 27 0
BBX 46 60 -9 -12
BITMAP
0000000FC000
0000000FC000
0000000FC000
0000001F8000
0000001F8000
0000001F8000
0000003F0000
0000003F0000
0000003F0000
0000007E0000
0000007E0000
0000007E0000
000000FC0000
000000FC0000
000000FC0000
000001F80000
000001F80000
000001F80000
000003F00000
000003F00000
000003F00000
000007E00000
000007E00000
000007E00000
00000FFFFC00
00000FFFFC00
00000FFFFC00
00001FFFF800
00001FFFF800
00001FFFF800
00003F000000
00003F000000
00003F000000
00007E000000
00007E000000
00007E000000
0000FC000000
0000FC000000
0000FC000000
0001F8000000
0001F8000000
0001F8000000
0003F0000000
0003F0000000
0003F0000000
0007E0000000
0007E0000000
0007E0000000
000FC0000000
000FC0000000
000FC0000000
001F80000000
001F80000000
001F80000000
003F00000000
003F00000000
003F00000000
007E00000000
007E00000000
007E00000000
ENDCHAR
STARTCHAR U+23BD
ENCODING 9149
SWIDTH 1000 0
DWIDTH 27 0
BBX 46 60 -9 -12
BITMAP
000000000000
000000000000
000000000000
000000000000
000000000000
000000000000
000000000000
000000000000
000000000000
000000000000
000000000000
000000000000
000000000000
000000000000
000000000000
000000000000
000000000000
000000000000
000000000000
000000000000
000000000000
000000000000
000000000000
000000000000
000000000000
000000000000
000000000000
000000000000
000000000000
000000000000
000000000000
000000000000
000000000000
000000000000
000000000000
000000000000
000000000000
000000000000
000000000000
000000000000
000000000000
000000000000
000000000000
000000000000
000000000000
000000000000
000000000000
000000000000
1FFFFFFC0000
1FFFFFFC0000
1FFFFFFC0000
3FFFFFF80000
3FFFFFF80000
3FFFFFF80000
000000000000
000000000000
000000000000
000000000000
000000000000
000000000000
ENDCHAR
STARTCHAR U+23BC
ENCODING 9148
SWIDTH 1000 0
DWIDTH 27 0
BBX 46 60 -9 -12
BITMAP
000000000000
000000000000
000000000000
000000000000
000000000000
000000000000
000000000000
000000000000
000000000000
000000000000
000000000000
000000000000
000000000000
000000000000
000000000000
000000000000
000000000000
000000000000
000000000000
000000000000
000000000000
000000000000
000000000000
000000000000
000000000000
000000000000
000000000000
000000000000
000000000000
000000000000
000000000000
000000000000
000000000000
000000000000
000000000000
000000000000
01FFFFFFC000
01FFFFFFC000
01FFFFFFC000
03FFFFFF8000
03FFFFFF8000
03FFFFFF8000
000000000000
000000000000
000000000000
000000000000
000000000000
000000000000
000000000000
000000000000
000000000000
000000000000
000000000000
000000000000
000000000000
000000000000
000000000000
000000000000
000000000000
000000000000
ENDCHAR
STARTCHAR U+2500
ENCODING 9472
SWIDTH 1000 0
DWIDTH 27 0
BBX 46 60 -9 -12
BITMAP
000000000000
000000000000
000000000000
000000000000
000000000000
000000000000
000000000000
000000000000
000000000000
000000000000
000000000000
000000000000
000000000000
000000000000
000000000000
000000000000
000000000000
000000000000
000000000000
000000000000
000000000000
000000000000
000000000000
000000000000
001FFFFFFC00
001FFFFFFC00
001FFFFFFC00
003FFFFFF800
003FFFFFF800
003FFFFFF800
000000000000
000000000000
000000000000
000000000000
000000000000
000000000000
000000000000
000000000000
000000000000
000000000000
000000000000
000000000000
000000000000
000000000000
000000000000
000000000000
000000000000
000000000000
000000000000
000000000000
000000000000
000000000000
000000000000
000000000000
000000000000
000000000000
000000000000
000000000000
000000000000
000000000000
ENDCHAR
STARTCHAR U+23BB
ENCODING 9147
SWIDTH 1000 0
DWIDTH 27 0
BBX 46 60 -9 -12
BITMAP
000000000000
000000000000
000000000000
000000000000
000000000000
000000000000
000000000000
000000000000
000000000000
000000000000
000000000000
000000000000
0001FFFFFFC0
0001FFFFFFC0
0001FFFFFFC0
0003FFFFFF80
0003FFFFFF80
0003FFFFFF80
000000000000
000000000000
000000000000
000000000000
000000000000
000000000000
000000000000
000000000000
000000000000
000000000000
000000000000
000000000000
000000000000
000000000000
000000000000
000000000000
000000000000
000000000000
000000000000
000000000000
000000000000
000000000000
000000000000
000000000000
000000000000
000000000000
000000000000
000000000000
000000000000
000000000000
000000000000
000000000000
000000000000
000000000000
000000000000
000000000000
000000000000
000000000000
000000000000
000000000000
000000000000
000000000000
ENDCHAR
STARTCHAR U+23BA
ENCODING 9146
SWIDTH 1000 0
DWIDTH 27 0
BBX 46 60 -9 -12
BITMAP
00001FFFFFFC
00001FFFFFFC
00001FFFFFFC
00003FFFFFF8
00003FFFFFF8
00003FFFFFF8
000000000000
000000000000
000000000000
000000000000
000000000000
000000000000
000000000000
000000000000
000000000000
000000000000
000000000000
000000000000
000000000000
000000000000
000000000000
000000000000
000000000000
000000000000
000000000000
000000000000
000000000000
000000000000
000000000000
000000000000
000000000000
000000000000
000000000000
000000000000
000000000000
000000000000
000000000000
000000000000
000000000000
000000000000
000000000000
000000000000
000000000000
000000000000
000000000000
000000000000
000000000000
000000000000
000000000000
000000000000
000000000000
000000000000
000000000000
000000000000
000000000000
000000000000
000000000000
000000000000
000000000000
000000000000
ENDCHAR
STARTCHAR U+253C
ENCODING 9532
SWIDTH 1000 0
DWIDTH 27 0
BBX 46 60 -9 -12
BITMAP
0000000FC000
0000000FC000
0000000FC000
0000001F8000
0000001F8000
0000001F8000
0000003F0000
0000003F0000
0000003F0000
0000007E0000
0000007E0000
0000007E0000
000000FC0000
000000FC0000
000000FC0000
000001F80000
000001F80000
000001F80000
000003F00000
000003F00000
000003F00000
000007E00000
000007E00000
000007E00000
001FFFFFFC00
001FFFFFFC00
001FFFFFFC00
003FFFFFF800
003FFFFFF800
003FFFFFF800
00003F000000
00003F000000
00003F000000
00007E000000
00007E000000
00007E000000
0000FC000000
0000FC000000
0000FC000000
0001F8000000
0001F8000000
0001F8000000
0003F0000000
0003F0000000
0003F0000000
0007E0000000
0007E0000000
0007E0000000
000FC0000000
000FC0000000
000FC0000000
001F80000000
001F80000000
001F80000000
003F00000000
003F00000000
003F00000000
007E00000000
007E00000000
007E00000000
ENDCHAR
STARTCHAR U+2514
ENCODING 9492
SWIDTH 1000 0
DWIDTH 27 0
BBX 46 60 -9 -12
BITMAP
0000000FC000
0000000FC000
0000000FC000
0000001F8000
0000001F8000
0000001F8000
0000003F0000
0000003F0000
0000003F0000
0000007E0000
0000007E0000
0000007E0000
000000FC0000
000000FC0000
000000FC0000
000001F80000
000001F80000
000001F80000
000003F00000
000003F00000
000003F00000
000007E00000
000007E00000
000007E00000
00000FFFFC00
00000FFFFC00
00000FFFFC00
00001FFFF800
00001FFFF800
00001FFFF800
000000000000
000000000000
000000000000
000000000000
000000000000
000000000000
000000000000
000000000000
000000000000
000000000000
000000000000
000000000000
000000000000
000000000000
000000000000
000000000000
000000000000
000000000000
000000000000
000000000000
000000000000
000000000000
000000000000
000000000000
000000000000
000000000000
000000000000
000000000000
000000000000
000000000000
ENDCHAR
STARTCHAR U+250C
ENCODING 9484
SWIDTH 1000 0
DWIDTH 27 0
BBX 46 60 -9 -12
BITMAP
000000000000
000000000000
000000000000
000000000000
000000000000
000000000000
000000000000
000000000000
000000000000
000000000000
000000000000
000000000000
000000000000
000000000000
000000000000
000000000000
000000000000
000000000000
000000000000
000000000000
000000000000
000000000000
000000000000
000000000000
00000FFFFC00
00000FFFFC00
00000FFFFC00
00001FFFF800
00001FFFF800
00001FFFF800
00003F000000
00003F000000
00003F000000
00007E000000
00007E000000
00007E000000
0000FC000000
0000FC000000
0000FC000000
0001F8000000
0001F8000000
0001F8000000
0003F0000000
0003F0000000
0003F0000000
0007E0000000
0007E0000000
0007E0000000
000FC0000000
000FC0000000
000FC0000000
001F80000000
001F80000000
001F80000000
003F00000000
003F00000000
003F00000000
007E00000000
007E00000000
007E00000000
ENDCHAR
STARTCHAR U+2510
ENCODING 9488
SWIDTH 1000 0
DWIDTH 27 0
BBX 46 60 -9 -12
BITMAP
000000000000
000000000000
000000000000
000000000000
000000000000
000000000000
000000000000
000000000000
000000000000
000000000000
000000000000
000000000000
000000000000
000000000000
000000000000
000000000000
000000000000
000000000000
000000000000
000000000000
000000000000
000000000000
000000000000
000000000000
001FFFC00000
001FFFC00000
001FFFC00000
003FFF800000
003FFF800000
003FFF800000
00003F000000
00003F000000
00003F000000
00007E000000
00007E000000
00007E000000
0000FC000000
0000FC000000
0000FC000000
0001F8000000
0001F8000000
0001F8000000
0003F0000000
0003F0000000
0003F0000000
0007E0000000
0007E0000000
0007E0000000
000FC0000000
000FC0000000
000FC0000000
001F80000000
001F80000000
001F80000000
003F00000000
003F00000000
003F00000000
007E00000000
007E00000000
007E00000000
ENDCHAR
STARTCHAR U+2518
ENCODING 9496
SWIDTH 1000 0
DWIDTH 27 0
BBX 46 60 -9 -12
BITMAP
0000000FC000
0000000FC000
0000000FC000
0000001F8000
0000001F8000
0000001F8000
0000003F0000
0000003F0000
0000003F0000
0000007E0000
0000007E0000
0000007E0000
000000FC0000
000000FC0000
000000FC0000
000001F80000
000001F80000
000001F80000
000003F00000
000003F00000
000003F00000
000007E00000
000007E00000
000007E00000
001FFFC00000
001FFFC00000
001FFFC00000
003FFF800000
003FFF800000
003FFF800000
000000000000
000000000000
000000000000
000000000000
000000000000
000000000000
000000000000
000000000000
000000000000
000000000000
000000000000
000000000000
000000000000
000000000000
000000000000
000000000000
000000000000
000000000000
000000000000
000000000000
000000000000
000000000000
000000000000
000000000000
000000000000
000000000000
000000000000
000000000000
000000000000
000000000000
ENDCHAR
STARTCHAR U+240B
ENCODING 9227
SWIDTH 1000 0
DWIDTH 27 0
BBX 46 60 -9 -12
BITMAP
000000000000
000000000000
000000000000
000000000000
000000000000
000000000000
00007E07E000
00007E07E000
00007E07E000
0000FC0FC000
0000FC0FC000
0000FC0FC000
0001F81F8000
0001F81F8000
0001F81F8000
0003F03F0000
0003F03F0000
0003F03F0000
0000FFF00000
0000FFF00000
0000FFF00000
0001FFE00000
0001FFE00000
0001FFE00000
0003FFC00000
0003FFC00000
0003FFC00000
0007FF800000
0007FF800000
0007FF800000
0001FFFF8000
0001FFFF8000
0001FFFF8000
0003FFFF0000
0003FFFF0000
0003FFFF0000
00001F800000
00001F800000
00001F800000
00003F000000
00003F000000
00003F000000
00007E000000
00007E000000
00007E000000
0000FC000000
0000FC000000
0000FC000000
0001F8000000
0001F8000000
0001F8000000
0003F0000000
0003F0000000
0003F0000000
0007E0000000
0007E0000000
0007E0000000
000FC0000000
000FC0000000
000FC0000000
ENDCHAR
STARTCHAR U+2424
ENCODING 9252
SWIDTH 1000 0
DWIDTH 27 0
BBX 46 60 -9 -12
BITMAP
000000000000
000000000000
000000000000
000000000000
000000000000
000000000000
00007E07E000
00007E07E000
00007E07E000
0000FC0FC000
0000FC0FC000
0000FC0FC000
0001FF1F8000
0001FF1F8000
0001FF1F8000
0003FE3F0000
0003FE3F0000
0003FE3F0000
0007FFFE0000
0007FFFE0000
0007FFFE0000
000FFFFC0000
000FFFFC0000
000FFFFC0000
001F8FF80000
001F8FF80000
001F8FF80000
003F1FF00000
003F1FF00000
003F1FF00000
007E3FE00000
007E3FE00000
007E3FE00000
00FC7FC00000
00FC7FC00000
00FC7FC00000
0000FC000000
0000FC000000
0000FC000000
0001F8000000
0001F8000000
0001F8000000
0003F0000000
0003F0000000
0003F0000000
0007E0000000
0007E0000000
0007E0000000
000FC0000000
000FC0000000
000FC0000000
001F80000000
001F80000000
001F80000000
003FFF800000
003FFF800000
003FFF800000
007FFF000000
007FFF000000
007FFF000000
ENDCHAR
STARTCHAR U+00B1
ENCODING 177
SWIDTH 1000 0
DWIDTH 27 0
BBX 46 60 -9 -12
BITMAP
000000000000
000000000000
000000000000
000000000000
000000000000
000000000000
000000000000
000000000000
000000000000
000000000000
000000000000
000000000000
000000FC0000
000000FC0000
000000FC0000
000001F80000
000001F80000
000001F80000
000003F00000
000003F00000
000003F00000
000007E00000
000007E00000
000007E00000
001FFFFFE000
001FFFFFE000
001FFFFFE000
003FFFFFC000
003FFFFFC000
003FFFFFC000
00003F000000
00003F000000
00003F000000
00007E000000
00007E000000
00007E000000
0000FC000000
0000FC000000
0000FC000000
0001F8000000
0001F8000000
0001F8000000
07FFFFF80000
07FFFFF80000
07FFFFF80000
0FFFFFF00000
0FFFFFF00000
0FFFFFF00000
000000000000
000000000000
000000000000
000000000000
000000000000
000000000000
000000000000
000000000000
000000000000
000000000000
000000000000
000000000000
ENDCHAR
ENDFONT
